/* XPM */
/* DisabledPaste.xpm */
static char* DisabledPasteIconXPM[] =
{
 "16 15 3 1",
 "  c None",
 "8 c #808080",
 "f c #ffffff",
 "     8888       ",
 " 888888888888   ",
 "88888888888888  ",
 "8888ffffff8888f ",
 "88888888888888f ",
 "88888888888888f ",
 "88888888888888f ",
 "8888888fffff88f ",
 "8888888f    8f8 ",
 "8888888f888 888f",
 "8888888f fff f8f",
 "8888888f88888 8f",
 " 888888f fffff8f",
 "  ffff888888888f",
 "       fffffffff",
};
