/* XPM */
/* c:\dev\TimeIcon.xpm */
static char* TimeIconXPM[] =
{
 "11 14 8 1",
 "  c None",
 "1 c #800000",
 "3 c #808000",
 "7 c #808080",
 "8 c #c0c0c0",
 "b c #ffff00",
 "f c #ffffff",
 "0 c #000000",
 "  b333331  ",
 "  b300031  ",
 " 7078f8707 ",
 "708ff3ff80 ",
 "07f0fff0f70",
 "08ff0f0ff80",
 "0f3ff0ff3f0",
 "0f3ff0ff3f0",
 "08fffffff80",
 "07fffffff70",
 " 08ff3ff80 ",
 " 7078f8707 ",
 "  b700071  ",
 "  b333331  ",
};
