/* XPM */
static char *stock_mail_xpm[] = {
/* columns rows colors chars-per-pixel */
"24 24 116 2",
"   c Gray0",
".  c #4e4e4c",
"X  c #4f4e4c",
"o  c #4f4f4d",
"O  c #515150",
"+  c #525251",
"@  c #585754",
"#  c #5f5e5e",
"$  c #61615e",
"%  c #62615f",
"&  c #62625f",
"*  c #616060",
"=  c #626260",
"-  c #646361",
";  c #75746f",
":  c #777671",
">  c #787773",
",  c #797874",
"<  c #797875",
"1  c #797976",
"2  c #7a7a77",
"3  c #7b7a76",
"4  c #7b7b78",
"5  c #7c7c7b",
"6  c #7e7d7c",
"7  c #838381",
"8  c #91908a",
"9  c #93918c",
"0  c #92918e",
"q  c #959490",
"w  c #959590",
"e  c #969590",
"r  c #969592",
"t  c #979691",
"y  c #989793",
"u  c #999894",
"i  c #9b9a97",
"p  c #a3a29d",
"a  c #a7a6a3",
"s  c #a8a8a6",
"d  c #a9a9a6",
"f  c #aeada8",
"g  c #b4b3af",
"h  c #b5b4b1",
"j  c #b6b5b2",
"k  c #b5b5b4",
"l  c #b8b7b0",
"z  c #bcbbb6",
"x  c #bcbcb6",
"c  c #bcbcb7",
"v  c #bdbcb8",
"b  c #bebdb8",
"n  c #bebdb9",
"m  c #bfbeba",
"M  c #bfbfbc",
"N  c #c7c7c3",
"B  c #c6c6c4",
"V  c #cccbc4",
"C  c #cdccc6",
"Z  c #cecdc7",
"A  c #cfcec8",
"S  c #d0d0cd",
"D  c #d2d2cd",
"F  c #d7d6d4",
"G  c #dad9d5",
"H  c #dbdbd9",
"J  c #e3e3df",
"K  c #e4e2da",
"L  c #e4e3da",
"P  c #e5e4db",
"I  c #e6e4db",
"U  c #e6e4dc",
"Y  c #e6e5dc",
"T  c #e7e5dd",
"R  c #e7e6de",
"E  c #e8e6de",
"W  c #e8e6df",
"Q  c #e8e7df",
"!  c #e9e7e0",
"~  c #e9e8e0",
"^  c #e9e8e1",
"/  c #eae8e1",
"(  c #eae9e2",
")  c #ebe9e2",
"_  c #ebe9e3",
"`  c #ebeae3",
"'  c #ebeae4",
"]  c #eceae4",
"[  c #ecebe4",
"{  c #ecebe5",
"}  c #edece6",
"|  c #eeece7",
" . c #eeede7",
".. c #eeede8",
"X. c #efeee8",
"o. c #efeee9",
"O. c #f0efea",
"+. c #f0efeb",
"@. c #f1f0eb",
"#. c #f1f0ec",
"$. c #f1f1ec",
"%. c #f2f1ed",
"&. c #f2f2ed",
"*. c #f2f2ee",
"=. c #f3f2ee",
"-. c #f3f3ef",
";. c #f4f3ef",
":. c #f4f3f0",
">. c #f4f4f0",
",. c #f5f4f1",
"<. c #f5f5f2",
"1. c #f6f5f2",
"2. c #f6f6f3",
"3. c #f7f7f5",
"4. c #f8f8f6",
"5. c None",
/* pixels */
"5.5.5.5.5.5.5.5.5.5.5.5.5.5.5.5.5.5.5.5.5.5.5.5.",
"5.5.5.5.5.5.5.5.5.5.5.5.5.5.5.5.5.5.5.5.5.5.5.5.",
"5.5.5.5.5.5.5.5.5.5.5.5.5.5.5.5.5.5.5.5.5.5.5.5.",
"5.5.5.5.5.5.5.5.5.5.5.5.5.5.5.5.5.5.5.5.5.5.5.5.",
"5.5.5.5.5.5.5.5.5.5.5.5.5.5.5.5.5.5.5.5.5.5.5.5.",
"5.5.5.5.5.5.5.5.5.5.5.5.5.5.        5.5.5.5.5.5.",
"5.5.5.5.5.5.5.5.5.          4 N @.M   5.5.5.5.5.",
"5.5.5.5.          # M ! $.$.$.+.S t   5.5.5.5.5.",
"5.5.5.  = k 4.3.2.2.2.$.$.$.+.o.. n a   5.5.5.5.",
"5.5.5.  B 5 O H 2.:.$.$.@.+.o.i % c `   5.5.5.5.",
"5.5.5.  7 F d O 6 G $.@.+.o. .X z ` `   5.5.5.5.",
"5.5.5.5.  2.2.;.h i - 0 o. .. < < ` E g   5.5.5.",
"5.5.5.5.  S $.$.$.+.n n < . t ` t > l Y   5.5.5.",
"5.5.5.5.  d $.$.+.o.=  .[ ` ` ! E Y : 0   5.5.5.",
"5.5.5.5.5.  @.+.o.n y [ ` ` ! E Y P L ; 8   5.5.",
"5.5.5.5.5.  +.o. .% ' ` ` E Y Y P L V p     5.5.",
"5.5.5.5.5.  h  .c t ` ` Y Y Y Z t       5.5.5.5.",
"5.5.5.5.5.5.  [ % ` ` E Z t       5.5.5.5.5.5.5.",
"5.5.5.5.5.5.  < t A f       5.5.5.5.5.5.5.5.5.5.",
"5.5.5.5.5.5.  @ <     5.5.5.5.5.5.5.5.5.5.5.5.5.",
"5.5.5.5.5.5.5.    5.5.5.5.5.5.5.5.5.5.5.5.5.5.5.",
"5.5.5.5.5.5.5.5.5.5.5.5.5.5.5.5.5.5.5.5.5.5.5.5.",
"5.5.5.5.5.5.5.5.5.5.5.5.5.5.5.5.5.5.5.5.5.5.5.5.",
"5.5.5.5.5.5.5.5.5.5.5.5.5.5.5.5.5.5.5.5.5.5.5.5."
};
