/* XPM */
static char *stock_left_arrow_xpm[] = {
/* columns rows colors chars-per-pixel */
"24 25 42 1",
"  c Gray0",
". c #121b12",
"X c #243221",
"o c #36582e",
"O c #375930",
"+ c #46703c",
"@ c #49763f",
"# c #4e7c44",
"$ c #516f4a",
"% c #548149",
"& c #5b8851",
"* c #608c56",
"= c #67925c",
"- c #709864",
"; c #719a67",
": c #729b68",
"> c #739c6a",
", c #6fa763",
"< c #7da473",
"1 c #80a776",
"2 c #81a877",
"3 c #81a878",
"4 c #83aa7a",
"5 c #84a979",
"6 c #87ac7d",
"7 c #b1c7ac",
"8 c #c6d7c3",
"9 c #d7e3d5",
"0 c #dce6d9",
"q c #dee7dc",
"w c #dfe8dd",
"e c #e4ebe2",
"r c #e9efe8",
"t c #ebf1ea",
"y c #eef3ed",
"u c #eff3ee",
"i c #f1f5f0",
"p c #f2f6f1",
"a c #f3f7f3",
"s c #f4f7f4",
"d c Gray100",
"f c None",
/* pixels */
"ffffffffffffffffffffffff",
"ffffffffffffffffffffffff",
"ffffffffffffffffffffffff",
"ffffffffffffffffffffffff",
"ffffffffffffffffffffffff",
"ffffffffffffffff  ffffff",
"ffffffffffffff  8 ffffff",
"ffffffffffff  ed8 ffffff",
"ffffffffff  wdpp8 ffffff",
"ffffffff  0dpyps8 ffffff",
"ffffff .qdyttyyy8 ffffff",
"ffff  7dr9qetyyy8Xffffff",
"ffff  O%:1<24646= ffffff",
"ffffff  $#>51464= ffffff",
"ffffffff  O#;216= ffffff",
"ffffffffff  @#;1* ffffff",
"ffffffffffff  +,& ffffff",
"ffffffffffffff  o ffffff",
"ffffffffffffffff  ffffff",
"ffffffffffffffffffffffff",
"ffffffffffffffffffffffff",
"ffffffffffffffffffffffff",
"ffffffffffffffffffffffff",
"ffffffffffffffffffffffff",
"ffffffffffffffffffffffff"
};
