/* XPM */
static char *stock_last_xpm[] = {
/* columns rows colors chars-per-pixel */
"24 24 48 1",
"  c Gray0",
". c #181818",
"X c #37592f",
"o c #3a5934",
"O c #3b5e31",
"+ c #3f6534",
"@ c #445840",
"# c #4b7040",
"$ c #537c49",
"% c #59814f",
"& c #5d8554",
"* c #749868",
"= c #749a6b",
"- c #759b6c",
"; c #759c6d",
": c #7ea476",
"> c #80a776",
", c #84a778",
"< c #82a87b",
"1 c #83aa7a",
"2 c #83aa7c",
"3 c #85a879",
"4 c #86a97c",
"5 c #87ac7d",
"6 c #88ac80",
"7 c #90b387",
"8 c #9abb8f",
"9 c #9dbb90",
"0 c #b1c7ac",
"q c #c9d8c5",
"w c #cbdac7",
"e c #cedccb",
"r c #d4e0d1",
"t c #d7e3d5",
"y c #dee7dc",
"u c #e1eadf",
"i c #e4ebe2",
"p c #e5ece3",
"a c #ebf1ea",
"s c #edf2eb",
"d c #eef3ed",
"f c #eff3ee",
"g c #f0f4ef",
"h c #f1f5f0",
"j c #f3f7f3",
"k c #f4f7f4",
"l c Gray100",
"z c None",
/* pixels */
"zzzzzzzzzzzzzzzzzzzzzzzz",
"zzzzzzzzzzzzzzzzzzzzzzzz",
"zzzzzzzzzzzzzzzzzzzzzzzz",
"zzzzzzzzzzzzzzzzzzzzzzzz",
"zzzzzzzzzzzzzzzzzzzzzzzz",
"zzzz  zzzzzzzzzzz    zzz",
"zzzz u  zzzzzzzzz uu zzz",
"zzzz lgr  zzzzzzz ll zzz",
"zzzz lhsge  zzzzz ll zzz",
"zzzz lkhfahq  zzz ll zzz",
"zzzz lfffaapgq. z ll zzz",
"zzzz lfffaiytyf0  ll zzz",
"zzzz 962623:,-%o  99 zzz",
"zzzz 8<5<,4;$@  z 88 zzz",
"zzzz 85>3*$#  zzz 88 zzz",
"zzzz 7>*$O  zzzzz 77 zzz",
"zzzz 2&X  zzzzzzz 22 zzz",
"zzzz +  zzzzzzzzz ++ zzz",
"zzzz  zzzzzzzzzzz    zzz",
"zzzzzzzzzzzzzzzzzzzzzzzz",
"zzzzzzzzzzzzzzzzzzzzzzzz",
"zzzzzzzzzzzzzzzzzzzzzzzz",
"zzzzzzzzzzzzzzzzzzzzzzzz",
"zzzzzzzzzzzzzzzzzzzzzzzz"
};
