/* XPM */
static char *stock_down_arrow_xpm[] = {
/* columns rows colors chars-per-pixel */
"24 24 72 1",
"  c Gray0",
". c #010101",
"X c Gray1",
"o c #040404",
"O c Gray2",
"+ c #060606",
"@ c Gray3",
"# c Gray4",
"$ c #5f7b52",
"% c #637f55",
"& c #678459",
"* c #678558",
"= c #6a885c",
"- c #6e8b60",
"; c #738f65",
": c #729163",
"> c #739164",
", c #769568",
"< c #7d9970",
"1 c #7f9d71",
"2 c #87a37b",
"3 c #86a478",
"4 c #86a876",
"5 c #86a877",
"6 c #89a67b",
"7 c #89ac79",
"8 c #8aad7a",
"9 c #8bae7b",
"0 c #8dae7d",
"q c #8eae7e",
"w c #8fad81",
"e c #8faf80",
"r c #8faf81",
"t c #90ab83",
"y c #91af82",
"u c #93b385",
"i c #9ab590",
"p c #a3ac9e",
"a c #a3ba97",
"s c #a6bd9b",
"d c #b0c4a6",
"f c #bbc0b8",
"g c #d2d4d0",
"h c #d4d5d1",
"j c #d4d5d2",
"k c #dbdbda",
"l c #dbdcd9",
"z c #e0e0df",
"x c #e1e1e0",
"c c #e3e3e1",
"v c #e4e4e2",
"b c #e9e8e8",
"n c #e9eae8",
"m c #ebe9ea",
"M c #ecebeb",
"N c #eeeded",
"B c #eeecee",
"V c #eeeeed",
"C c #f0eeef",
"Z c #f1eff1",
"A c #f2eff2",
"S c #f3eff3",
"D c Gray94",
"F c #f1f0f1",
"G c #f2f0f2",
"H c #f3f0f3",
"J c #f3f3f2",
"K c #f3f3f3",
"L c #f4f0f4",
"P c #f5f1f5",
"I c #f6f2f6",
"U c None",
/* pixels */
"UUUUUUUUUUUUUUUUUUUUUUUU",
"UUUUUUUUUUUUUUUUUUUUUUUU",
"UUUUUUUUUUUUUUUUUUUUUUUU",
"UUUUUUUUUUUUUUUUUUUUUUUU",
"UUUUUUUUUUUUUUUUUUUUUUUU",
"UUUUU +++@@++++@   UUUUU",
"UUUUU lnVFFFdsai2; UUUUU",
"UUUUUU vCFFFuee5> UUUUUU",
"UUUUUU+knSPP8883= UUUUUU",
"UUUUUUU zSPP885, UUUUUUU",
"UUUUUUU hVFP806= UUUUUUU",
"UUUUUUUU cSF0e: UUUUUUUU",
"UUUUUUUU hMVy1& UUUUUUUU",
"UUUUUUUUU cnt- UUUUUUUUU",
"UUUUUUUUU gl<% UUUUUUUUU",
"UUUUUUUUUU f& UUUUUUUUUU",
"UUUUUUUUUU p$ UUUUUUUUUU",
"UUUUUUUUUUU  UUUUUUUUUUU",
"UUUUUUUUUUU  UUUUUUUUUUU",
"UUUUUUUUUUUUUUUUUUUUUUUU",
"UUUUUUUUUUUUUUUUUUUUUUUU",
"UUUUUUUUUUUUUUUUUUUUUUUU",
"UUUUUUUUUUUUUUUUUUUUUUUU",
"UUUUUUUUUUUUUUUUUUUUUUUU"
};
