/* XPM */
static char *stock_first_xpm[] = {
/* columns rows colors chars-per-pixel */
"24 24 41 1",
"  c Gray0",
". c #121b12",
"X c #36582e",
"o c #375930",
"O c #46703c",
"+ c #49763f",
"@ c #4e7c44",
"# c #516f4a",
"$ c #548149",
"% c #5b8851",
"& c #608c56",
"* c #67925c",
"= c #709864",
"- c #719a67",
"; c #729b68",
": c #739c6a",
"> c #6fa763",
", c #7da473",
"< c #80a776",
"1 c #81a877",
"2 c #81a878",
"3 c #83aa7a",
"4 c #84a979",
"5 c #87ac7d",
"6 c #b1c7ac",
"7 c #c6d7c3",
"8 c #d7e3d5",
"9 c #dce6d9",
"0 c #dee7dc",
"q c #dfe8dd",
"w c #e4ebe2",
"e c #e9efe8",
"r c #ebf1ea",
"t c #eef3ed",
"y c #eff3ee",
"u c #f1f5f0",
"i c #f2f6f1",
"p c #f3f7f3",
"a c #f4f7f4",
"s c Gray100",
"d c None",
/* pixels */
"dddddddddddddddddddddddd",
"dddddddddddddddddddddddd",
"dddddddddddddddddddddddd",
"dddddddddddddddddddddddd",
"dddddddddddddddddddddddd",
"ddd    ddddddddddd  dddd",
"ddd 77 ddddddddd  7 dddd",
"ddd 77 ddddddd  ws7 dddd",
"ddd 77 ddddd  qsii7 dddd",
"ddd 77 ddd  9siyia7 dddd",
"ddd 77 d .0syrryyy7 dddd",
"ddd 77  6se80wryyy7 dddd",
"ddd **  o$;<,13535* dddd",
"ddd ** d  #@:4<353* dddd",
"ddd ** ddd  o@=1<5* dddd",
"ddd && ddddd  +@=<& dddd",
"ddd %% ddddddd  O>% dddd",
"ddd XX ddddddddd  X dddd",
"ddd    ddddddddddd  dddd",
"dddddddddddddddddddddddd",
"dddddddddddddddddddddddd",
"dddddddddddddddddddddddd",
"dddddddddddddddddddddddd",
"dddddddddddddddddddddddd"
};
