/* XPM */
static char *stock_table_fill_xpm[] = {
/* columns rows colors chars-per-pixel */
"24 24 51 1",
"  c Gray0",
". c #2e2a20",
"X c #88785a",
"o c #8b7b5e",
"O c #8e8061",
"+ c #8e8263",
"@ c #80827c",
"# c #80837d",
"$ c #80837f",
"% c #908267",
"& c #918468",
"* c #aa9873",
"= c #ad9a78",
"- c #ae9c7b",
"; c #b29e78",
": c #abafa7",
"> c #acb0a9",
", c #acb0aa",
"< c #c4ad87",
"1 c #c5ae87",
"2 c #c6b089",
"3 c #c7b089",
"4 c #c7b08a",
"5 c #c7b18a",
"6 c #c7b28a",
"7 c #c7b28b",
"8 c #c8b38b",
"9 c #c8b38c",
"0 c #c9b38c",
"q c #c9b38d",
"w c #c9b48d",
"e c #cab58e",
"r c #cab68e",
"t c #cab78e",
"y c #cab78f",
"u c #cbb78f",
"i c #cbb790",
"p c #ccb891",
"a c #ccb991",
"s c #cdba91",
"d c #cebb92",
"f c #cebb93",
"g c #e5e9dd",
"h c #e5eadf",
"j c #e5eae0",
"k c #e6ebe1",
"l c #e6ebe2",
"z c #e6ece4",
"x c #e6ede5",
"c c Gray97",
"v c None",
/* pixels */
"vvvvvvvvvvvvvvvvvvvvvvvv",
"vvvvvvvvvvvvvvvvvvvvvvvv",
"vv v v v v v v v v v v v",
"vvvcvcvcvcvcvvvvvvvvvvvv",
"vv vcvcvcvcv vvvvvvvvv v",
"vvvcvcvcvcvcvvvvvvvvvvvv",
"vv vcvcvcvcv vvvvvvvvv v",
"vvvcvcvcvcvcvvvvvvvvvvvv",
"vv vcvcvcvcv vvvvvvvvv v",
"vvvcvcvcvcvcvvvvvvvvvvvv",
"vv vcvcvcvcv vvvvvvvvv v",
"vvvcvcvcvcvcvvvvvvvvvvvv",
"vv v v v v v v v v v v v",
"vvvvvvvvvvvvvcvcvcvcvcvv",
"vv vvvvvvvvv vcvcvcvcv v",
"vvvvvvvvvvvvvcvcvcvcvcvv",
"vv vvvvvvvvv vcvcvcvcv v",
"vvvvvvvvvvvvvcvcvcvcvcvv",
"vv vvvvvvvvv vcvcvcvcv v",
"vvvvvvvvvvvvvcvcvcvcvcvv",
"vv vvvvvvvvv vcvcvcvcv v",
"vvvvvvvvvvvvvcvcvcvcvcvv",
"vv v v v v v v v v v v v",
"vvvvvvvvvvvvvvvvvvvvvvvv"
};
