/* XPM */
static char *stock_paste_xpm[] = {
/* columns rows colors chars-per-pixel */
"24 24 105 2",
"   c Gray0",
".  c #272727",
"X  c #2f2f2b",
"o  c #3e3c38",
"O  c #42423a",
"+  c #4d4c46",
"@  c #4d4d4b",
"#  c #595855",
"$  c #595956",
"%  c #616156",
"&  c #73736e",
"*  c Gray44",
"=  c #7e7c72",
"-  c #7e7c73",
";  c #7e7e74",
":  c #919182",
">  c #929284",
",  c #9f9f8f",
"<  c #a09f9c",
"1  c #a3a391",
"2  c #a4a195",
"3  c #a5a594",
"4  c #a5a595",
"5  c #a6a696",
"6  c #a7a796",
"7  c #acac9b",
"8  c #aeae9c",
"9  c #acaba5",
"0  c #aeaea8",
"q  c #b7b3a0",
"w  c #b4b4a1",
"e  c #b7b7a5",
"r  c #b3b3ac",
"t  c #b8b4a0",
"y  c #b8b4a1",
"u  c #b9b5a1",
"i  c #bab8a5",
"p  c #bbbba7",
"a  c #bcb9a6",
"s  c #c0bbaa",
"d  c #c0beab",
"f  c #c1bdac",
"g  c #c2beae",
"h  c #c3bfae",
"j  c #c3c0af",
"k  c #c5c1b1",
"l  c #c7c5b5",
"z  c #c9c5b6",
"x  c #c9c6b8",
"c  c #c9c7b8",
"v  c #cac7b8",
"b  c #cac8b8",
"n  c #cac8b9",
"m  c #cac9b9",
"M  c #cbc9b9",
"N  c #cbc9ba",
"B  c #ccc9ba",
"V  c #ccc9bb",
"C  c #cdc9bb",
"Z  c #cdcabb",
"A  c #cecabb",
"S  c #cfcbbb",
"D  c #cfcbbc",
"F  c #cfccbc",
"G  c #cfccbd",
"H  c #cfcdbd",
"J  c #cfcdbe",
"K  c #cfcebe",
"L  c #d0cfbe",
"P  c #d1cfbe",
"I  c #d1d1bc",
"U  c #d4d4be",
"Y  c #d7d7c1",
"T  c #d8d8c2",
"R  c #d9d9c3",
"E  c #dadac3",
"W  c #dbdbc4",
"Q  c #dcdcc5",
"!  c #ddddc6",
"~  c #dedec7",
"^  c #dfdfc8",
"/  c #ddddd9",
"(  c #ddddda",
")  c #e0e0c9",
"_  c #e1e1c9",
"`  c #e2e2ca",
"'  c #e2e2cb",
"]  c #e3e3cc",
"[  c #e4e4cd",
"{  c #e5e5ce",
"}  c #e6e6cf",
"|  c #e7e7cf",
" . c #e8e8d0",
".. c #e9e9d1",
"X. c #eaead2",
"o. c #ebebd3",
"O. c #ececd4",
"+. c #ededd5",
"@. c #eeeed5",
"#. c #f0f0d7",
"$. c #f1f1d8",
"%. c #f2f2d9",
"&. c Beige",
"*. c #eaeae2",
"=. c None",
/* pixels */
"=.=.=.=.=.=.=.=.=.=.=.=.=.=.=.=.=.=.=.=.=.=.=.=.",
"=.=.=.=.=.=.=.=.=.=.=.=.=.=.=.=.=.=.=.=.=.=.=.=.",
"=.=.=.=.=.=.=.=.=.=.=.=.=.=.=.=.=.=.=.=.=.=.=.=.",
"=.=.=.=.=.=.=.=.=.      =.=.=.=.=.=.=.=.=.=.=.=.",
"=.=.=.=.=.=.=.    G G L   =.=.=.=.=.=.  =.=.=.=.",
"=.=.=.=.=.    P G G D V   =.=.=.          =.=.=.",
"=.=.=.    P P ; X $ < V V   =.=.          =.=.=.",
"=.=.  P P P $ ( 9 = o V V   =.=.=.=.=.  =.=.=.=.",
"=.=.  P P P @ 9 = o V V N N   =.=.=.=.=.=.=.=.=.",
"=.=.=.  P P & + 2 V V N N v   =.    =.=.=.=.=.=.",
"=.=.=.  G G P V V V N N N v     I :   =.=.=.=.=.",
"=.=.=.=.  G L V V V N N   . 0 e U R   =.=.=.=.=.",
"=.=.=.=.  D V V V N N v   *.* r Y W 7   =.=.=.=.",
"=.=.=.=.=.  V V N N v v   ( O 4 R Q `   =.=.=.=.",
"=.=.=.=.=.  V V N N v z   % 4 R Q ` | w   =.=.=.",
"=.=.=.=.=.=.  N v l k d   p R Q ` ] | ..1   =.=.",
"=.=.=.=.=.=.  j h h h p   > W ^ ` | ..O.$.  =.=.",
"=.=.=.=.=.=.=.  s a u q     Q ` | ..O.$.&.6   =.",
"=.=.=.=.=.=.=.  u u     =.  8 | ..O.#.4     =.=.",
"=.=.=.=.=.=.=.=.    =.=.=.=.  | ..1     =.=.=.=.",
"=.=.=.=.=.=.=.=.=.=.=.=.=.=.  ,     =.=.=.=.=.=.",
"=.=.=.=.=.=.=.=.=.=.=.=.=.=.=.  =.=.=.=.=.=.=.=.",
"=.=.=.=.=.=.=.=.=.=.=.=.=.=.=.=.=.=.=.=.=.=.=.=.",
"=.=.=.=.=.=.=.=.=.=.=.=.=.=.=.=.=.=.=.=.=.=.=.=."
};
