/* XPM */
static char *stock_button_close_xpm[] = {
/* columns rows colors chars-per-pixel */
"20 20 2 1",
"  c Gray0",
". c None",
/* pixels */
"....................",
"....................",
"....................",
"....................",
"....................",
"...... ....  .......",
"......  ..    ......",
".......  .   .......",
".......     ........",
"........   .........",
"........    ........",
".......      .......",
".......  .    ......",
"......  ...    .....",
"...... .....  ......",
"....................",
"....................",
"....................",
"....................",
"...................."
};
