/* XPM */
static char *stock_search_xpm[] = {
/* columns rows colors chars-per-pixel */
"24 24 128 2",
"   c Gray0",
".  c #080807",
"X  c Gray3",
"o  c #090908",
"O  c Gray14",
"+  c #33332d",
"@  c #33332e",
"#  c #34342f",
"$  c #343434",
"%  c #373736",
"&  c #3d3d37",
"*  c #3c3c3c",
"=  c #45453e",
"-  c #46463e",
";  c #46463f",
":  c Gray25",
">  c #4a4a42",
",  c #4b4b43",
"<  c #4b4b44",
"1  c #4d4d45",
"2  c #4e4e4e",
"3  c #505050",
"4  c #646464",
"5  c #6f6f6f",
"6  c #727266",
"7  c #737367",
"8  c #797973",
"9  c #7c7c7c",
"0  c #818174",
"q  c #828274",
"w  c #878779",
"e  c #8c8c7d",
"r  c #8d8d7f",
"t  c #8f8f80",
"y  c #909081",
"u  c #929282",
"i  c #929283",
"p  c #959585",
"a  c #959586",
"s  c #969686",
"d  c #9b9b8b",
"f  c #98988f",
"g  c #9c9c8c",
"h  c #9d9d8d",
"j  c #9f9f8e",
"k  c #a0a090",
"l  c #a5a594",
"z  c #a6a694",
"x  c #a6a695",
"c  c #a6a696",
"v  c #a7a796",
"b  c #aaaa98",
"n  c #adad9b",
"m  c #adad9c",
"M  c #b0b09d",
"N  c #b2b29f",
"B  c #b4b4a0",
"V  c #b5b5a2",
"C  c #b7b7a4",
"Z  c #b8b8a6",
"A  c #babaa7",
"S  c #bbbba8",
"D  c #bebeaa",
"F  c #bebeab",
"G  c #bebeae",
"H  c #c0c0ac",
"J  c #c1c1ad",
"K  c #c3c3ae",
"L  c #c3c3af",
"P  c #c4c4af",
"I  c #cacab5",
"U  c #ceceb7",
"Y  c #cdcdb8",
"T  c #cfcfb9",
"R  c #d0d0b9",
"E  c #d1d1b9",
"W  c #d2d2bc",
"Q  c #d3d3bc",
"!  c #d5d5bd",
"~  c #d5d5bf",
"^  c #d6d6bf",
"/  c #d7d7c0",
"(  c #d7d7c1",
")  c #d8d8c1",
"_  c #d8d8c2",
"`  c #d9d9c2",
"'  c #d9d9c3",
"]  c #dadac3",
"[  c #dbdbc4",
"{  c #dcdcc4",
"}  c #dcdcc5",
"|  c #ddddc5",
" . c #ddddc6",
".. c #ddddc7",
"X. c #dedec6",
"o. c #dfdfc7",
"O. c #dfdfc8",
"+. c #ddddd0",
"@. c #e0e0c8",
"#. c #e1e1c9",
"$. c #e1e1ca",
"%. c #e2e2ca",
"&. c #e3e3cb",
"*. c #e5e5cd",
"=. c #e6e6ce",
"-. c #e2e2d0",
";. c #e8e8d0",
":. c #e9e9d1",
">. c #eaead2",
",. c #ebebd3",
"<. c #ececd4",
"1. c #ededd4",
"2. c #eeeed5",
"3. c #efefd6",
"4. c #f0f0d7",
"5. c #f1f1d8",
"6. c #f2f2d9",
"7. c #f3f3da",
"8. c #f4f4db",
"9. c Beige",
"0. c #e7e7e7",
"q. c #edede5",
"w. c #eeeee5",
"e. c #eeeee6",
"r. c #ececec",
"t. c Gray93",
"y. c #fbfbfa",
"u. c None",
/* pixels */
"u.u.u.u.u.u.u.u.u.u.u.u.u.u.u.u.u.u.u.u.u.u.u.u.",
"u.u.u.u.u.u.u.u.u.u.u.u.u.u.u.u.u.u.u.u.u.u.u.u.",
"u.u.u.u.u.u.u.u.u.u.u.u.u.  u.u.u.u.u.u.u.u.u.u.",
"u.u.u.u.u.u.u.u.u.u.u.    m   u.u.u.u.u.u.u.u.u.",
"u.u.u.u.u.u.u.u.u.    p } O.O u.u.u.u.u.u.u.u.u.",
"u.u.u.u.u.u.u.    z ( ] } } $.  u.u.u.u.u.u.u.u.",
"u.u.u.u.u.    z ^ ( ( ] } } $.N   u.u.u.u.u.u.u.",
"u.u.u.u.  9 4 ^ ^ ^ ] ] } $.*.:.% u.u.u.u.u.u.u.",
"u.u.u.u.  0.% A Q ( ] } $.*.:.<.<.  u.u.u.u.u.u.",
"u.u.u.u.  t.t.& U ^ [ $.*.:.:.<.7.z   u.u.u.u.u.",
"u.u.u.u.  q.q.* t E B - o o > J 7.7.  u.u.u.u.u.",
"u.u.u.u.  q.3 y E N + h T P r # J 8.9.  u.u.u.u.",
"u.u.u.u.    p Q [ - h -.q.J N q > 9.9.D   u.u.u.",
"u.u.u.u.  8 ] ] } . ^ y.J B z p o 9.9.9.]   u.u.",
"u.u.u.u.  f [ } O.o I +.C b d r o 9.9.9.q   u.u.",
"u.u.u.u.u.  } $.$.- y A n h y 6 < 9.9.    u.u.u.",
"u.u.u.u.u.  G *.*.A + w k y 6     ]   u.u.u.u.u.",
"u.u.u.u.u.u.2 :.:.:.D > o o : 5     u.u.u.u.u.u.",
"u.u.u.u.u.u.  :.<.<.<.7.7.7.]         u.u.u.u.u.",
"u.u.u.u.u.u.u.  <.4.7.7.:.z   u.u.      u.u.u.u.",
"u.u.u.u.u.u.u.  S 7.7.T 1   u.u.u.u.      u.u.u.",
"u.u.u.u.u.u.u.u.  7.z   u.u.u.u.u.u.u.    u.u.u.",
"u.u.u.u.u.u.u.u.u.    u.u.u.u.u.u.u.u.u.u.u.u.u.",
"u.u.u.u.u.u.u.u.u.u.u.u.u.u.u.u.u.u.u.u.u.u.u.u."
};
