/* XPM */
static char *stock_multiple_file_xpm[] = {
/* columns rows colors chars-per-pixel */
"32 32 246 2",
"   c Gray0",
".  c #4d4b3d",
"X  c #5f5243",
"o  c #5e5949",
"O  c #605c42",
"+  c #69574b",
"@  c #685b47",
"#  c #6d5f56",
"$  c #646049",
"%  c #656256",
"&  c #686555",
"*  c #70694b",
"=  c #756254",
"-  c #776a52",
";  c #776f51",
":  c #76695b",
">  c #7e6d59",
",  c #767158",
"<  c #7e7259",
"1  c #7b6b61",
"2  c #7d6d63",
"3  c #7f6e65",
"4  c #787461",
"5  c #7b7b7b",
"6  c #83745a",
"7  c #84775d",
"8  c #87795c",
"9  c #867f5f",
"0  c #827061",
"q  c #867569",
"w  c #887769",
"e  c #897e67",
"r  c #8c7b60",
"t  c #8a7a6a",
"y  c #8c7d6b",
"u  c #847971",
"i  c #858066",
"p  c #86816d",
"a  c #8f816d",
"s  c #918761",
"d  c #93866e",
"f  c #96816a",
"g  c #97846c",
"h  c #918a63",
"j  c #908a64",
"k  c #958865",
"l  c #91886b",
"z  c #95896f",
"x  c #958e69",
"c  c #958f6c",
"v  c #9a8e67",
"b  c #968175",
"n  c #998f71",
"m  c #97906f",
"M  c #98916a",
"N  c #9b916f",
"B  c #9c9168",
"V  c #97927a",
"C  c #9b9271",
"Z  c #9f9774",
"A  c #a68977",
"S  c #a49c6f",
"D  c #a49073",
"F  c #a19b7a",
"G  c #a29c7b",
"H  c #a29c7e",
"J  c #a49e79",
"K  c #a59f7e",
"L  c #aa9179",
"P  c #af907d",
"I  c #af9e77",
"U  c #b3a17a",
"Y  c #b5a779",
"T  c #b3ab7e",
"R  c #b6aa79",
"E  c #b9ac7e",
"W  c #a29d84",
"Q  c #a29e8a",
"!  c #a29f92",
"~  c #b69682",
"^  c #b79884",
"/  c #bb9a86",
"(  c #bb9c85",
")  c #bc9e85",
"_  c #bd9c88",
"`  c #a9a080",
"'  c #aea780",
"]  c #a5a39c",
"[  c #a5a49f",
"{  c #afab98",
"}  c #b4ad89",
"|  c #bfa287",
" . c #bda683",
".. c #b7b08a",
"X. c #bcb485",
"o. c #b8b18a",
"O. c #bbb597",
"+. c #b9b7aa",
"@. c #b8b7b1",
"#. c #bcbcbb",
"$. c #c1a289",
"%. c #c6a38e",
"&. c #c7a48f",
"*. c #c5a98a",
"=. c #c7ad8a",
"-. c #c9a68f",
";. c #c9a790",
":. c #cba990",
">. c #ccab91",
",. c #cdac91",
"<. c #cfaf92",
"1. c #c2b182",
"2. c #c4ba87",
"3. c #ceb38f",
"4. c #ceb78e",
"5. c #c9b987",
"6. c #c9bd88",
"7. c #ceb88c",
"8. c #c3bc99",
"9. c #d1b193",
"0. c #d2b393",
"q. c #d2b394",
"w. c #d3b494",
"e. c #d5b795",
"r. c #d6b995",
"t. c #d7ba96",
"y. c #d8bb96",
"u. c #d9bd97",
"i. c #dabe97",
"p. c #dbbf98",
"a. c #c1bda6",
"s. c #cfc38a",
"d. c #c9c29a",
"f. c #d5c291",
"g. c #d6c490",
"h. c #d8c692",
"j. c #dbc098",
"k. c #dcc198",
"l. c #ddc399",
"z. c #dec399",
"x. c #dfc599",
"c. c #dfc69a",
"v. c #dbcd92",
"b. c #ddcb94",
"n. c #dad09a",
"m. c #dfd59e",
"M. c #d6d1bc",
"N. c #dfd8b5",
"B. c #e0c79a",
"V. c #e1c99b",
"C. c #e3cb9b",
"Z. c #e3cc9b",
"A. c #e4cd9c",
"S. c #e5ce9c",
"D. c #e6cf9d",
"F. c #e3d696",
"G. c #e3d498",
"H. c #e7d19d",
"J. c #e6d998",
"K. c #e8d19d",
"L. c #e8d29e",
"P. c #e9d49e",
"I. c #ead59e",
"U. c #ebd69f",
"Y. c #ecd79f",
"T. c #e8da9b",
"R. c #eade9e",
"E. c #ecd89f",
"W. c #eadfa5",
"Q. c #edd9a0",
"!. c #eedba0",
"~. c #efdca1",
"^. c #e6deb5",
"/. c #e1dbb8",
"(. c #e0dbbf",
"). c #e3ddbd",
"_. c #f0dda1",
"`. c #f1dea1",
"'. c #f1dfa2",
"]. c #f0e29f",
"[. c #eae0a7",
"{. c #eae1ad",
"}. c #ece2ac",
"|. c #efe4ac",
" X c #eae2b4",
".X c #ebe3b9",
"XX c #eae3bc",
"oX c #f2e1a2",
"OX c #f3e2a3",
"+X c #f1e6a6",
"@X c #f4e3a3",
"#X c #f5e4a3",
"$X c #f6e5a4",
"%X c #f7e7a4",
"&X c #f2e6a8",
"*X c #f2e7ae",
"=X c #f5ebae",
"-X c #f8e9a5",
";X c #f9eaa5",
":X c #faeba6",
">X c #fbeca6",
",X c #fdefa7",
"<X c #f9edaa",
"1X c #f1e7b2",
"2X c #fdf0a7",
"3X c #fef0a7",
"4X c #fef1a8",
"5X c #fff2a9",
"6X c #fff2ab",
"7X c #fff2ac",
"8X c #fff3ae",
"9X c #fff3b1",
"0X c #fff3b2",
"qX c #fff3b4",
"wX c #fff4b5",
"eX c #fff4b7",
"rX c #fff4b8",
"tX c #fff5bb",
"yX c #fff5bd",
"uX c #fff5be",
"iX c #d8d8d7",
"pX c #eae6cb",
"aX c #edead7",
"sX c #eae8da",
"dX c #f2edd2",
"fX c #fff5c0",
"gX c #fff6c2",
"hX c #fff6c5",
"jX c #fff6c7",
"kX c #fff7c9",
"lX c #fff7ce",
"zX c #fff8d0",
"xX c #fff8d2",
"cX c #fff9d6",
"vX c #fff9da",
"bX c #fffade",
"nX c #fffae1",
"mX c #fffbe5",
"MX c #fffbea",
"NX c #fffceb",
"BX c #fffcee",
"VX c #fffcf0",
"CX c #fffdf4",
"ZX c #fffefa",
"AX c Gray100",
"SX c None",
/* pixels */
"SXSXSXSXSXSXSXSXSXSXSXSXSXSXSXSXSXSXSXSXSXSXSX  SXSXSXSXSXSXSXSX",
"SXSXSXSXSXSXSXSXSXSXSXSXSXSXSXSXSXSXSXSXSXSX  u     SXSXSXSXSXSX",
"SXSXSXSXSXSXSXSXSXSXSX    SXSXSXSXSXSXSXSX  q ^ ) y       SXSXSX",
"SXSXSXSXSXSXSXSXSXSX  3 2     SXSXSXSXSXSX  ) 0.t.i.x.7.n     SX",
"SXSXSXSXSXSXSXSXSX  b / %.~ w       SXSX  : t.j.B.A.P.!.oXv.p   ",
"SXSXSXSXSXSXSXSX  b _ %.&.:.0.*.r e         - < I h.@X;X,XR.  SX",
"SXSXSXSXSXSXSX  b _ %.:.<.w.y.l.B.A.L.g.B s           +XwXF   SX",
"SXSXSXSXSXSX  2 / :.<.w.t.j.x.A.L.!.'.#X;X3X8Xn.$   i d.hX  SXSX",
"SXSXSXSXSX    0 $.0.t.i.x.C.H.Y.'.@X;X,X8X9X*X'   4 O.N.).  SXSX",
"SXSXSXSXSX  M.  g =.x.6     Y oX;X].6.&XrX1X..  & Q (.dX!   SXSX",
"SXSXSXSXSX  xX8.  @     v *   J.5XE   N o.,   . % { aXBX  SXSXSX",
"SXSXSXSXSX  }       k b.%XF.  h m.  X               ] iX  SXSXSX",
"SXSXSXSXSX    7 8 f.!.oX;X3XS   <   P A +       SXSX      SXSXSX",
"SXSXSX    y =.x.A.P.~.#X>X5X9X9   = %.%.-.) L y     SXSXSXSXSXSX",
"SX    w | e.p.B.A.Y.'.%X,X8XwXC   ~ ;.>.<.q.e.3. .d       SXSXSX",
"  # ~ >.0.t.l.C.L.!.@X;X5X9Xx   > <.0.w.t.i.l.x.C.A.f.1.l       ",
"  1 -.<.e.i.x.A.P.'.%X,X8XW.    f e.t.i.l.B.C.A.L.P.!.'.G.;   SX",
"SX  ( 0.t.l.C.H.!.oX;X3X8XM   o   D l.B.Z.H.P.E.~.oX#X;X>XZ   SX",
"SX  t w.i.x.A.P.~.#X>X5X9Xx   xX`   U H.P.!.'.oX%X;X,X5XR.  SXSX",
"SXSX  *.j.C.H.E.oX%X,X8XwXc   kXfXx   5.'.@X%X;X,X5X8X9XG   SXSX",
"SXSX  a l.C.L.!.@X;X5X9XrXm   yX|.x   R T.>X5X5X8XwXrX{.  SXSXSX",
"SXSXSX  4.A.P.'.%X,X8XwXyXG   n.T   S s.3X8X9XwXrXyXfXW   SXSXSX",
"SXSXSX  z L.!.oX;X5X9XrXfX^.  O   j 2.<X9XwXrXfXhXkXXX  SXSXSXSX",
"SXSXSXSX  P.'.%X>X5XqXrXhXlX    j X.=XrXyXfXhXkXlXxXQ   SXSXSXSX",
"SXSXSXSX  f.oX;X3X8XwXfXkX/.%   K }.yXfXhXlXxXcXvXpX  SXSXSXSXSX",
"SXSXSXSX  C @X;X5X9XrX XW     SX  V .XlXxXcXvXbXmX!   SXSXSXSXSX",
"SXSXSXSXSX  %X,X8X[.H     SXSXSXSX    a.vXnXmXMXsX  SXSXSXSXSXSX",
"SXSXSXSXSX  ;XJ.J     SXSXSXSXSXSXSXSX  +.NXVXCX[   SXSXSXSXSXSX",
"SXSXSXSXSX        SXSXSXSXSXSXSXSXSXSXSX  @.ZXAX  SXSXSXSXSXSXSX",
"SXSXSXSXSXSXSXSXSXSXSXSXSXSXSXSXSXSXSXSXSX  #.AX  SXSXSXSXSXSXSX",
"SXSXSXSXSXSXSXSXSXSXSXSXSXSXSXSXSXSXSXSXSXSX  5   SXSXSXSXSXSXSX",
"SXSXSXSXSXSXSXSXSXSXSXSXSXSXSXSXSXSXSXSXSXSXSX  SXSXSXSXSXSXSXSX"
};
