/* XPM */
static char *stock_right_arrow_xpm[] = {
/* columns rows colors chars-per-pixel */
"24 24 49 1",
"  c Gray0",
". c #181818",
"X c Gray17",
"o c #37592f",
"O c #3a5934",
"+ c #3b5e31",
"@ c #3f6534",
"# c #445840",
"$ c #4b7040",
"% c #537c49",
"& c #59814f",
"* c #5d8554",
"= c #749868",
"- c #749a6b",
"; c #759b6c",
": c #759c6d",
"> c #7ea476",
", c #80a776",
"< c #84a778",
"1 c #82a87b",
"2 c #83aa7a",
"3 c #83aa7c",
"4 c #85a879",
"5 c #86a97c",
"6 c #87ac7d",
"7 c #88ac80",
"8 c #90b387",
"9 c #9abb8f",
"0 c #9dbb90",
"q c #b1c7ac",
"w c #c9d8c5",
"e c #cbdac7",
"r c #cedccb",
"t c #d4e0d1",
"y c #d7e3d5",
"u c #dee7dc",
"i c #e1eadf",
"p c #e4ebe2",
"a c #e5ece3",
"s c #ebf1ea",
"d c #edf2eb",
"f c #eef3ed",
"g c #eff3ee",
"h c #f0f4ef",
"j c #f1f5f0",
"k c #f3f7f3",
"l c #f4f7f4",
"z c Gray100",
"x c None",
/* pixels */
"xxxxxxxxxxxxxxxxxxxxxxxx",
"xxxxxxxxxxxxxxxxxxxxxxxx",
"xxxxxxxxxxxxxxxxxxxxxxxx",
"xxxxxxxxxxxxxxxxxxxxxxxx",
"xxxxxxxxxxxxxxxxxxxxxxxx",
"xxxxxx  xxxxxxxxxxxxxxxx",
"xxxxxx i  xxxxxxxxxxxxxx",
"xxxxxx zht  xxxxxxxxxxxx",
"xxxxxx zkdhr  xxxxxxxxxx",
"xxxxxx zlkgskw  xxxxxxxx",
"xxxxxx zgggssahw. xxxxxx",
"xxxxxxXzgggspuyugq  xxxx",
"xxxxxx 073734><;&O  xxxx",
"xxxxxx 9161<5:%#  xxxxxx",
"xxxxxx 96,4=%$  xxxxxxxx",
"xxxxxx 8,=%+  xxxxxxxxxx",
"xxxxxx 3*o  xxxxxxxxxxxx",
"xxxxxx @  xxxxxxxxxxxxxx",
"xxxxxx  xxxxxxxxxxxxxxxx",
"xxxxxxxxxxxxxxxxxxxxxxxx",
"xxxxxxxxxxxxxxxxxxxxxxxx",
"xxxxxxxxxxxxxxxxxxxxxxxx",
"xxxxxxxxxxxxxxxxxxxxxxxx",
"xxxxxxxxxxxxxxxxxxxxxxxx"
};
