/* XPM */
static char *stock_up_arrow_xpm[] = {
/* columns rows colors chars-per-pixel */
"24 24 73 1",
"  c Gray0",
". c #010101",
"X c Gray1",
"o c #060606",
"O c #1d1d1d",
"+ c #607c53",
"@ c #678458",
"# c #688559",
"$ c #69875b",
"% c #6a875b",
"& c #718e62",
"* c #729063",
"= c #739264",
"- c #739364",
"; c #759267",
": c #7a956d",
"> c #859f76",
", c #89a67c",
"< c #8aa67f",
"1 c #8bab7e",
"2 c #8aac7a",
"3 c #8aad7a",
"4 c #8bad7b",
"5 c #8bae7b",
"6 c #8dad7f",
"7 c #8ca480",
"8 c #8eaa81",
"9 c #8fae81",
"0 c #91aa85",
"q c #92ab87",
"w c #90ae81",
"e c #90ae83",
"r c #92ae85",
"t c #94a989",
"y c #91b182",
"u c #95b487",
"i c #97b08d",
"p c #99b48c",
"a c #9db591",
"s c #b9beb5",
"d c #bbbfb7",
"f c #bdc1b8",
"g c #bec2ba",
"h c #bec2bb",
"j c #bfc3bb",
"k c #d6d9d5",
"l c #d9d9d7",
"z c #dcddda",
"x c #e2e0e0",
"c c #e2e1e1",
"v c #e3e2e2",
"b c #e4e3e3",
"n c #e5e4e3",
"m c #e7e7e7",
"M c #e9e8e8",
"N c #eae9e9",
"B c #eae9ea",
"V c #ebeaea",
"C c #eceaeb",
"Z c #ecebeb",
"A c #eeecee",
"S c #efecee",
"D c #efecef",
"F c #f0ecf0",
"G c #f1edf0",
"H c #f0eef0",
"J c #f2eff2",
"K c #f3eff2",
"L c #f3eff3",
"P c #f4f0f4",
"I c #f5f1f5",
"U c #f6f2f6",
"Y c None",
/* pixels */
"YYYYYYYYYYYYYYYYYYYYYYYY",
"YYYYYYYYYYYYYYYYYYYYYYYY",
"YYYYYYYYYYYYYYYYYYYYYYYY",
"YYYYYYYYYYYYYYYYYYYYYYYY",
"YYYYYYYYYYYYYYYYYYYYYYYY",
"YYYYYYYYYYY  YYYYYYYYYYY",
"YYYYYYYYYYY  YYYYYYYYYYY",
"YYYYYYYYYYOktoYYYYYYYYYY",
"YYYYYYYYYY zq YYYYYYYYYY",
"YYYYYYYYY vvi% YYYYYYYYY",
"YYYYYYYYY MMa7 YYYYYYYYY",
"YYYYYYYY vAFpq@ YYYYYYYY",
"YYYYYYYY MFPur; YYYYYYYY",
"YYYYYYY nAPPyw>% YYYYYYY",
"YYYYYYY CFPP228: YYYYYYY",
"YYYYYY vAFPP226<% YYYYYY",
"YYYYYY lnCMm9w1<& YYYYYY",
"YYYYY ddjjjj===*%+ YYYYY",
"YYYYY              YYYYY",
"YYYYYYYYYYYYYYYYYYYYYYYY",
"YYYYYYYYYYYYYYYYYYYYYYYY",
"YYYYYYYYYYYYYYYYYYYYYYYY",
"YYYYYYYYYYYYYYYYYYYYYYYY",
"YYYYYYYYYYYYYYYYYYYYYYYY"
};
