/* XPM */
static char *stock_align_right_xpm[] = {
/* columns rows colors chars-per-pixel */
"24 24 2 1",
"  c Gray0",
". c None",
/* pixels */
"........................",
"........................",
"........................",
"........................",
"........................",
"........................",
"..............       ...",
"........................",
"....                 ...",
"........................",
"..........           ...",
"........................",
"................     ...",
"........................",
"....                 ...",
"........................",
"..........           ...",
"........................",
"................     ...",
"........................",
"........................",
"........................",
"........................",
"........................"
};
