/* XPM */
static char *stock_colorselector_xpm[] = {
/* columns rows colors chars-per-pixel */
"24 24 25 1",
"  c Gray0",
". c #434032",
"X c #494435",
"o c #5c5543",
"O c #736b54",
"+ c #7a735a",
"@ c #329596",
"# c #57898a",
"$ c #5fa087",
"% c #7cd1d3",
"& c #9f3853",
"* c #c76849",
"= c #908669",
"- c #948b6d",
"; c #9c8973",
": c #8cb694",
"> c #b4a884",
", c #bbb191",
"< c #b4d6b8",
"1 c #c0b799",
"2 c #c2b99c",
"3 c #cac3aa",
"4 c #d3cdb8",
"5 c #eed680",
"6 c None",
/* pixels */
"666666666666666666666666",
"666666666666666666666666",
"66                   666",
"66 &&&&& $$$$$ @@@@@ 666",
"66 &&&&& $$$$$ @@@@@ 666",
"66 &&&&& $$$   @@@@@ 666",
"66 &&&&& $$ =O @@@@@ 666",
"66 &&&&& $$ 3= @@@@@ 666",
"66          4=       666",
"66 ***** << 4= #%%%% 666",
"66 ***** << 3=   #%% 666",
"66 ***** <: 3= +.    666",
"66 ***** :  1= >O -O   6",
"66 *****  O 1= >= >= =O ",
"66        = 1,=>>=>>>>= ",
"66 55555  > 122,,>>>>>O ",
"66 55555  > >22,2>>>>>O ",
"66 55555  =>,222,2>>>>o ",
"66 55555 ; =>2222,>>>=X ",
"66 55555 ; O>,22,2>>>= 6",
"66          =2222,>>=O 6",
"66666666666 O>>222>>=o 6",
"666666666666 =,22,>>O 66",
"6666666666666 >,22>>o 66"
};
