/* XPM */
static char *stock_trash_xpm[] = {
/* columns rows colors chars-per-pixel */
"24 24 85 1",
"  c Gray0",
". c Gray3",
"X c #242622",
"o c #252525",
"O c #2b2e28",
"+ c #353931",
"@ c #3f453d",
"# c #484e43",
"$ c #485245",
"% c #495345",
"& c #4c5848",
"* c #4d5848",
"= c #4d5849",
"- c #4d5a4b",
"; c #4f5b4b",
": c #4f5b4c",
"> c #4f5c4c",
", c #525f4e",
"< c #525f4f",
"1 c #576452",
"2 c #586853",
"3 c #5b6b57",
"4 c #5d6e58",
"5 c #5e6f5a",
"6 c #656f5e",
"7 c #637354",
"8 c #60725c",
"9 c #65785f",
"0 c #667961",
"q c #677a61",
"w c #687a63",
"e c #687b63",
"r c #687d63",
"t c #697d64",
"y c #6d8267",
"u c #6d8367",
"i c #6e8367",
"p c #6e8368",
"a c #6e8468",
"s c #6f8568",
"d c #6f8668",
"f c #728a6b",
"g c #728a6d",
"h c #738b6e",
"j c #748c6b",
"k c #748d6e",
"l c #788f71",
"z c #7a9472",
"x c #7c9674",
"c c #7d9775",
"v c #838a7d",
"b c #809a78",
"n c #909f86",
"m c #8fa58a",
"M c #97a38a",
"N c #96a58d",
"B c #94aa8d",
"V c #98a58c",
"C c #9aa78e",
"Z c #9baa8f",
"A c #9aad96",
"S c #9bad96",
"D c #9bae97",
"F c #9eab91",
"G c #a0ad94",
"H c #a0b095",
"J c #a2b196",
"K c #a0b29a",
"L c #a4b398",
"P c #a7b69b",
"I c #a8ba9e",
"U c #b0c0ab",
"Y c #b4c1ab",
"T c #b6c4ad",
"R c #b7c5b4",
"E c #b7c6b4",
"W c #bbc4b1",
"Q c #b9c6b4",
"! c #bec9b5",
"~ c #bfccb7",
"^ c #ced6c8",
"/ c #d7ded2",
"( c #dae1d6",
") c #e1e7dd",
"_ c None",
/* pixels */
"________________________",
"________________________",
"________________________",
"________________________",
"_______        _________",
"_____o IY)vn#GF  _______",
"____ T~P!6O+XFZCC ______",
"____ N/!LHHGFZCCM ______",
"____ xU^(WGFZCCx3 ______",
"____ 7jBmmxxd05-% ______",
"_____ ogee51%-@o _______",
"_____ rooooooooe _______",
"_____ rQ9S,g>d-e _______",
"_____ rQ9S,g>p=e ...____",
"_____ rQ9S,g>y=e ....___",
"_____ rE9S,g>y=e ....___",
"_____ rE9S,g>y-e ....___",
"_____ bK9S8f:y20 ...____",
"______ xzlkfdyt ..______",
"_______        .________",
"________________________",
"________________________",
"________________________",
"________________________"
};
