/* XPM */
static char *stock_button_yes_xpm[] = {
/* columns rows colors chars-per-pixel */
"20 20 188 2",
"   c Gray0",
".  c Gray1",
"X  c #020401",
"o  c #030502",
"O  c #030601",
"+  c #040703",
"@  c #040404",
"#  c #050704",
"$  c #090c07",
"%  c Gray3",
"&  c Gray4",
"*  c #0e110c",
"=  c #18300f",
"-  c #1a3411",
";  c #1d3516",
":  c #203619",
">  c #253d1e",
",  c #224019",
"<  c #26421d",
"1  c #2c4126",
"2  c #2c4225",
"3  c #2f4429",
"4  c #2f4a27",
"5  c #2f5623",
"6  c #334d2a",
"7  c #374c2f",
"8  c #36502d",
"9  c #3b5433",
"0  c #3e5336",
"q  c #3e5736",
"w  c #3e5439",
"e  c #346326",
"r  c #386827",
"t  c #386829",
"y  c #396e29",
"u  c #3a6f2a",
"i  c #3c6e2d",
"p  c #3f752c",
"a  c #3e772c",
"s  c #3f782d",
"d  c #3f7030",
"f  c #405639",
"g  c #436538",
"h  c #40792e",
"j  c #417c2f",
"k  c #427231",
"l  c #417631",
"z  c #427730",
"x  c #427732",
"c  c #447734",
"v  c #457736",
"b  c #477637",
"n  c #467039",
"m  c #427831",
"M  c #437930",
"N  c #427c31",
"B  c #427d30",
"V  c #447934",
"C  c #447f32",
"Z  c #477d36",
"A  c #487637",
"S  c #4a733e",
"D  c #4b723f",
"F  c #4b743d",
"G  c #4b753e",
"H  c #4c763f",
"J  c #4a7a3b",
"K  c #4a793c",
"L  c #4e7e3f",
"P  c #4f6a47",
"I  c #4e7142",
"U  c #4f7942",
"Y  c #4f7e41",
"T  c #517746",
"R  c #537f46",
"E  c #547b48",
"W  c #567b4a",
"Q  c #557f48",
"!  c #58704f",
"~  c #587b4e",
"^  c #5a7651",
"/  c #5e7756",
"(  c #478235",
")  c #498235",
"_  c #498437",
"`  c #4a8239",
"'  c #4b833a",
"]  c #4b8639",
"[  c #4d803d",
"{  c #4d823d",
"}  c #4d883b",
"|  c #558148",
" . c #57804b",
".. c #568249",
"X. c #518940",
"o. c #528b40",
"O. c #558a45",
"+. c #578a45",
"@. c #578c45",
"#. c #59824b",
"$. c #5b844f",
"%. c #5b854e",
"&. c #588847",
"*. c #598948",
"=. c #5c8b4e",
"-. c #5c924b",
";. c #5e904f",
":. c #608554",
">. c #638657",
",. c #638e55",
"<. c #69865f",
"1. c #619152",
"2. c #639653",
"3. c #649455",
"4. c #679059",
"5. c #669956",
"6. c #679857",
"7. c #679a57",
"8. c #679958",
"9. c #69995a",
"0. c #6c985d",
"q. c #6a8562",
"w. c #6f9065",
"e. c #6f9b62",
"r. c #728d6a",
"t. c #719166",
"y. c #74936a",
"u. c #76916e",
"i. c #76926d",
"p. c #76976c",
"a. c #77966d",
"s. c #719964",
"d. c #739d66",
"f. c #729e65",
"g. c #799f6c",
"h. c #7e9875",
"j. c #76a269",
"k. c #7aa66b",
"l. c #809a77",
"z. c #819a79",
"x. c #829d7a",
"c. c #85a07d",
"v. c #87a07f",
"b. c #80a972",
"n. c #80a974",
"m. c #81a875",
"M. c #84ae77",
"N. c #85aa79",
"B. c #85ac79",
"V. c #87af7a",
"C. c #88ad7c",
"Z. c #8baf7e",
"A. c #89b07d",
"S. c #8db081",
"D. c #8cb281",
"F. c #8fb384",
"G. c #92b687",
"H. c #95b889",
"J. c #9abb8e",
"K. c #9bbc91",
"L. c #9cbc91",
"P. c #9fbf94",
"I. c #a0be95",
"U. c #a1bf98",
"Y. c #9fc095",
"T. c #a3c19a",
"R. c #a6c39c",
"E. c #aac6a1",
"W. c #abc7a2",
"Q. c #adc8a5",
"!. c #afc9a6",
"~. c #b5cdac",
"^. c #b5cead",
"/. c #b6cdae",
"(. c #bcd2b5",
"). c #bed3b6",
"_. c #c0d3b8",
"`. c #c0d4b9",
"'. c #c5d8bf",
"]. c #c8d9c2",
"[. c #ccdcc7",
"{. c #cdddc8",
"}. c #d1e0cd",
"|. c #d2e0cd",
" X c #dfe8db",
".X c #e4ede2",
"XX c Gray100",
"oX c None",
/* pixels */
"oXoXoXoXoXoXoXoXoXoXoXoXoXoXoXoXoXoXoXoX",
"oXoXoXoXoXoXXX          oXoXoXoXoXoXoXoX",
"oXoXoXoXXX  $ 8 E 1.n < O   oXoXoXoXoXoX",
"oXoXoXXX& f N.D.B.f.3.*.K ;   oXoXoXoXoX",
"oXoXoX& ! P.!.W.L.n.9.*.L A ,   oXoXoXoX",
"oXoX@ w Y.(.]._.R.A.5.O.[ v d =   oXoXoX",
"oXoX* C.^.{. X[.!.B.5.X.` V i e O oXoXoX",
"oX  q J.(.|..X|.W.M.2.} ) M u r -   oXoX",
"oX  :.K.^.`.'.^.H.k.-.] C h u t 5   oXoX",
"oX  s.G.U.T.I.G.b.5.X.( N p k U T   oXoX",
"oX  E n.D.C.n.j.8.@._ j p l  .t.^   oXoX",
"oX  6 s.g.d.0.;.O.` N s M R y.x.q   oXoX",
"oXoX+ %.4.,.=.&.[ Z l l  .w.c.u.@ oXoXoX",
"oXoX  > Q #. .Y J v v %.p.c.l.3   oXoXoX",
"oXoXoX  4 S S F F H :.p.c.h.9   oXoXoXoX",
"oXoXoXoX  : g I ~ <.u.z.r.1   oXoXoXoXoX",
"oXoXoXoXoX  O 1 P q./ 7 @   oXoXoXoXoXoX",
"oXoXoXoXoXoXoX          oXoXoXoXoXoXoXoX",
"oXoXoXoXoXoXoXoXoXoXoXoXoXoXoXoXoXoXoXoX",
"oXoXoXoXoXoXoXoXoXoXoXoXoXoXoXoXoXoXoXoX"
};
