/* XPM */
static char *stock_mail_reply_xpm[] = {
/* columns rows colors chars-per-pixel */
"24 24 127 2",
"   c Gray0",
".  c #4e4e4c",
"X  c #4f4e4c",
"o  c #4f4f4d",
"O  c #515150",
"+  c #525251",
"@  c #585754",
"#  c #5f5e5e",
"$  c #61615e",
"%  c #62615f",
"&  c #62625f",
"*  c #746554",
"=  c #7d6d5b",
"-  c #616060",
";  c #626260",
":  c #646361",
">  c #75746f",
",  c #777671",
"<  c #787773",
"1  c #797874",
"2  c #797875",
"3  c #797976",
"4  c #7a7a77",
"5  c #7b7a76",
"6  c #7b7b78",
"7  c #7c7c7b",
"8  c #7e7d7c",
"9  c #867561",
"0  c #8f7d68",
"q  c #98856e",
"w  c #a18d75",
"e  c #aa947b",
"r  c #838381",
"t  c #91908a",
"y  c #93918c",
"u  c #92918e",
"i  c #959490",
"p  c #959590",
"a  c #969590",
"s  c #969592",
"d  c #979691",
"f  c #989793",
"g  c #999894",
"h  c #9b9a97",
"j  c #b39c82",
"k  c #a3a29d",
"l  c #bca488",
"z  c #a7a6a3",
"x  c #a8a8a6",
"c  c #a9a9a6",
"v  c #aeada8",
"b  c #b4b3af",
"n  c #b5b4b1",
"m  c #b6b5b2",
"M  c #b5b5b4",
"N  c #b8b7b0",
"B  c #bcbbb6",
"V  c #bcbcb6",
"C  c #bcbcb7",
"Z  c #bdbcb8",
"A  c #bebdb8",
"S  c #bebdb9",
"D  c #bfbeba",
"F  c #bfbfbc",
"G  c #c5ac8f",
"H  c #e0d8b0",
"J  c #c7c7c3",
"K  c #c6c6c4",
"L  c #cccbc4",
"P  c #cdccc6",
"I  c #cecdc7",
"U  c #cfcec8",
"Y  c #d0d0cd",
"T  c #d2d2cd",
"R  c #d7d6d4",
"E  c #dad9d5",
"W  c #dbdbd9",
"Q  c #e3e3df",
"!  c #e4e2da",
"~  c #e4e3da",
"^  c #e5e4db",
"/  c #e6e4db",
"(  c #e6e4dc",
")  c #e6e5dc",
"_  c #e7e5dd",
"`  c #e7e6de",
"'  c #e8e6de",
"]  c #e8e6df",
"[  c #e8e7df",
"{  c #e9e7e0",
"}  c #e9e8e0",
"|  c #e9e8e1",
" . c #eae8e1",
".. c #eae9e2",
"X. c #ebe9e2",
"o. c #ebe9e3",
"O. c #ebeae3",
"+. c #ebeae4",
"@. c #eceae4",
"#. c #ecebe4",
"$. c #ecebe5",
"%. c #edece6",
"&. c #eeece7",
"*. c #eeede7",
"=. c #eeede8",
"-. c #efeee8",
";. c #efeee9",
":. c #f0efea",
">. c #f0efeb",
",. c #f1f0eb",
"<. c #f1f0ec",
"1. c #f1f1ec",
"2. c #f2f1ed",
"3. c #f2f2ed",
"4. c #f2f2ee",
"5. c #f3f2ee",
"6. c #f3f3ef",
"7. c #f4f3ef",
"8. c #f4f3f0",
"9. c #f4f4f0",
"0. c #f5f4f1",
"q. c #f5f5f2",
"w. c #f6f5f2",
"e. c #f6f6f3",
"r. c #f7f7f5",
"t. c #f8f8f6",
"y. c None",
/* pixels */
"y.y.y.y.y.y.y.y.y.y.y.y.y.y.y.y.y.y.y.y.y.y.y.y.",
"y.y.y.y.y.y.y.y.y.y.y.y.y.y.y.y.y.y.y.y.y.y.y.y.",
"y.y.y.y.y.y.y.y.y.y.y.y.y.        y.y.y.y.y.y.y.",
"y.y.y.y.y.y.y.y.          6 J ,.F   y.y.y.y.y.y.",
"y.y.y.          # F Q 4.4.4.:.T d   y.y.y.y.y.y.",
"y.y.  - M t.r.0.0.0.4.4.4.:.;.o D z   y.y.y.y.y.",
"y.y.  K 7 + W 0.8.4.4.,.:.;.g & C o.  y.y.y.y.y.",
"y.y.  r R x + 8 E 4.,.:.;.*.o B o.o.  y.y.y.y.y.",
"y.y.y.  0.0.7.m g : u ;.*.o 4 4 o.] b   y.y.y.y.",
"y.y.y.  T 4.4.4.:.D D 4 o d o.u < N _   y.y.y.y.",
"y.y.y.  x 4.4.:.;.- *.@.o.o.{ ] _ , u   y.y.y.y.",
"y.y.y.y.  ,.:.;.D f @.o.o.{ ] _ ^ ! > t   y.y.y.",
"y.y.y.y.  :.;.*.& o.o.o.] _ _ ^ ! L k     y.y.y.",
"y.y.y.y.  m *.C d o.o.] _ _ P d       y.y.y.y.y.",
"y.y.y.y.y.  @.& o.o.] P d       y.y.y.  y.y.y.y.",
"y.y.y.y.y.  4 d P v       y.y.y.y.y.  H   y.y.y.",
"y.y.y.y.y.  @ 4     y.y.y.y.    y.  H H H   y.y.",
"y.y.y.y.y.y.    y.y.y.y.y.  j   y.y.  H H H   y.",
"y.y.y.y.y.y.y.y.y.y.y.y.  l j                 y.",
"y.y.y.y.y.y.y.y.y.y.y.  G l j e w q 0 9 = *   y.",
"y.y.y.y.y.y.y.y.y.y.y.  G l j e w q 0 9 =   y.y.",
"y.y.y.y.y.y.y.y.y.y.y.y.  l j             y.y.y.",
"y.y.y.y.y.y.y.y.y.y.y.y.y.  j   y.y.y.y.y.y.y.y.",
"y.y.y.y.y.y.y.y.y.y.y.y.y.y.    y.y.y.y.y.y.y.y."
};
