/* XPM */
static char* ToDoListXPM[] =
{
/* width height ncolors chars_per_pixel */
"32 32 65 2",
/* colors */
"   c None",
"AA c #FFFFFFFFFFFF",
"BA c #333333333333",
"CA c #D6D6D6D6D6D6",
"DA c #737373737373",
"EA c #00009999CCCC",
"FA c #00008989B7B7",
"GA c #BCBCBCBCBCBC",
"HA c #5A5A5A5A5A5A",
"IA c #3030ACACD6D6",
"JA c #999999999999",
"KA c #EFEFF9F9FCFC",
"LA c #9090D3D3E9E9",
"MA c #3E3E44444646",
"NA c #CCCCCCCCCCCC",
"OA c #31318888A6A6",
"PA c #7474B9B9D0D0",
"AB c #DFDFF2F2F9F9",
"BB c #3C3C5B5B6666",
"CB c #C5C5C5C5C5C5",
"DB c #12126C6C8A8A",
"EB c #848484848484",
"FB c #BBBBE0E0EBEB",
"GB c #5C5C6F6F7575",
"HB c #AEAEAEAEAEAE",
"IB c #5050B9B9DCDC",
"JB c #2020A6A6D2D2",
"KB c #0E0E79799D9D",
"LB c #424242424242",
"MB c #E6E6E6E6E6E6",
"NB c #F7F7F7F7F7F7",
"OB c #5C5C75757D7D",
"PB c #56567E7E8B8B",
"AC c #8C8C8C8C8C8C",
"BC c #00009191C1C1",
"CC c #5B5B61616363",
"DC c #9F9FD9D9ECEC",
"EC c #6060BFBFDFDF",
"FC c #8080CCCCE6E6",
"GC c #EFEFEFEFEFEF",
"HC c #0F0F9191BCBC",
"IC c #7B7B7B7B7B7B",
"JC c #3C3C7A7A9090",
"KC c #525252525252",
"LC c #CBCBE6E6F0F0",
"MC c #3D3D3D3D3D3D",
"NC c #A6A6A6A6A6A6",
"OC c #4040B3B3D9D9",
"PC c #B4B4B4B4B4B4",
"AD c #666666666666",
"BD c #00008D8DBCBC",
"CD c #AFAFDFDFEFEF",
"DD c #22228989ABAB",
"ED c #DDDDDDDDDDDD",
"FD c #474785859999",
"GD c #7070C6C6E2E2",
"HD c #10109F9FCFCF",
"ID c #5A5A79798484",
"JD c #00009494C5C5",
"KD c #494949494949",
"LD c #3C3C86869F9F",
"MD c #414155555B5B",
"ND c #D0D0ECECF6F6",
"OD c #181867678282",
"PD c #C0C0E6E6F2F2",
/* pixels */
"              ECIBDCKA                                          ",
"              IAEAEAEAIBDCKA                                    ",
"              EAEAEAEAEAEAEAIBLAAB                              ",
"          NBFBJDJDEAEAEAEAEABCBCEAIALAAB                        ",
"      NBGCMBPABDBDBDBCBCBCKBMDODEAEAEAEAIALAAB                  ",
"    NBGCBAHACCIDPBLDDDFADBMAGABBBDBCJDJDJDJDEAJBGDND            ",
"    NBCBLBCBJAICCCLBBABACCMBAAKCJCOAFAFABCBCEAEAEAEAJBGDND      ",
"    GCGAKCAAAAAAAAAANAKCCACBADKCLBMCBAKDGBBCBCEAEAEAEAEAEAJBECCD",
"    GCACADAAAAAAAAMBDAGAEBDANANBAAAAGCEBCCBDJDEAEAEAEAEAEAEAEAJB",
"  NBMBEBICADNBAAAAICJAKDPCAAAAAAAAAAAAICOBBDJDEAEAEAEAEAEAEAEAEC",
"  NBMBADDACCCBAAHBDADAGAAAAAAAAAAAAAAACCIDBDJDEAEAEAEAEAEAEAEALA",
"  NBMBKDBAJAJANBHAHAGAAAAAAAAAAAAAAAAAKCLDBCEAEAEAEAEAEAEAEAEAND",
"  NBMBBANCICDAACHAJAAAAAAAAAAAAAAAAAAAMCOABCEAEAEAEAEAEAEAEAHD  ",
"  GCCBMCAAHAHALBHANBAAAAAAAAAAAAAAAAGCBAFAJDEAEAEAEAEAEAEAEAOC  ",
"  GCGAKDAAPCKDLBNAAAAAAAAAAAAAAAAAAACBKDFAJDEAEAEAEAEAEAEAEAFC  ",
"  GCACCCAANBADADAAACJANCGANAMBAAAAAANCCCFAJDEAEAEAEAEAEAEAEAPD  ",
"NBMBACEBAAAACAEDAANAHBACICDACCKDMBAAICOBBDJDEAEAEAEAEAEAEAEA    ",
"NBMBADHBAAAAAAAAAAAAAAAAAAAAAAAAAAAACCIDBDJDEAEAEAEAEAEAEAIA    ",
"NBMBHACAAAAAAAAANAGANAMBNBAAAAAAAAAAKDLDBCEAEAEAEAEAEAEAEAGD    ",
"NBMBBANBAAAAAAAAGAACICDAADADICCBAAAAMCOABCEAEAEAEAEAEAEAEADC    ",
"NBNAMCAAAAAAAAAAAAAAAAAAAAGCCAGCAANBBAFAJDEAEAEAEAEAEAEAEAAB    ",
"GCGAKDAAAAAAAANBEDNBAAAAAAAAAAAAAANALBFAJDEAEAEAEAEAEAEAJB      ",
"GCJAADAAAAAAAANADAADDAICEBJAGAAAAANCCCFAJDEAEAEAEAEAEAEAIB      ",
"MBACICAAAAAAAAAAAAAAMBCACBHBGAAAAAEBGBBDJDEAEAEAEAEAEAEALA      ",
"MBADJAAAAAAAAAAAAAAAAAAAAAAAAAAAAAADIDBDJDEAEAEAEAEAEAEAPD      ",
"MBHACBAAAAAAAAGCMCHADAEBACNCCBAAAAKDFDBDEAEAEAEAEAEAEAEA        ",
"MBBAGCAAAAAAAAAAAAMBNAPCNCACICAAAAMCLDBCEAEAEAEAEAEAEAOC        ",
"NAMCGCAAAAAAAAAAAAAAAAAAAAAAAAAANBBAFABCEAEAEAEAEAEAEAFC        ",
"NALBMCLBKCCCICNCNAGCAAAAAAAAAAAACALBFAJDEAEAEAEAEAEAEACD        ",
"NBGCMBGAHBACICADLBBAMCKCCCICJANAJACCHCJDEAEAEAEAEAEAEAKA        ",
"NBNBNBGCGCMBMBMBMBMBCBGAACEBADKCBAICGCLCFCOCEAEAEAEAJB          ",
"        NBNBNBNBNBNBGCGCGCMBMBMBMBNAMBNB      PDFCOCEC          ",
};
