/* XPM */
static char *stock_timer_xpm[] = {
/* columns rows colors chars-per-pixel */
"24 24 97 2",
"   c Gray0",
".  c #11110f",
"X  c #496148",
"o  c #5a7759",
"O  c Gray48",
"+  c #6e926d",
"@  c #809f7f",
"#  c #94958e",
"$  c #939393",
"%  c #979890",
"&  c #989991",
"*  c #9a9b93",
"=  c #9c9e96",
"-  c #9e9f98",
";  c #9fa099",
":  c #9fa199",
">  c #a0a29b",
",  c #a1a29a",
"<  c #a1a39b",
"1  c #a5a69f",
"2  c #a6a8a0",
"3  c #a8a9a1",
"4  c #a8a9a2",
"5  c #a8aaa2",
"6  c #aaaca5",
"7  c #adaea6",
"8  c #adafa6",
"9  c #b0b1a9",
"0  c #b0b2aa",
"q  c #b1b3ab",
"w  c #b2b3ab",
"e  c #b3b4ac",
"r  c #b5b7af",
"t  c #b1b1b1",
"y  c #b4b5b0",
"u  c #b6b8b0",
"i  c #b7b8b0",
"p  c #babbb3",
"a  c #babcb4",
"s  c #bbbcb5",
"d  c #bcbdb5",
"f  c #bcbeb6",
"g  c #b9b9b9",
"h  c #bfc0b8",
"j  c #bfc0bb",
"k  c #c0c2ba",
"l  c #c0c2bb",
"z  c #c1c2ba",
"x  c #c2c4bc",
"c  c #c4c5bd",
"v  c #c4c6be",
"b  c #c5c7be",
"n  c #c5c7bf",
"m  c #c6c7c2",
"M  c #c6c8c0",
"N  c #c8c9c2",
"B  c #c8cac1",
"V  c #c9cac2",
"C  c #c9cbc3",
"Z  c #cbccc4",
"A  c #cbccc5",
"S  c #cccec6",
"D  c #cdcec6",
"F  c #cfd0c9",
"G  c #cfd1c8",
"H  c #cfd0cb",
"J  c #d0d1c9",
"K  c #d0d2ca",
"L  c #d1d3cb",
"P  c #d1d2cf",
"I  c #d3d5cd",
"U  c #d4d5cd",
"Y  c #d4d6ce",
"T  c #d5d6ce",
"R  c #d5d7cf",
"E  c #d6d7cf",
"W  c #d1d1d0",
"Q  c #d4d5d2",
"!  c #d6d7d0",
"~  c #d5d5d5",
"^  c #d6d8d0",
"/  c #d7d8d0",
"(  c #d7d9d1",
")  c #d9dad5",
"_  c #dbdcd5",
"`  c #d9d9d8",
"'  c #dedfda",
"]  c Gray87",
"[  c #e4e4e1",
"{  c #e6e7e2",
"}  c #ebebe9",
"|  c #ececea",
" . c #f2f2f1",
".. c #f5f5f4",
"X. c #f5f6f4",
"o. c Gray100",
"O. c None",
/* pixels */
"O.O.O.O.O.O.O.O.O.O.O.O.O.O.O.O.O.O.O.O.O.O.O.O.",
"O.O.O.O.O.O.O.O.O.O.O.O.O.O.O.O.O.O.O.O.O.O.O.O.",
"O.O.O.O.O.O.O.O.          O.O.O.O.O.O.O.O.O.O.O.",
"O.O.O.O.O.O.    ~ o.o.~ t     O.O.O.O.O.O.O.O.O.",
"O.O.O.O.O.  ~ o.o.o.o.o.o.~ t   O.O.O.O.O.O.O.O.",
"O.O.O.O.  ~ o.} y < ; 6 m X.~ ~   O.O.O.O.O.O.O.",
"O.O.O.  t o.P % ; 3 8 w u a . ~ t   O.O.O.O.O.O.",
"O.O.O.  ~ | & < w a h x z     W ~   O.O.O.O.O.O.",
"O.O.  t ] y =     n A D     n ' ~ $   O.O.O.O.O.",
"O.O.  ~ o.- < r     G     K D K ~ $   O.O.O.O.O.",
"O.O.  ] o.& 2 a B       ! U U I ~ $   O.O.O.O.O.",
"O.O.  ~ o.1 3 p B #   & ( ( ( _ ~ $   O.O.O.O.O.",
"O.O.  t ] h 3 r n D w ( ( ( ( { ~ $   O.O.O.O.O.",
"O.O.O.  ~  .8 w d M G U U U ( W ~   O.O.O.O.O.O.",
"O.O.O.  t ] { e u d n B A K ! ~ t   O.O.O.O.O.O.",
"O.O.O.O.  g ] X.G z z B ) ` ~ t   O.O.  O.O.O.O.",
"O.O.O.O.O.  g ] ] o.o.] ~ t $   O.O.O.    O.O.O.",
"O.O.O.O.O.O.    t g g t O               +   O.O.",
"O.O.O.O.O.O.O.O.          O.  + + + + + @ +   O.",
"O.O.O.O.O.O.O.O.O.O.O.O.O.O.  o o o o o + o   O.",
"O.O.O.O.O.O.O.O.O.O.O.O.O.O.            X   O.O.",
"O.O.O.O.O.O.O.O.O.O.O.O.O.O.O.O.O.O.O.    O.O.O.",
"O.O.O.O.O.O.O.O.O.O.O.O.O.O.O.O.O.O.O.  O.O.O.O.",
"O.O.O.O.O.O.O.O.O.O.O.O.O.O.O.O.O.O.O.O.O.O.O.O."
};
