/* XPM */
static char *stock_cdrom_xpm[] = {
/* columns rows colors chars-per-pixel */
"24 24 138 2",
"   c Gray0",
".  c Gray5",
"X  c #6a6a6a",
"o  c #7e8485",
"O  c #b77ea2",
"+  c #8b9092",
"@  c #8f9796",
"#  c #989f9b",
"$  c #989e9c",
"%  c #979ea2",
"&  c #98a29c",
"*  c #9da89f",
"=  c #be82a6",
"-  c #bd89a9",
";  c #a1a798",
":  c #a2ab9a",
">  c #a1a89e",
",  c #a0a6a8",
"<  c #a0a7ae",
"1  c #a4a6ac",
"2  c #acaaa6",
"3  c #a8aaaf",
"4  c #a7aeb7",
"5  c #aeafb6",
"6  c #a6b1a3",
"7  c #acb3a0",
"8  c #acb6a6",
"9  c #adb4af",
"0  c #aeb3b3",
"q  c #b1b6a1",
"w  c #b1b7a5",
"e  c #b1b1aa",
"r  c #b0b8ad",
"t  c #b2baaf",
"y  c #b6bbad",
"u  c #b7beaf",
"i  c #bcb6a1",
"p  c #b9b9a4",
"a  c #bdb9a5",
"s  c #b3b9b6",
"d  c #b6bbbb",
"f  c #b8b1b1",
"g  c #b2b6c5",
"h  c #b8b9c0",
"j  c #bfbfc7",
"k  c #babcce",
"l  c #bfbed3",
"z  c #bdc2ae",
"x  c #bdc3b0",
"c  c #bdc2c3",
"v  c #db929a",
"b  c #c684a7",
"n  c #c08cad",
"m  c #cb89ac",
"M  c #c78bb0",
"N  c #c891b4",
"B  c #c891b5",
"V  c #cc90b5",
"C  c #d28aa9",
"Z  c #d18db7",
"A  c #dfa79f",
"S  c #c9afaf",
"D  c #c0b4b5",
"F  c #c5b5b8",
"G  c #cab5b7",
"H  c #cdb6b7",
"J  c #dba8a3",
"K  c #d0b8a8",
"L  c #dbb6a8",
"P  c #ddb4a9",
"I  c #dfbaa8",
"U  c #ddbfaa",
"Y  c #e6a3a7",
"T  c #e3aca3",
"R  c #e7a9b4",
"E  c #e4a9bb",
"W  c #e2b2a6",
"Q  c #e1bfaf",
"!  c #e2bfae",
"~  c #e2bfaf",
"^  c #eabcae",
"/  c #d394ca",
"(  c #cfa7df",
")  c #d9afcf",
"_  c #d6a2db",
"`  c #d9b5d3",
"'  c #d5a8e1",
"]  c #d8b2e9",
"[  c #d9b8ed",
"{  c #dbbdf0",
"}  c #dcbff1",
"|  c #e3abc0",
" . c #e1adc2",
".. c #e0afc7",
"X. c #e2b0cb",
"o. c #e1b4d2",
"O. c #e0b6d1",
"+. c #e1b6d5",
"@. c #e0bbd7",
"#. c #e3bddd",
"$. c #e2bfdc",
"%. c #c1c4ac",
"&. c #c5c7ac",
"*. c #c7ccae",
"=. c #cac1a4",
"-. c #cfc5a9",
";. c #c2c8b2",
":. c #cad1b4",
">. c #d6cfae",
",. c #d0d6b5",
"<. c #d2d7b5",
"1. c #e2c1b0",
"2. c #edcdb6",
"3. c #e1d6b6",
"4. c #e3d7b5",
"5. c #e7d6b8",
"6. c #c1c6c8",
"7. c #c5c4cd",
"8. c #c6c9cd",
"9. c #cac7d2",
"0. c #cdced4",
"q. c #d1d0d8",
"w. c #d5d3dc",
"e. c #d7d4df",
"r. c #e5c2e3",
"t. c #e4c4e1",
"y. c #e5c7e4",
"u. c #e5cae6",
"i. c #e7cbe9",
"p. c #e8c6e7",
"a. c #e9cceb",
"s. c #e8ceec",
"d. c #e7d3ed",
"f. c #e8d1ed",
"g. c #e1d2f7",
"h. c #e9dff0",
"j. c #ecdef3",
"k. c None",
/* pixels */
"k.k.k.k.k.k.k.k.k.k.k.k.k.k.k.k.k.k.k.k.k.k.k.k.",
"k.k.k.k.k.k.k.k.k.k.k.k.k.k.k.k.k.k.k.k.k.k.k.k.",
"k.k.k.k.k.k.k.k.k.k.k.k.k.k.k.k.k.k.k.k.k.k.k.k.",
"k.k.k.k.k.k.k.k.k.            k.k.k.k.k.k.k.k.k.",
"k.k.k.k.k.k.k.    0 8.e.j.i.`     k.k.k.k.k.k.k.",
"k.k.k.k.k.k.  w r s 6.w.j.u.@. .T   k.k.k.k.k.k.",
"k.k.k.k.k.  =.&.u 9 c q.j.y.O.R 2.>.  k.k.k.k.k.",
"k.k.k.k.  A U -.%.r d 0.j.t...^ 4.*.:   k.k.k.k.",
"k.k.k.k.  | Y I -.z 9 8.j.$.R 5.*.8 *   k.k.k.k.",
"k.k.k.  ) O.X.E W -.X . . X 2.*.6 & @ o   k.k.k.",
"k.k.k.  p.r.$.+.X.X         X * @ + % <   k.k.k.",
"k.k.k.  d.f.s.a.p..         . % 4 g k l   k.k.k.",
"k.k.k.  h.h.h.h.h..         . g.g.g.g.g.  k.k.k.",
"k.k.k.  9.7.j h 5 X         X ' ] [ { }   k.k.k.",
"k.k.k.  1 3 , $ > q X . . X n V / _ ' (   k.k.k.",
"k.k.k.k.  # > 7 p K F y 4.P m n N Z /   k.k.k.k.",
"k.k.k.k.  ; q a K G f ;.4.Q v = n N M   k.k.k.k.",
"k.k.k.k.k.  i K H D e :.4.1.J C O -   k.k.k.k.k.",
"k.k.k.k.k.k.  S F f y <.4.Q P v b   k.k.k.k.k.k.",
"k.k.k.k.k.k.k.    2 x <.4.Q L     k.k.k.k.k.k.k.",
"k.k.k.k.k.k.k.k.k.            k.k.k.k.k.k.k.k.k.",
"k.k.k.k.k.k.k.k.k.k.k.k.k.k.k.k.k.k.k.k.k.k.k.k.",
"k.k.k.k.k.k.k.k.k.k.k.k.k.k.k.k.k.k.k.k.k.k.k.k.",
"k.k.k.k.k.k.k.k.k.k.k.k.k.k.k.k.k.k.k.k.k.k.k.k."
};
