/* XPM */
static char * daily[] = {
"9 13 32 1",
" 	c None",
".	c #F4F4F4",
"+	c #FCFCFC",
"@	c #FDFDFD",
"#	c #FEFEFE",
"$	c #FBFBFB",
"%	c #F8F8F8",
"&	c #FFFFFF",
"*	c #FAFAFA",
"=	c #F9F9F9",
"-	c #F7F7F7",
";	c #F5F5F5",
">	c #EDEDED",
",	c #F6F6F6",
"'	c #F3F3F3",
")	c #ECECEC",
"!	c #EEEEEE",
"~	c #000000",
"{	c #181818",
"]	c #F2F2F2",
"^	c #F1F1F1",
"/	c #060606",
"(	c #0A0A0A",
"_	c #E5E5E5",
":	c #EFEFEF",
"<	c #191919",
"[	c #DFDFDF",
"}	c #EAEAEA",
"|	c #E6E6E6",
"1	c #E1E1E1",
"2	c #E9E9E9",
"3	c #EBEBEB",
".+++@#@$%",
"&*%%%==-;",
">&@$$++$*",
"%@$%-%===",
"&%,&'%)!&",
"&&,~{~&%]",
"&$^/(~_&:",
"&;-~<~&#^",
"&&*^&*>[.",
"&'$&};&@#",
"&#$|&@.12",
"&3&:,+}&%",
"'#]=@^-&,"};
