/* XPM */
static char * monthly[] = {
"9 13 49 1",
" 	c None",
".	c #FFFFFF",
"+	c #FEFEFE",
"@	c #F6F6F6",
"#	c #CFCFCF",
"$	c #EEEEEE",
"%	c #D8D8D8",
"&	c #C3C3C3",
"*	c #FDFDFD",
"=	c #E7E7E7",
"-	c #EBEBEB",
";	c #F5F5F5",
">	c #F8F8F8",
",	c #0C0C0C",
"'	c #EFEFEF",
")	c #171717",
"!	c #000000",
"~	c #FBFBFB",
"{	c #EDEDED",
"]	c #040404",
"^	c #0F0F0F",
"/	c #F4F4F4",
"(	c #090909",
"_	c #F7F7F7",
":	c #E9E9E9",
"<	c #010101",
"[	c #FAFAFA",
"}	c #F9F9F9",
"|	c #E3E3E3",
"1	c #E1E1E1",
"2	c #E2E2E2",
"3	c #151515",
"4	c #080808",
"5	c #202020",
"6	c #F1F1F1",
"7	c #0A0A0A",
"8	c #0E0E0E",
"9	c #F3F3F3",
"0	c #101010",
"a	c #181818",
"b	c #E8E8E8",
"c	c #ECECEC",
"d	c #252525",
"e	c #050505",
"f	c #111111",
"g	c #F2F2F2",
"h	c #B9B9B9",
"i	c #F0F0F0",
"j	c #DDDDDD",
".+@.#$@%.",
"&.*=-.;.>",
".,').!.!~",
"{]~!>^/(_",
"~(:,.!_<[",
"'![!*^.)-",
"}.|.+_/1.",
"2^{3$4[56",
".7.!.8}!9",
"+!.0.!;ab",
"cd9e9f_!+",
"'*.6g}>/~",
"9.h*i.i@j"};
