/* XPM */
static char * yearly[] = {
"9 13 44 1",
" 	c None",
".	c #FDFDFD",
"+	c #EBEBEB",
"@	c #FFFFFF",
"#	c #F3F3F3",
"$	c #FCFCFC",
"%	c #EEEEEE",
"&	c #3F3F3F",
"*	c #E2E2E2",
"=	c #070707",
"-	c #000000",
";	c #010101",
">	c #CECECE",
",	c #FEFEFE",
"'	c #151515",
")	c #F4F4F4",
"!	c #060606",
"~	c #191919",
"{	c #F1F1F1",
"]	c #F6F6F6",
"^	c #EFEFEF",
"/	c #F2F2F2",
"(	c #111111",
"_	c #E6E6E6",
":	c #0E0E0E",
"<	c #020202",
"[	c #0B0B0B",
"}	c #FAFAFA",
"|	c #131313",
"1	c #E5E5E5",
"2	c #F0F0F0",
"3	c #F8F8F8",
"4	c #161616",
"5	c #0D0D0D",
"6	c #F7F7F7",
"7	c #EDEDED",
"8	c #E3E3E3",
"9	c #040404",
"0	c #181818",
"a	c #101010",
"b	c #FBFBFB",
"c	c #E9E9E9",
"d	c #F5F5F5",
"e	c #F9F9F9",
".+@#@@@$@",
"%&*=@-@;>",
"@-,')!@~@",
"@{@]^@)/#",
".=@(_:@<]",
"/[)=}|{!@",
",/@+@1@22",
"34)5/:@~6",
"7:#|$[)(.",
",{@{@8@7{",
"@|#9%0@a.",
"3-,a/(b;@",
"cd@^..e@}"};
