/* XPM */
static char * jadd_xpm[] = {
"60 15 23 1",
" 	c None",
".	c #E1E1D3",
"+	c #E7E7E7",
"@	c #D5D4C4",
"#	c #DAD9CA",
"$	c #D1D1BF",
"%	c #CFCEBB",
"&	c #CAC9B4",
"*	c #C4C3AB",
"=	c #ADAC97",
"-	c #999884",
";	c #3F3F37",
">	c #A4A38D",
",	c #848474",
"'	c #B5B49C",
")	c #6B6B5E",
"!	c #000000",
"~	c #BCBCA3",
"{	c #20201C",
"]	c #7A7A69",
"^	c #5A594D",
"/	c #656458",
"(	c #606053",
"...+.@..########@@#@#######$$##@#@@#.#@$#..##$###@.#..#$%$&&",
"..+.#@.##@###..######@$@###$@#@##@%$#%$@@#####.#@#.###.@$$*=",
"+...#..@.####.#@#@@@$%$#@$@$$@$@@#@##%@#$#$$@##@#.###..@&&=-",
"#....#@@#@%%#$%@@%@%=;;>@$@@#@#,;=$$$$=;,#%$#@#$@#$@##%&*'-,",
"@####%$@&%&$$&%$$$%&)!!;&%%&&&$)!-&&&&-!)&&&$%@%&@%&%$**>-,)",
"%$@%&&%%*&*&*&&&**~~{{;!=~'~];;^!,~-;;/!)*'~*&&~*$%&$&~'-])(",
"%%$%**~~*~'*'*~~'~~>!^]!]*>,!{^!!,=!!^!!(''**''~****~*'-,)/(",
"@&&%~*~*&''~=~*~''*)!]=!;*=;!-~;!])!/>]!/''~~'***~~**&'>,)/(",
"#%%%**&*&~'~***'='~{!/({!>>;!'*/!,(!,*,!)~~*&~*~~***~*'-,)((",
"%&%&*'''=>-='>---=-!!!!!!^-;!>';!)^!)>/!^>'==>>>==>>>'=,]^(/",
"&*~=>-,,,]],,],,,];!^)]]!{]^!;^!!^)!{({!;],],]],]]]],,]/((//",
"*=>,]///(((/(((/^^{!^^^({!^){!!{!;^;!!{!{((((^(/^^^((((^(/)/",
"'-,((//(//^(((((^^^(^^^/^^^(^^((^^^(^((((((((^((((((/(////((",
"-]/()/(^//(^(((((((((^^(^^^(^^^^^((/((/(((((^(//(^((((////))",
",((()////(^^//(/(((((^^((////^^(^((/(^((^()((/((((//(///((//"};
