/* XPM */
static char * jedit_xpm[] = {
"60 15 23 1",
" 	c None",
".	c #E1E1D3",
"+	c #E7E7E7",
"@	c #D5D4C4",
"#	c #DAD9CA",
"$	c #D1D1BE",
"%	c #CFCEBB",
"&	c #CAC9B4",
"*	c #C4C3AB",
"=	c #B0AF99",
"-	c #9A9985",
";	c #3B3B35",
">	c #A9A893",
",	c #7B7B6A",
"'	c #605F53",
")	c #878676",
"!	c #B5B49C",
"~	c #000000",
"{	c #666659",
"]	c #5A594D",
"^	c #BCBCA3",
"/	c #262621",
"(	c #A3A28B",
"...+.@..########@@#@#######$$##@#@@#.#@@#..##$###@.#..#$%$&&",
"..+.#@.##@###..######@$@###$@#@##@%$#%$@@#####.#@#.###.@$$*=",
"+...#..@.####.#@#@@@$%$#@$@$$@$@@#@##%@#$#$$@##@#.###..@&&=-",
"#....#@@#@%%#@%@@%$;;;;;;>@@#@=;,@;'$$)=@#%@#@#$@#$@##%&*!-)",
"@####%$@&%&$$&%$$$%~~;;;;>%&&&-~{%;]&{~-&&&&$%@%&@%&%$**>-,{",
"%$@%&&%%*&*&*&&&**^~;!=*^^=-;;{~{^',>;~])*!^*&&^*$%&$&^!-,{'",
"%%$%**^^*^!*!*^^!^^~/,)-)*-~~{~~{=~;)/~/{!!**!!^****^*!-){{'",
"@&&%^*^*&!!!=^*^!^*~~~~~~*{~{=,~'>~;-]~)!!!^^!***^^**&!-){''",
"#%%%**&*&^=^***=>!^~/))))=]~,!)~'=~/!{~)^^^*&^*^^***^*!(){{'",
"%&%&*!!!=(-=!((--=>~/(->>-]~{=,~]-~/>]~,>>!==>>(=>((>!>),]'{",
"&*^>())),,,)),,),,,~~;;;;]{~/]/~;,~/,;~;{,,,),,),,,,)),''''{",
"*=(),{{{'''{'''{'''~~~~~~;';~~/~;]~/]]~~/'''']'']]]'''']'{{{",
"!-)''{{'{{]''''']]]'']'{]]]']]]]]]]]]'{']'''']''''''''{{{'''",
"-,{'{{']'{']'''''''''']']]]']]]]]'''''{''''']'{{']''''{'{{{{",
")'''{{'{{']]{{''''''']]''{{{']]']''{']'']'{''{''''{{'{{{''{{"};
