/* XPM */
static char * note[] = {
"12 11 3 1",
" 	c None",
".	c #FFFFFF",
"+	c #000000",
".........+++",
"....++++++++",
"...++++++..+",
"...++......+",
"...+.......+",
"...+.......+",
"...+.......+",
"...+....++++",
".+++...+++++",
"++++....+++.",
"+++........."};
