/* XPM */
static char *stock_remove_xpm[] = {
/* columns rows colors chars-per-pixel */
"24 24 30 1",
"  c Gray0",
". c #100000",
"X c #140000",
"o c #190001",
"O c #200002",
"+ c #41413f",
"@ c #484844",
"# c #4b4b48",
"$ c #5a5a54",
"% c #5b5b56",
"& c #5f5f59",
"* c #686754",
"= c #6d6d66",
"- c #706c60",
"; c #7f7c71",
": c #84847c",
"> c #8d897f",
", c #949480",
"< c #969289",
"1 c #a19d90",
"2 c #a7a296",
"3 c #aaa597",
"4 c #ada798",
"5 c #b3b090",
"6 c #bab696",
"7 c #bab3a8",
"8 c #cec7b9",
"9 c #d4ccc0",
"0 c #e0dcc0",
"q c None",
/* pixels */
"qqqqqqqqqqqqqqqqqqqqqqqq",
"qqqqqqqqqqqqqqqqqqqqqqqq",
"qqqqqqqqqqqq qqqqqqqqqqq",
"qqqqqqqq      q qqqqqqqq",
"qqqqqqqqqq     qqqqqqqqq",
"qqqqqqqqq       qqqqqqqq",
"qqqqqqqq         qqqqqqq",
"qqqqqqqqq     qqqqqqqqqq",
"qqqqqqqqqqqOXoqqqqqqqqqq",
"qqqqq   qq ooo     qqqqq",
"qqqq qq   -.Xo0   q  qqq",
"qqqqq  ----ooO0000   qqq",
"qqqqq 4 *---,0006+&  qqq",
"qqqqq 992 *-,05@&::  qqq",
"qqqqq 99991 -#&::::  qqq",
"qqqqq 999998 ::::::  qqq",
"qqqqq 999999 ::::::  qqq",
"qqqqq 999999 ::::::  qqq",
"qqqqq <79999 :::::=  qqq",
"qqqqqq  3999 ::::$   qqq",
"qqqqqqq  ;79 ::$    qqqq",
"qqqqqqqqq  > $    qqqqqq",
"qqqqqqqqqqq     qqqqqqqq",
"qqqqqqqqqqqqqqqqqqqqqqqq"
};
