/* XPM */
static char *stock_mic_xpm[] = {
/* columns rows colors chars-per-pixel */
"24 24 28 1",
"  c Gray0",
". c #393939",
"X c #3f3f3f",
"o c #4b4b4b",
"O c Gray32",
"+ c #555555",
"@ c #656565",
"# c #6a6a6a",
"$ c #6f6f6f",
"% c #747474",
"& c Gray48",
"* c Gray",
"= c #868686",
"- c #888888",
"; c #898989",
": c #8b8b8b",
"> c Gray56",
", c #989898",
"< c Gray61",
"1 c Gray67",
"2 c #bbbbbb",
"3 c Gray80",
"4 c Gray82",
"5 c Gray84",
"6 c #f6f6f6",
"7 c Gray97",
"8 c Gray99",
"9 c None",
/* pixels */
"999999999999999999999999",
"999999999999999999999999",
"999999999999999999999999",
"99999999999   9999999999",
"9999999999 1%1 999999999",
"999999999 4-6*, 99999999",
"999999999 O8%3O 99999999",
"999999999 ,-5$, 99999999",
"999999999 O6%3O 99999999",
"9999999   ,=5@-   999999",
"9999999 9 O6%2o 9 999999",
"9999999 9 -&5+% 9 999999",
"9999999 9 X<#>. 9 999999",
"9999999  9     9  999999",
"99999999  99999  9999999",
"999999999       99999999",
"99999999999   9999999999",
"99999999999   9999999999",
"99999999999   9999999999",
"999999999999 99999999999",
"999999999999999999999999",
"999999999999999999999999",
"999999999999999999999999",
"999999999999999999999999"
};
