/* XPM */
static char *stock_mail_compose_xpm[] = {
/* columns rows colors chars-per-pixel */
"24 24 117 2",
"   c Gray0",
".  c #060605",
"X  c #756020",
"o  c #4e4e4c",
"O  c #4f4e4c",
"+  c #4f4f4d",
"@  c #515150",
"#  c #525251",
"$  c #585754",
"%  c #5f5e5e",
"&  c #61615e",
"*  c #62615f",
"=  c #62625f",
"-  c #616060",
";  c #626260",
":  c #646361",
">  c #777671",
",  c #787773",
"<  c #797874",
"1  c #797875",
"2  c #797976",
"3  c #7a7a77",
"4  c #7b7a76",
"5  c #7b7b78",
"6  c #7c7c7b",
"7  c #7e7d7c",
"8  c #8e7d45",
"9  c #ad8e30",
"0  c #d8be6a",
"q  c #838381",
"w  c #93918c",
"e  c #92918e",
"r  c #959490",
"t  c #959590",
"y  c #969590",
"u  c #969592",
"i  c #979691",
"p  c #989793",
"a  c #999894",
"s  c #9b9a97",
"d  c #a7a6a3",
"f  c #a8a8a6",
"g  c #a9a9a6",
"h  c #aeada8",
"j  c #b4b3af",
"k  c #b5b4b1",
"l  c #b6b5b2",
"z  c #b5b5b4",
"x  c #b8b7b0",
"c  c #bcbbb6",
"v  c #bcbcb6",
"b  c #bcbcb7",
"n  c #bdbcb8",
"m  c #bebdb8",
"M  c #bebdb9",
"N  c #bfbeba",
"B  c #bfbfbc",
"V  c #c7c7c3",
"C  c #c6c6c4",
"Z  c #cdccc6",
"A  c #cecdc7",
"S  c #cfcec8",
"D  c #d0d0cd",
"F  c #d2d2cd",
"G  c #d7d6d4",
"H  c #dad9d5",
"J  c #dbdbd9",
"K  c #e3e3df",
"L  c #e4e2da",
"P  c #e4e3da",
"I  c #e5e4db",
"U  c #e6e4db",
"Y  c #e6e4dc",
"T  c #e6e5dc",
"R  c #e7e5dd",
"E  c #e7e6de",
"W  c #e8e6de",
"Q  c #e8e6df",
"!  c #e8e7df",
"~  c #e9e7e0",
"^  c #e9e8e0",
"/  c #e9e8e1",
"(  c #eae8e1",
")  c #eae9e2",
"_  c #ebe9e2",
"`  c #ebe9e3",
"'  c #ebeae3",
"]  c #ebeae4",
"[  c #eceae4",
"{  c #ecebe4",
"}  c #ecebe5",
"|  c #edece6",
" . c #eeece7",
".. c #eeede7",
"X. c #eeede8",
"o. c #efeee8",
"O. c #efeee9",
"+. c #f0efea",
"@. c #f0efeb",
"#. c #f1f0eb",
"$. c #f1f0ec",
"%. c #f1f1ec",
"&. c #f2f1ed",
"*. c #f2f2ed",
"=. c #f2f2ee",
"-. c #f3f2ee",
";. c #f3f3ef",
":. c #f4f3ef",
">. c #f4f3f0",
",. c #f4f4f0",
"<. c #f5f4f1",
"1. c #f5f5f2",
"2. c #f6f5f2",
"3. c #f6f6f3",
"4. c #f7f7f5",
"5. c #f8f8f6",
"6. c None",
/* pixels */
"6.6.6.6.6.6.6.6.6.6.6.6.6.6.6.6.6.6.6.6.6.6.6.6.",
"6.6.6.6.6.6.6.6.6.6.6.6.6.6.6.6.6.6.6.6.6.6.6.6.",
"6.6.6.6.6.6.6.6.6.6.6.6.6.        6.6.6.6.6.6.6.",
"6.6.6.6.6.6.6.6.          5 V #.B   6.6.6.6.6.6.",
"6.6.6.          % B K =.=.=.+.F i   6.6.6.6.6.6.",
"6.6.  - z 5.4.<.<.<.=.=.=.+.O.+ N d   6.6.6.6.6.",
"6.6.  C 6 # J <.>.=.=.#.+.O.a = b `   6.6.6.6.6.",
"6.6.  q G f # 7 H =.#.+.O...+ c ` `   6.6.6.6.6.",
"6.6.6.  <.<.:.l a : e O...+ 3 3 ` Q j   6.  6.6.",
"6.6.6.  F =.=.=.+.N N 3 + i ` e , x R     0   6.",
"6.6.6.  f =.=.+.O.- ..[ ` ` ~ Q R > e   0 8   6.",
"6.6.6.6.  #.+.O.N p [ ` ` ~ Q R I L   0 8   6.6.",
"6.6.6.6.  +.O...= ` ` ` Q R R I L   0 8   6.6.6.",
"6.6.6.6.  l ..b i ` ` Q R R Z i   0 8   6.6.6.6.",
"6.6.6.6.6.  [ = ` ` Q Z i       0 8   6.6.6.6.6.",
"6.6.6.6.6.  3 i Z h       6.  0 8   6.6.6.6.6.6.",
"6.6.6.6.6.  $ 3     6.6.6.  0 8   6.6.6.6.6.6.6.",
"6.6.6.6.6.6.    6.6.6.6.  0 8   6.6.6.6.6.6.6.6.",
"6.6.6.6.6.6.6.6.6.6.6.9 X     6.6.6.6.6.6.6.6.6.",
"6.6.6.6.6.6.6.6.6.6.6..   6.6.6.6.6.6.6.6.6.6.6.",
"6.6.6.6.6.6.6.6.6.6.6.6.6.6.6.6.6.6.6.6.6.6.6.6.",
"6.6.6.6.6.6.6.6.6.6.6.6.6.6.6.6.6.6.6.6.6.6.6.6.",
"6.6.6.6.6.6.6.6.6.6.6.6.6.6.6.6.6.6.6.6.6.6.6.6.",
"6.6.6.6.6.6.6.6.6.6.6.6.6.6.6.6.6.6.6.6.6.6.6.6."
};
