/* XPM */
static char *stock_exit_xpm[] = {
/* columns rows colors chars-per-pixel */
"20 20 13 1",
"  c Gray0",
". c Gray3",
"X c #2d2d2d",
"o c #8a4d4f",
"O c #9e575b",
"+ c #a75e5f",
"@ c #af6668",
"# c #b66d71",
"$ c #be7579",
"% c #c67d81",
"& c #cd8689",
"* c #e4e4dc",
"= c None",
/* pixels */
"====================",
"====================",
"====================",
"========         ===",
"======== ******  ===",
"======== ******  ===",
"======   ******  ===",
"====== $ ******  ===",
"=      $% **X *  ===",
"= oO+@#$%& * X*  ===",
"= oO+@#$%& ****  ===",
"=      $% *****  ===",
"====== $ ******  ===",
"======   ******  ===",
"======== ****    ===",
"======== **      ===",
"========   ......===",
"====================",
"====================",
"===================="
};
