/* XPM */
static char *stock_new_xpm[] = {
/* columns rows colors chars-per-pixel */
"24 24 89 1",
"  c Gray0",
". c Gray14",
"X c #343434",
"o c #373736",
"O c #3d3d37",
"+ c #3c3c3c",
"@ c #4d4d45",
"# c #4e4e4e",
"$ c #505050",
"% c #646464",
"& c #797973",
"* c #7c7c7c",
"= c #818174",
"- c #828274",
"; c #8f8f80",
": c #929282",
"> c #959585",
", c #969686",
"< c #98988f",
"1 c #a5a594",
"2 c #a6a694",
"3 c #a6a696",
"4 c #a7a796",
"5 c #adad9c",
"6 c #b2b29f",
"7 c #b8b8a6",
"8 c #bbbba8",
"9 c #bebeab",
"0 c #bebeae",
"q c #ceceb7",
"w c #cdcdb8",
"e c #d0d0b9",
"r c #d1d1b9",
"t c #d2d2bc",
"y c #d3d3bc",
"u c #d5d5bd",
"i c #d5d5bf",
"p c #d6d6bf",
"a c #d7d7c0",
"s c #d7d7c1",
"d c #d8d8c1",
"f c #d8d8c2",
"g c #d9d9c2",
"h c #d9d9c3",
"j c #dadac3",
"k c #dbdbc4",
"l c #dcdcc4",
"z c #dcdcc5",
"x c #ddddc5",
"c c #ddddc6",
"v c #ddddc7",
"b c #dedec6",
"n c #dfdfc7",
"m c #dfdfc8",
"M c #e0e0c8",
"N c #e0e0c9",
"B c #e1e1c9",
"V c #e1e1ca",
"C c #e2e2ca",
"Z c #e3e3cb",
"A c #e4e4cb",
"S c #e4e4cc",
"D c #e5e5cd",
"F c #e6e6ce",
"G c #e7e7cf",
"H c #e8e8d0",
"J c #e9e9d0",
"K c #e9e9d1",
"L c #eaead1",
"P c #eaead2",
"I c #ebebd2",
"U c #ebebd3",
"Y c #ececd3",
"T c #ececd4",
"R c #ededd4",
"E c #eeeed5",
"W c #efefd6",
"Q c #f0f0d7",
"! c #f1f1d8",
"~ c #f2f2d9",
"^ c #f3f3da",
"/ c #f4f4db",
"( c Beige",
") c #e7e7e7",
"_ c #eeeee5",
"` c #eeeee6",
"' c #ececec",
"] c Gray93",
"[ c None",
/* pixels */
"[[[[[[[[[[[[[[[[[[[[[[[[",
"[[[[[[[[[[[[[[[[[[[[[[[[",
"[[[[[[[[[[[[[ [[[[[[[[[[",
"[[[[[[[[[[[  5 [[[[[[[[[",
"[[[[[[[[[  >zm.[[[[[[[[[",
"[[[[[[[  2sjzzV [[[[[[[[",
"[[[[[  2pssjzzV6 [[[[[[[",
"[[[[ *%pppjjzVDKo[[[[[[[",
"[[[[ )o7ysjzVDKTT [[[[[[",
"[[[[ ]]OqpkVDKKT~2 [[[[[",
"[[[[ __+;rVAKYT~~~ [[[[[",
"[[[[ _$:rzVDKT~~~/( [[[[",
"[[[[  >ykVAKTQ///((9 [[[",
"[[[[ &jjzVDKT~~(((((j [[",
"[[[[ <kzmDHKT~~(((((- [[",
"[[[[[ zVVDKYT~/((((  [[[",
"[[[[[ 0DDKKTQ//((j [[[[[",
"[[[[[[#KKKTT~//~- [[[[[[",
"[[[[[[ KTTT~~~j [[[[[[[[",
"[[[[[[[ TQ~~K2 [[[[[[[[[",
"[[[[[[[ 8~~w@ [[[[[[[[[[",
"[[[[[[[[ ~2 [[[[[[[[[[[[",
"[[[[[[[[[  [[[[[[[[[[[[[",
"[[[[[[[[[[[[[[[[[[[[[[[["
};
