/* XPM */
static char *stock_bottom_xpm[] = {
/* columns rows colors chars-per-pixel */
"24 24 91 1",
"  c Gray0",
". c #010101",
"X c Gray1",
"o c #040404",
"O c #060606",
"+ c #070707",
"@ c Gray3",
"# c #090909",
"$ c #0b0b0b",
"% c #0e0e0e",
"& c #5f7b52",
"* c #637f55",
"= c #678459",
"- c #678558",
"; c #6a885c",
": c #6d8b5f",
"> c #738f65",
", c #719062",
"< c #739365",
"1 c #7c996e",
"2 c #7d996f",
"3 c #7c9c6c",
"4 c #7e9d6e",
"5 c #83a574",
"6 c #84a676",
"7 c #86a876",
"8 c #89a67a",
"9 c #8aa67b",
"0 c #8aa57e",
"q c #8aab7d",
"w c #8aad7a",
"e c #8bae7b",
"r c #8bad7c",
"t c #8cab7e",
"y c #8cac7f",
"u c #8dac7f",
"i c #8cae7d",
"p c #8cae7e",
"a c #8dae7e",
"s c #8eaf7f",
"d c #8fa983",
"f c #8fab81",
"g c #8ead80",
"h c #8eae80",
"j c #90b082",
"k c #9bb48f",
"l c #9cb690",
"z c #9eb793",
"x c #a3ac9e",
"c c #a7be9c",
"v c #bbc0b8",
"b c #cdcfcb",
"n c #d2d4d0",
"m c #d3d4d1",
"M c #d4d5d2",
"N c #d6d7d3",
"B c #d5d6d4",
"V c #d6d7d4",
"C c #d9dad8",
"Z c #dbdcd9",
"A c #dedfdd",
"S c #dfe0de",
"D c #e0e0df",
"F c #e1e1e0",
"G c #e2e2e0",
"H c #e3e3e1",
"J c #e3e3e2",
"K c #e5e5e4",
"L c #e5e7e5",
"P c #e9ebe8",
"I c #eae8e9",
"U c #edecec",
"Y c Gray93",
"T c #eeeded",
"R c #eeecee",
"E c #efecee",
"W c #efecef",
"Q c #efedef",
"! c #eeeeed",
"~ c #efefee",
"^ c #f0efef",
"/ c #f2eff2",
"( c #f2f0f1",
") c #f2f0f2",
"_ c #f3f0f3",
"` c #f4f0f4",
"' c #f5f1f5",
"] c #f6f2f6",
"[ c #f4f4f4",
"{ c Gray96",
"} c None",
/* pixels */
"}}}}}}}}}}}}}}}}}}}}}}}}",
"}}}}}}}}}}}}}}}}}}}}}}}}",
"}}}}}}}}}}}}}}}}}}}}}}}}",
"}}}}}}}}}}}}}}}}}}}}}}}}",
"}}}}} O     O#%OOO }}}}}",
"}}}}}#Z![[[!czzkf> }}}}}",
"}}}}}} DI!!!iiiq1 }}}}}}",
"}}}}}} V!'''wwif; }}}}}}",
"}}}}}}} K)''ww7< }}}}}}}",
"}}}}}}} N!/'wj9; }}}}}}}",
"}}}}}}}} J))ri, }}}}}}}}",
"}}}}}}}} n!!h0= }}}}}}}}",
"}}}}}}}}} J^9: }}}}}}}}}",
"}}}}}}}}} bA1* }}}}}}}}}",
"}}}}}}}}}} v= }}}}}}}}}}",
"}}}}}}}}}} x& }}}}}}}}}}",
"}}}}}}}}}}}  }}}}}}}}}}}",
"}}}}}  OoXOO       }}}}}",
"}}}}}#KJJDSCihht4< }}}}}",
"}}}}}#IVNNNn55564< }}}}}",
"}}}}} %O           }}}}}",
"}}}}}}}}}}}}}}}}}}}}}}}}",
"}}}}}}}}}}}}}}}}}}}}}}}}",
"}}}}}}}}}}}}}}}}}}}}}}}}"
};
