/* XPM */
static char *stock_book_open_xpm[] = {
/* columns rows colors chars-per-pixel */
"24 24 64 1",
"  c Gray0",
". c #0c0c0c",
"X c #161616",
"o c Gray14",
"O c #2a2a2a",
"+ c Gray31",
"@ c #515151",
"# c Gray34",
"$ c #5b5b5b",
"% c Gray38",
"& c Gray39",
"* c #656565",
"= c #6a6a6a",
"- c #6c6c6c",
"; c Gray45",
": c #777777",
"> c #808080",
", c #838383",
"< c Gray54",
"1 c #939393",
"2 c #9a9a9a",
"3 c Gray62",
"4 c #a0a0a0",
"5 c #a2a2a2",
"6 c Gray65",
"7 c Gray66",
"8 c #acacac",
"9 c #aeaeae",
"0 c #b2b2b2",
"q c #bebebe",
"w c Gray75",
"e c #c3c3c3",
"r c #c6c6c6",
"t c #cacaca",
"y c #cecece",
"u c #d0d0d0",
"i c #d3d3d3",
"p c Gray83",
"a c #d5d5d5",
"s c #d8d8d8",
"d c Gray85",
"f c #dadada",
"g c Gray86",
"h c gainsboro",
"j c Gray87",
"k c #dfdfdf",
"l c Gray88",
"z c #e4e4e4",
"x c Gray90",
"c c #e7e7e7",
"v c #e9e9e9",
"b c #eaeaea",
"n c Gray92",
"m c #ececec",
"M c Gray93",
"N c #eeeeee",
"B c #efefef",
"V c Gray94",
"C c #f1f1f1",
"Z c Gray95",
"A c #f3f3f3",
"S c Gray96",
"D c #f6f6f6",
"F c None",
/* pixels */
"FFFFFFFFFFFFFFFFFFFFFFFF",
"FFFFFFFFFFFFFFFFFFFFFFFF",
"FFFFFFF q2VFFFFFFFFFFFFF",
"FFFFFF qqVVFFFFFFFFFFFFF",
"FFFFF qfVVVVFFFFFFFFFFFF",
"FFFF qVVVpVVFFFFFFFFFFFF",
"FFF qVVmVVVmmFFFFFFFFFFF",
"FF 9VVVpnVpmcFFFFFFFFFFF",
"F 0VVpVVpnVucuFFFFFFFFFF",
"F 5VVmpVVmmmc5lmSSSSS9FF",
"FF fVVVVVVunqpcVSSSS9<FF",
"FF %cVVmpmnytkmkSkSS<@ F",
"FFF 3VVVnu91fmSSSSS9*$ F",
"FFFF fVVrq>lmSkSkkS<@ FF",
"FFFF %cme;6fVSSSSS9*$ FF",
"FFFFF %m;=knSkkSkS<1 FFF",
"FFFFF  @-9cVSSSSS9*- FFF",
"FFFFF  oOqpVSSSSS<1 FFFF",
"FFFFFF .X#qqqqffq*- FFFF",
"FFFFFFF   <>qqqq:1 FFFFF",
"FFFFFFFFFF   ;7q:$ FFFFF",
"FFFFFFFFFFFFF   + FFFFFF",
"FFFFFFFFFFFFFFFF  FFFFFF",
"FFFFFFFFFFFFFFFFFFFFFFFF"
};
