/* XPM */
static char * jdelete_xpm[] = {
"60 15 23 1",
" 	c None",
".	c #E1E1D3",
"+	c #E7E7E7",
"@	c #D5D4C4",
"#	c #DAD9CA",
"$	c #D1D1BF",
"%	c #CFCEBA",
"&	c #CAC9B4",
"*	c #C5C4AC",
"=	c #ADAC96",
"-	c #9A9985",
";	c #31312B",
">	c #4A4940",
",	c #636356",
"'	c #797969",
")	c #C0BFA7",
"!	c #B5B49C",
"~	c #868575",
"{	c #000000",
"]	c #121210",
"^	c #A5A48E",
"/	c #BBBAA1",
"(	c #5C5B4F",
"...+.@..########@@#@#######$$##@#@@#.#@$#..##$###@.#..#$%$&&",
"..+.#@.##@###..######@$@###$@#@##@%$#%$@@#####.#@#.###.@$$*=",
"+...#..@.####.#@#@@@$%$#@$@$$@$@@#@##%@#$#$$@##@#.###..@&&=-",
"#....#@@#@%%#;;;;>-$&$$#@$@@;,#@$@$$$$*'@#%$#@#$@#$@##%&)!-~",
"@####%$@&%&$@{];>]{'&%&&&&%&{;$&&&&&&&];&&&&$%@%&@%*%@)*^-~,",
"%$@%&&%%*&*&*{;&*!]]*!~>;'!/{;)!~>;')'{],)=,;>=/)$%&$&)!-',,",
"%%$%*))/*/!*!{;/!/({-~{;>{(/{;!-{;>{,>{];!;](]]=****/)!-~',,",
"@&&%)))*&/!/={;/!/,{~>{!);]/{;)>{-=;]^{;/-{()'{'))/*)&!-~,,,",
"#%%%****&/!/*{;!=!,{~;{{{{{!{;);{{{{{){;)~{{{{{,)***/*/-~'(,",
"%&%&*!!!=^-=!{;--!]]^;{-^--={;=;{-^^^^{;=~{>=^^^==^^^!^~'((,",
"&*)=^~~~~''~~{]>>]{>'>{;>{;~{;'>{;>{;~{]>']](;{,''''~~',(,,,",
")!-~',,,(,(,({{{{];(((;{{]>,{],,;{{]>(;{{,>]{{;,((((,((((,,,",
"!-~,(,,,,,(,(,,((((,(((,(((,(((((((,((,((,,,((,((((,,,,,,,,(",
"-',,,,,(,,((((((,,(,(((,(((((((((,,,(,,,,(,,(,,,,(,,(,,,,,,,",
"~,,(,,,,,,((,,,,,((,((((,,,,,((((,(,,((,((,,,,,,,(,,,,,,(,,,"};
