/* XPM */
static char *stock_convert_xpm[] = {
/* columns rows colors chars-per-pixel */
"24 24 27 1",
"  c Gray0",
". c #37452b",
"X c #67102d",
"o c #445636",
"O c #425d3a",
"+ c #4c603c",
"@ c #4c6b43",
"# c #526741",
"$ c #566b43",
"% c #577a4d",
"& c #5a7046",
"* c #67865e",
"= c #648c58",
"- c #76996c",
"; c #c47474",
": c #d37f71",
"> c #c8807d",
", c #d4897a",
"< c #8eab86",
"1 c #9bb594",
"2 c #a7bda0",
"3 c #cb8984",
"4 c #ce918a",
"5 c #d69788",
"6 c #d79c8d",
"7 c #dae3d6",
"8 c None",
/* pixels */
"888888888888888888888888",
"888888888888888888888888",
"888888888888888888888888",
"888888888888888888888888",
"888888 888888    8888888",
"88888 : 8888   .  888888",
"8888 4,X 88 888 . 888888",
"888 ;45XX 888888 o 88888",
"88 ;346XXX 88888 # 88888",
"8 ;>346XXXX 88  ##+  888",
"8 ;>345XXX 8888 $&$ 8888",
"88  ;>,XX 888888 # 88888",
"8888  :X 88888888 888888",
"888888  8888888888888888",
"8888888888888888   88888",
"88888888888888  %%@  888",
"88888888888888 -11-= 888",
"8888888888888 %171-=@ 88",
"8888888888888 *21<==@ 88",
"8888888888888 %--==%O 88",
"88888888888888 %==%@ 888",
"88888888888888  O@O  888",
"8888888888888888   88888",
"888888888888888888888888"
};
