/* XPM */
static char *stock_copy_xpm[] = {
/* columns rows colors chars-per-pixel */
"24 24 54 1",
"  c Gray0",
". c #272727",
"X c #42423a",
"o c #616156",
"O c Gray44",
"+ c #919182",
"@ c #929284",
"# c #9f9f8f",
"$ c #a3a391",
"% c #a5a594",
"& c #a5a595",
"* c #a6a696",
"= c #a7a796",
"- c #acac9b",
"; c #aeae9c",
": c #aeaea8",
"> c #b4b4a1",
", c #b7b7a5",
"< c #b3b3ac",
"1 c #bbbba7",
"2 c #d1d1bc",
"3 c #d4d4be",
"4 c #d7d7c1",
"5 c #d8d8c2",
"6 c #d9d9c3",
"7 c #dadac3",
"8 c #dbdbc4",
"9 c #dcdcc5",
"0 c #ddddc6",
"q c #dedec7",
"w c #dfdfc8",
"e c #ddddd9",
"r c #e0e0c9",
"t c #e1e1c9",
"y c #e2e2ca",
"u c #e2e2cb",
"i c #e3e3cc",
"p c #e4e4cd",
"a c #e5e5ce",
"s c #e6e6cf",
"d c #e7e7cf",
"f c #e8e8d0",
"g c #e9e9d1",
"h c #eaead2",
"j c #ebebd3",
"k c #ececd4",
"l c #ededd5",
"z c #eeeed5",
"x c #f0f0d7",
"c c #f1f1d8",
"v c #f2f2d9",
"b c Beige",
"n c #eaeae2",
"m c None",
/* pixels */
"mmmmmmmmmmmmmmmmmmmmmmmm",
"mmmmmmmmmmmmmmmmmmmmmmmm",
"mmmmmmmmmmmmmmmmmmmmmmmm",
"mmmmmmmmmmmmmmmmmmmmmmmm",
"mmmmmmmmmmmmmmmmmmmmmmmm",
"mmmmmmmm  mmmmmmmmmmmmmm",
"mmmmmm  2+ mmmmmmmmmmmmm",
"mmmm .:,35 mmmm  mmmmmmm",
"mmmm nO<48- m  2+ mmmmmm",
"mmmm eX&5qr .:135 mmmmmm",
"mmmm o&5qrp nO<48- mmmmm",
"mmmm 15qrip eX&5qr mmmmm",
"mmmm @qwrph o&5qrp> mmmm",
"mmmmm qrphl 15qrpph$ mmm",
"mmmmm ;phlx @8wrphlv mmm",
"mmmmmm ph$   qrphlvb& mm",
"mmmmmm #  mm ;phlx&  mmm",
"mmmmmmm mmmmm ph$  mmmmm",
"mmmmmmmmmm mm #  mmmmmmm",
"mmmmmmm     mm mmmmmmmmm",
"mmmmmmm     mmmmmmmmmmmm",
"mmmmmmmmmm mmmmmmmmmmmmm",
"mmmmmmmmmmmmmmmmmmmmmmmm",
"mmmmmmmmmmmmmmmmmmmmmmmm"
};
