/* XPM */
static char *stock_attach_xpm[] = {
/* columns rows colors chars-per-pixel */
"24 24 3 1",
"  c Gray0",
". c Magenta",
"X c None",
/* pixels */
"XXXXXXXXXXXXXXXXXXXXXXXX",
"XXXXXXXXXXXXXXXXXXXXXXXX",
"XXXXXXXXXXXXXXXXXXXXXXXX",
"XXXXXXXXXXXXXXXXXXXXXXXX",
"XXXXXXXXXX    XXXXXXXXXX",
"XXXXXXXXX XXXX X XXXXXXX",
"XXXXXXXXX X XX X XXXXXXX",
"XXXXXXXXX X XX X XXXXXXX",
"XXXXXXXXX X XX X XXXXXXX",
"XXXXXXXXX X XX X XXXXXXX",
"XXXXXXXXX X XX X XXXXXXX",
"XXXXXXXXX X XX X XXXXXXX",
"XXXXXXXXX X XX X XXXXXXX",
"XXXXXXXXX X XX X XXXXXXX",
"XXXXXXXXX X XX X XXXXXXX",
"XXXXXXXXX X XX X XXXXXXX",
"XXXXXXXXX X XX X XXXXXXX",
"XXXXXXXXX XX  XX XXXXXXX",
"XXXXXXXXXX XXXX XXXXXXXX",
"XXXXXXXXXXX XX XXXXXXXXX",
"XXXXXXXXXXXX  XXXXXXXXXX",
"XXXXXXXXXXXXXXXXXXXXXXXX",
"XXXXXXXXXXXXXXXXXXXXXXXX",
"XXXXXXXXXXXXXXXXXXXXXXXX"
};
