/* XPM */
static char *stock_undelete_xpm[] = {
/* columns rows colors chars-per-pixel */
"24 24 95 2",
"   c Gray0",
".  c Gray3",
"X  c #1d231b",
"o  c #242622",
"O  c #252525",
"+  c #272727",
"@  c #2b2e28",
"#  c #293227",
"$  c #2a3428",
"%  c #353931",
"&  c #373b36",
"*  c #3f453d",
"=  c #3e4a3b",
"-  c #414a3c",
";  c #414a3d",
":  c #424d40",
">  c #484e43",
",  c #455042",
"<  c #485245",
"1  c #495345",
"2  c #4d5a4b",
"3  c #4f5b4b",
"4  c #544f48",
"5  c #51604d",
"6  c #556550",
"7  c #576452",
"8  c #586953",
"9  c #5b6b57",
"0  c #5d6e58",
"q  c #5e6f5a",
"w  c #656f5e",
"e  c #6f665a",
"r  c #637354",
"t  c #656565",
"y  c #666b63",
"u  c #667961",
"i  c #687a63",
"p  c #687b63",
"a  c #6f8668",
"s  c #738b6e",
"d  c #748c6b",
"f  c #788f71",
"g  c #7a9472",
"h  c #7c9674",
"j  c #7d9775",
"k  c #847768",
"l  c #838a7d",
"z  c #84957e",
"x  c #84957f",
"c  c #809a78",
"v  c #9e907c",
"b  c #879b83",
"n  c #909f86",
"m  c #8fa58a",
"M  c #97a38a",
"N  c #96a58d",
"B  c #94aa8d",
"V  c #98a58c",
"C  c #9aa78e",
"Z  c #9baa8f",
"A  c #9eab91",
"S  c #a69682",
"D  c #a0ad94",
"F  c #ada292",
"G  c #a0b095",
"H  c #a2b196",
"J  c #a4b398",
"K  c #a7b69b",
"L  c #a8ba9e",
"P  c #b3a797",
"I  c #baab9a",
"U  c #a4ada1",
"Y  c #a8b4a4",
"T  c #a8b4a5",
"R  c #a9b9a6",
"E  c #aab9a6",
"W  c #aebda9",
"Q  c #b0c0ab",
"!  c #b4c1ab",
"~  c #b6c4ad",
"^  c #bbc4b1",
"/  c #bec9b5",
"(  c #bfccb7",
")  c #c0b09f",
"_  c #c8bcae",
"`  c #c2cdbf",
"'  c #c2cebf",
"]  c #c3cebf",
"[  c #d2c8bc",
"{  c #d6cbbf",
"}  c #ced6c8",
"|  c #d7ded2",
" . c #dae1d6",
".. c #e1e7dd",
"X. c None",
/* pixels */
"X.X.X.X.X.X.X.X.X.X.X.X.X.X.X.X.X.X.X.X.X.X.X.X.",
"X.X.X.X.X.X.X.X.X.X.    X.X.X.X.X.X.X.X.X.X.X.X.",
"X.X.X.X.X.X.X.X.X.  { {   X.X.X.X.X.X.X.X.X.X.X.",
"X.X.X.X.X.X.X.X.  [ [ [ [   X.X.X.X.X.X.X.X.X.X.",
"X.X.X.X.X.X.X.  ) _ ) _ ) _   X.X.X.X.X.X.X.X.X.",
"X.X.X.X.X.X.X.      I I       X.X.X.X.X.X.X.X.X.",
"X.X.X.X.X.X.X.X.X.  S P   X.X.X.X.X.X.X.X.X.X.X.",
"X.X.X.X.X.X.X.X.    F v     X.X.X.X.X.X.X.X.X.X.",
"X.X.X.X.X.X.    #   k k   T     X.X.X.X.X.X.X.X.",
"X.X.X.X.X.  $ & #   e e   T y =   X.X.X.X.X.X.X.",
"X.X.X.X.X.      X   4 4   T       X.X.X.X.X.X.X.",
"X.X.X.X.X.  8 U t         + ; p   X.X.X.X.X.X.X.",
"X.X.X.X.X.  8 ' 6 E , b : x ; p   X.X.X.X.X.X.X.",
"X.X.X.X.X.  8 ' 6 E , b : x ; p   . . . X.X.X.X.",
"X.X.X.X.X.  8 ' 6 E , b : x ; p   . . . . X.X.X.",
"X.X.X.X.X.  8 ' 6 E , b : x ; p   . . . . X.X.X.",
"X.X.X.X.X.  8 ' 6 E , b :                 X.X.X.",
"X.X.X.X.X.  c W 6 E 5 +   L ! ..l n > D A     X.",
"X.X.X.X.X.X.  j g f   ~ ( K / w @ % o A Z V V   ",
"X.X.X.X.X.X.X.        N | / J H H D A Z V V M   ",
"X.X.X.X.X.X.X.X.X.X.  j Q }  .^ D A Z V V j 9   ",
"X.X.X.X.X.X.X.X.X.X.  r d B m m j j a u 0 2 <   ",
"X.X.X.X.X.X.X.X.X.X.X.  + s u p 0 6 < 2 * +   X.",
"X.X.X.X.X.X.X.X.X.X.X.X.X.+ + + + + + + + X.X.X."
};
