/* XPM */
static char *stock_midi_xpm[] = {
/* columns rows colors chars-per-pixel */
"24 24 25 1",
"  c Gray0",
". c #5c5543",
"X c #736b54",
"o c Gray40",
"O c #707270",
"+ c #767676",
"@ c #908669",
"# c Gray51",
"$ c #868686",
"% c Gray54",
"& c #949c8c",
"* c Gray57",
"= c #979797",
"- c #b4a884",
"; c #bbb191",
": c Gray63",
"> c #a5a5a5",
", c #b9b9b9",
"< c #bcbcbc",
"1 c #c2b99c",
"2 c #d3d3d3",
"3 c Gray86",
"4 c #e0e4e0",
"5 c Gray100",
"6 c None",
/* pixels */
"666666666666666666666666",
"666666666666666666666666",
"666666666666666666666666",
"6666                  66",
"6666 O 44444444444444 66",
"6666  *     &44444444 66",
"6666 %$ <:   &4444444 66",
"6666 2 #5  <          66",
"666 := 5: %5  33   44 66",
"666 5 +5  5$ %35  :   66",
"66 <55,5 <5  33:  3  : 6",
"66 55<55<5$ %35  :% >5 6",
"6 355,55:5<<33:  3  5% 6",
"6 %5<55:55<5<5< << =5 66",
"66  o55<5<55<55<5: 55 66",
"6666   <5<5<55<555:5% 66",
"6666 44  :5<55<55:55  66",
"6666 444    :3555:55  66",
"6666 444 X-;   <<55: 666",
"6666      @1111  <5  666",
"666666666 X--111-    666",
"6666666666 @;11;--X 6666",
"66666666666 -;11--. 6666",
"666666666666666666666666"
};
