/* XPM */
static char *stock_properties_xpm[] = {
/* columns rows colors chars-per-pixel */
"24 24 113 2",
"   c Gray0",
".  c #060605",
"X  c Gray14",
"o  c #343434",
"O  c #373736",
"+  c #3d3d37",
"@  c #3c3c3c",
"#  c #756020",
"$  c #4d4d45",
"%  c #4e4e4e",
"&  c #505050",
"*  c #646464",
"=  c #797973",
"-  c #7e7e71",
";  c #7c7c7c",
":  c #8e7d45",
">  c #ad8e30",
",  c #818174",
"<  c #828274",
"1  c #8a8a7a",
"2  c #8b8b7d",
"3  c #d8be6a",
"4  c #8f8f80",
"5  c #909081",
"6  c #919182",
"7  c #929282",
"8  c #949484",
"9  c #959585",
"0  c #969686",
"q  c #999988",
"w  c #9a9a8a",
"e  c #9b9b8b",
"r  c #98988f",
"t  c #9c9c8c",
"y  c #9d9d8d",
"u  c #9e9e8d",
"i  c #9f9f8e",
"p  c #9f9f93",
"a  c #a0a090",
"s  c #a2a291",
"d  c #a2a292",
"f  c #a5a594",
"g  c #a6a694",
"h  c #a6a696",
"j  c #a7a796",
"k  c #abab98",
"l  c #adad9c",
"z  c #b2b29f",
"x  c #acaca5",
"c  c #b8b8a6",
"v  c #bbbba8",
"b  c #bebeae",
"n  c #bfbfb0",
"m  c #c0c0ac",
"M  c #c2c2ae",
"N  c #c3c3af",
"B  c #c4c4b0",
"V  c #cdcdb8",
"C  c #d0d0b9",
"Z  c #d1d1b9",
"A  c #d2d2bc",
"S  c #d3d3bc",
"D  c #d5d5bd",
"F  c #d5d5bf",
"G  c #d6d6bf",
"H  c #d7d7c0",
"J  c #d7d7c1",
"K  c #d8d8c1",
"L  c #d8d8c2",
"P  c #d9d9c3",
"I  c #dadac3",
"U  c #dbdbc4",
"Y  c #dcdcc4",
"T  c #dcdcc5",
"R  c #ddddc5",
"E  c #ddddc7",
"W  c #dfdfc7",
"Q  c #d9d9cc",
"!  c #dfdfc8",
"~  c #e0e0c8",
"^  c #e1e1c9",
"/  c #e1e1ca",
"(  c #e2e2ca",
")  c #e3e3cb",
"_  c #e4e4cc",
"`  c #e5e5cd",
"'  c #e6e6ce",
"]  c #e7e7cf",
"[  c #e3e3dc",
"{  c #e8e8d0",
"}  c #e9e9d0",
"|  c #e9e9d1",
" . c #eaead1",
".. c #eaead2",
"X. c #ebebd2",
"o. c #ebebd3",
"O. c #ececd3",
"+. c #ececd4",
"@. c #ededd4",
"#. c #eeeed5",
"$. c #efefd6",
"%. c #f0f0d7",
"&. c #f1f1d8",
"*. c #f2f2d9",
"=. c #f3f3da",
"-. c #f4f4db",
";. c Beige",
":. c #e7e7e7",
">. c #eeeee5",
",. c #eeeee6",
"<. c #ececec",
"1. c Gray93",
"2. c None",
/* pixels */
"2.2.2.2.2.2.2.2.2.2.2.2.2.2.2.2.2.2.2.2.2.2.2.2.",
"2.2.2.2.2.2.2.2.2.2.2.2.2.2.2.2.2.2.2.2.2.2.2.2.",
"2.2.2.2.2.2.2.2.2.2.2.2.2.  2.2.2.2.2.2.2.2.2.2.",
"2.2.2.2.2.2.2.2.2.2.2.    l   2.2.2.2.2.2.2.2.2.",
"2.2.2.2.2.2.2.2.2.    9 T ! X 2.2.2.2.2.2.  2.2.",
"2.2.2.2.2.2.2.    g H L T T /   2.2.2.2.  3   2.",
"2.2.2.2.2.    g G H H L U s / z   2.2.  3 :   2.",
"2.2.2.2.  ; * G G G H u k / ` | O 2.  3 :   2.2.",
"2.2.2.2.  :.O c S 5 u T / ` s +.+.  3 :   2.2.2.",
"2.2.2.2.  1.1.+ 1 G U / ` q | +.  3 :   2.2.2.2.",
"2.2.2.2.  >.>.@ 4 Z / q q +.+.  3 :   2.2.2.2.2.",
"2.2.2.2.  >.& 5 Z T 9 ` O.+.  3 :   ;.  2.2.2.2.",
"2.2.2.2.    9 S T 9 / | +.  3 :   ;.;.[   2.2.2.",
"2.2.2.2.  = L 5 9 / ` |   3 :   ;.Q n x p   2.2.",
"2.2.2.2.  r U T ! ` ` > #     B u u u u <   2.2.",
"2.2.2.2.2.  T / / ` | .   q u u u u u     2.2.2.",
"2.2.2.2.2.  b ` ` u 2 - m m m B ;.L   2.2.2.2.2.",
"2.2.2.2.2.2.% | s | +.+.=.-.-.=.<   2.2.2.2.2.2.",
"2.2.2.2.2.2.  | +.+.+.=.=.=.L   2.2.2.2.2.2.2.2.",
"2.2.2.2.2.2.2.  +.%.=.=.| g   2.2.2.2.2.2.2.2.2.",
"2.2.2.2.2.2.2.  v =.=.V $   2.2.2.2.2.2.2.2.2.2.",
"2.2.2.2.2.2.2.2.  =.g   2.2.2.2.2.2.2.2.2.2.2.2.",
"2.2.2.2.2.2.2.2.2.    2.2.2.2.2.2.2.2.2.2.2.2.2.",
"2.2.2.2.2.2.2.2.2.2.2.2.2.2.2.2.2.2.2.2.2.2.2.2."
};
