/* XPM */
static char *stock_add_xpm[] = {
/* columns rows colors chars-per-pixel */
"24 24 29 1",
"  c Gray0",
". c #41413f",
"X c #484844",
"o c #4b4b48",
"O c #5a5a54",
"+ c #5b5b56",
"@ c #5f5f59",
"# c #686754",
"$ c #6e6a5e",
"% c #6f6b5f",
"& c #6d6d66",
"* c #706c60",
"= c #7f7c71",
"- c #84847c",
"; c #8d897f",
": c #949480",
"> c #969289",
", c #a19d90",
"< c #a7a296",
"1 c #aaa597",
"2 c #ada798",
"3 c #b3b090",
"4 c #bab696",
"5 c #bab3a8",
"6 c #cec7b9",
"7 c #dedabe",
"8 c #d4ccc0",
"9 c #e0dcc0",
"0 c None",
/* pixels */
"000000000000000000000000",
"000000000000000000000000",
"00000000000   0000000000",
"00000000000   0000000000",
"00000000000   0000000000",
"00000000000   0000000000",
"00000000000   0000000000",
"00000000         0000000",
"00000000        00000000",
"00000   00         00000",
"000  00   *   9   0  000",
"000 0  **%%% 97799   000",
"000 0 2 #***:9994.@  000",
"000 0 88< #*:93X@--  000",
"000 0 8888, *o@----  000",
"000 0 888886 ------  000",
"000 0 888888 ------  000",
"000 0 888888 ------  000",
"000 0 >58888 -----&  000",
"000000  1888 ----O   000",
"0000000  =58 --O    0000",
"000000000  ; O    000000",
"00000000000     00000000",
"000000000000000000000000"
};
