/* XPM */
static char* AddressBookXPM[] =
{
/* width height ncolors chars_per_pixel */
"32 32 118 2",
/* colors */
"   c None",
"AA c #FFFFFFFFFFFF",
"BA c #333333333333",
"CA c #D6D6D6D6D6D6",
"DA c #737373737373",
"EA c #00009191C1C1",
"FA c #1A1A65657F7F",
"GA c #7272B6B6CECE",
"HA c #54547D7D8B8B",
"IA c #32325E5E6D6D",
"JA c #EFEFF9F9FCFC",
"KA c #3030ACACD6D6",
"LA c #7070C6C6E2E2",
"MA c #8D8D92929494",
"NA c #00008989B6B6",
"OA c #DFDFF2F2F9F9",
"PA c #383847474C4C",
"AB c #666666666666",
"BB c #B0B0DFDFEFEF",
"CB c #CCCCCCCCCCCC",
"DB c #5A5A5A5A5A5A",
"EB c #0A0A8585AEAE",
"FB c #BCBCBCBCBCBC",
"GB c #707081818787",
"HB c #A4A4A4A4A4A4",
"IB c #49495A5A5F5F",
"JB c #B5B5B5B5B5B5",
"KB c #44448A8AA1A1",
"LB c #525252525252",
"MB c #31318888A6A6",
"NB c #10109F9FCFCF",
"OB c #5050B9B9DCDC",
"PB c #35353F3F4343",
"AC c #9090D3D3E9E9",
"BC c #30308787A3A3",
"CC c #F7F7F7F7F7F7",
"DC c #E7E7E7E7E7E7",
"EC c #33334C4C5555",
"FC c #0B0B75759898",
"GC c #5E5E62626464",
"HC c #242463637777",
"IC c #00009999CCCC",
"JC c #8282A3A3ADAD",
"KC c #86868C8C8E8E",
"LC c #C6C6E1E1EAEA",
"MC c #11118989B0B0",
"NC c #6A6A75757878",
"OC c #44444F4F5353",
"PC c #4C4C6C6C7777",
"AD c #4F4F82829393",
"BD c #4040B3B3D9D9",
"CD c #141468688484",
"DD c #999999999999",
"ED c #7B7B7B7B7B7B",
"FD c #8080CCCCE6E6",
"GD c #EFEFEFEFEFEF",
"HD c #DEDEDEDEDEDE",
"ID c #101079799C9C",
"JD c #AEAEAEAEAEAE",
"KD c #5B5B67676B6B",
"LD c #6060BFBFDFDF",
"MD c #333352525D5D",
"ND c #00008D8DBCBC",
"OD c #3A3A3A3A3A3A",
"PD c #6A6A8D8D9999",
"AE c #424257575E5E",
"BE c #424242424242",
"CE c #9F9FD9D9ECEC",
"DE c #848484848484",
"EE c #C5C5C5C5C5C5",
"FE c #2020A6A6D2D2",
"GE c #4747A3A3C2C2",
"HE c #CCCCE7E7F1F1",
"IE c #C0C0E6E6F2F2",
"JE c #66666F6F7272",
"KE c #313167677979",
"LE c #4A4A4A4A4A4A",
"ME c #22226A6A8282",
"NE c #9A9AA0A0A2A2",
"OE c #AAAAD7D7E7E7",
"PE c #555557575858",
"AF c #535363636969",
"BF c #06068E8EBBBB",
"CF c #8C8C8C8C8C8C",
"DF c #8B8BCCCCE2E2",
"EF c #00009494C5C5",
"FF c #2A2A62627474",
"GF c #0E0E8F8FBBBB",
"HF c #8686C5C5D9D9",
"IF c #3C3C81819797",
"JF c #5D5D6F6F7575",
"KF c #3D3D4A4A4F4F",
"LF c #5A5A7A7A8585",
"MF c #D0D0ECECF6F6",
"NF c #474785859999",
"OF c #67677F7F8787",
"PF c #131373739494",
"AG c #3D3D61616D6D",
"BG c #4B4B53535656",
"CG c #6E6E6E6E6E6E",
"DG c #373755555F5F",
"EG c #545460606464",
"FG c #7E7EB4B4C7C7",
"GG c #15156F6F8C8C",
"HG c #8F8FD2D2E9E9",
"IG c #7A7A82828585",
"JG c #3F3F5A5A6262",
"KG c #9E9EA4A4A5A5",
"LG c #42424A4A4D4D",
"MG c #222266667D7D",
"NG c #3C3C50505656",
"OG c #5E5E70707676",
"PG c #85858E8E9191",
"AH c #1F1F6F6F8989",
"BH c #7D7DC8C8E1E1",
"CH c #323255556060",
"DH c #666670707373",
"EH c #52526B6B6B6B",
/* pixels */
"          LDOBCEJA                            HDJDDAODJB        ",
"          KAICICICOBCEJ                ADCHBPEPECFEECBDEMACC    ",
"          ICICICICICICICOBHGO      ACAEDDBCFCAAAAAAAAAGDDEDECC  ",
"        IEICICICICICICICICICICKAFGIGIGJBCCAAAAAAAAAAAAAAAACFCF  ",
"        FDICICICICICICICICICBFHCAFJDGDAAAAAAAAAAAAAAAAAACBBELEDC",
"        OBICICICICICICICICFAKFKGCCAAAAAAAACCCCAAAAAADCNECGABDEED",
"        FEICICICICICICEBMDNCCCAAAAAACBIGIBIBNCCBJBDEPEPEPECBDCPE",
"      OAICICICICICICIDPCFBCCAAAACANCJGPFEAICAHPAPAPABGNEAAAAHBCG",
"      BBICICICICICHCEGHDAAAAGDDENGIDICICICICICNGMAHDAAAAHDKCCGCC",
"      FDICICICBFIANCAAAAAAEEBEAHICICICICICICEFIDLGJBJBKCEHADGD  ",
"      BDICICBFKEDDCCAAGDMAAGEBICICICEFEFEFNDNDNDFCPCEGBGBCDF    ",
"      ICICEFECNEAAAACCNCKEBFEFEFEFNDNDNAMBADOGPEBALEABBAMCLC    ",
"    MFICEACHKGAAAAAAMAFFNDNDNAMCNFLFEGBABEDBDEEECCAADBBEKBGDCC  ",
"    CEICHCPGAAAAAACCOCIFHAKDLEODLBDAHBHDCCAAAAAAAAEDMAGCOFDCCC  ",
"    LAIDDHCCAAAAAAAALBBECGDDCBCCAAAAAAAAAAAAAAAAFBABAAMAGCDCCC  ",
"    KAIDGBAAAAAAAACBODABAAAAAAAAAAAAAAAAAAAAAAHDDACAAACBBEDCCC  ",
"    ICEBEHAAAAAACAPELBLBFBAAAAAAAAAAAAAAAAAAAAEDHBAAAAGDODCBGD  ",
"  IEICEFJGHDAAEEIBODJDJDBENEAAAAAAAAAAAAAAAAJDDACCAAAAAALBJDGDCC",
"  ACICICMGEDKDPBAEJBAAMADDDEDBCBAAAAAAAAAAHDODCCAAAAAAAACGDEDCCC",
"  OBICICBFDGLGIGHDAAFBLBAAAACBEDDEHDAAAACCEDFBCBCBAAAAAANEABDCCC",
"  FEICICICGGJEDCCADELEHDAAAAAACCHBABHBCCNEDEAACBDAJDAAAACBBADCCC",
"JAICICICICICMEAEJGCDLEEEAAAAAAAAAAGDEDPECGDCAAAADCDBNEAACCODEEGD",
"BBICICICICICICICEFNDKDDEAAAAAAABCCAAAACAHDAAAAAAAAGDCFDEGDLBHBGD",
"FDICICICICICICICICNDHAGCAAAANEDEAAAAAAAAAAAAAAAAAAAACCDDDADAEDDC",
"BDICICICICICICICICEAIFBEAADCLBGDAAAAAAAAAAAAAAAAAAAAAAAAJBBEDBDC",
"KAICICICICICICICICEANABADCCFHBAAAAAAAAAAAAAAAAAAGDFBDEDBBEBAPEGD",
"  OACELDNBICICICICEFNAPEDDCGAAAAAAAAAACCCBDDABLEBALECGDDFBDCGDCC",
"          MFACOBNBEFNDJFCGCBAAHDHBDALEODBAEGLFNFMCGADCDCGDCCCCCC",
"                  HEHFPDBEPEBEBAPEOGADMBNANANDNDEAOECCCC        ",
"                    CCCBCGKCJCGEGFNDNDEAEAEAEAICICJA            ",
"                      CCGDGDGDGDCCHEBHBDICICICICFE              ",
"                                          IEFDBDLD              ",
};
