/* XPM */
/* c:\dev\pixil_icon.xpm */
static char* PixilIconXPM[] =
{
 "32 32 75 2",
 "18 c #006f94",
 "0a c #007298",
 "1a c #007aa2",
 "0q c #007fa9",
 "15 c #0084b0",
 "1g c #0087b4",
 "0m c #0089b7",
 "0v c #008fbe",
 "1r c #0091c2",
 "03 c #0099cc",
 "23 c #068cb9",
 "1o c #0a6a8b",
 "22 c #0a779c",
 "1x c #0a86af",
 "0z c #109fcf",
 "1n c #1286ad",
 "1m c #128eb7",
 "0j c #13627d",
 "14 c #158ab1",
 "16 c #166c89",
 "1u c #196680",
 "1k c #1d586b",
 "0y c #1d6076",
 "0t c #20a6d2",
 "0u c #235363",
 "1j c #264a55",
 "21 c #264d59",
 "1y c #285564",
 "01 c #292929",
 "1w c #2b6679",
 "06 c #2d4046",
 "0b c #2d99bd",
 "11 c #30393d",
 "1f c #30acd6",
 "07 c #317085",
 "0l c #333333",
 "20 c #3a3a3a",
 "1z c #3a7386",
 "0e c #3a7b91",
 "1d c #3ba1c3",
 "10 c #40b3d9",
 "0h c #414141",
 "0n c #46a6c5",
 "12 c #484848",
 "13 c #4f8b9f",
 "1h c #50b9dc",
 "0d c #525252",
 "0x c #5d98ac",
 "08 c #60b5d2",
 "1p c #60bfdf",
 "05 c #6da6ba",
 "17 c #6fc5e2",
 "1v c #70c6e2",
 "0r c #75c0d9",
 "0k c #797979",
 "19 c #7dc6de",
 "0g c #80cce6",
 "1q c #85c0d3",
 "1l c #878787",
 "1i c #8ccce1",
 "1t c #8fd2e9",
 "1c c #90d3e9",
 "0o c #999999",
 "0w c #9acfe1",
 "1s c #9fd9ec",
 "02 c #b0dfef",
 "0i c #bcbcbc",
 "1b c #bfe5f2",
 "0c c #cccccc",
 "0s c #d0ecf6",
 "0f c #dfdfdf",
 "0p c #dff2f9",
 "09 c #eff9fc",
 "1e c #f1f1f1",
 "00 c #ffffff",
 "0d0d0d0d0d0d0d0d0d0d0d0d0d0d0d0d0d0d0d0d0d0d0d0d0d0d0d0d0d120h20",
 "0h0000000000000000000000000000000000000000000000000000000000000l",
 "0100000000000000000009191m0t171b00000000000000000000000000000001",
 "01000000000000000s1d1a180q0303030z1p1s09000000000000000000000001",
 "0100000000001i140a1818181g03030303030303101t0p000000000000000001",
 "01000000000s0a18181818181r030303030303030303030t171b000000000001",
 "01000000001i18181818181803030303030303030303030303030z1p1s000001",
 "01000000000n18181818181a030303030303030303030303030303030t000001",
 "010000000014181818181815030303030303030303030303030303031p000001",
 "01000000001a18181818180v030303030303030303030303030303031c000001",
 "010000001b18181818181803030303030303030303030303030303030s000001",
 "010000000r18181818181a030303030303030303030303030303030z00000001",
 "010000001d18181818180q030303030303030303030303030303031h00000001",
 "010000001n18181818180m030303030303030303030303030303030g00000001",
 "010000091a18181818181r030303030303030303030303030303031b00000001",
 "0100001b18181818181803030303030303030303030303030303030000000001",
 "0100000818181818181a03030303030303030303030303030303100000000001",
 "0100000b181818181822230303030303030303030303030303030g0000000001",
 "0100001x1o0j1k1j0l0l110u161x030303030303030303030303020000000001",
 "0100001q131w1j0l0l0l0l0l0l0l110u161x0303030303030303090000000001",
 "010000000000091b050e1y060l0l0l0l0l0l110u161x0303031f000000000001",
 "01000000000000000000000s0w0x1z1z1z1z071u0y210u161x1v000000000001",
 "0100000000000000000000000000000000000000000000000000000000000001",
 "0100000000000f0f0000000f001e1e00000f00000f00000f0000000000000001",
 "01000000000o0l0h0l0c0o0l000c0l000i0l000o0l000o0l0000000000000001",
 "01000000000o0l000h0d0o0l00000d0k200o000o0l000o0l0000000000000001",
 "01000000000o0l0c0l0k0o0l00001e0l2000000o0l000o0l0000000000000001",
 "01000000000o0l0d1l000o0l00000i0l0l00000o0l000o0l0000000000000001",
 "01000000000o0l0000000o0l0000200o0d0k000o0l000o0l0f0f000000000001",
 "01000000000o0l0000000o0l000o0l000f0l0f0o0l000o0l0l0l0o0000000001",
 "0100000000000000000000000000000000000000000000000000000000000001",
 "010l0h120d0d0d0d0d0d0d0d0d0d0d0d0d0d0d0d0d0d0d0d0d0d0d0d0d122001",
};
