/* XPM */
/* c:\dev\Repeat.xpm */
static const char* RepeatXPM[] =
{
 "12 12 2 1",
 "  c None",
 "7 c #808080",
 "     7777   ",
 "   77777777 ",
 "  777    777",
 "  77      77",
 " 77       77",
 "77777     77",
 "7777      77",
 " 77       77",
 "         77 ",
 "  77    777 ",
 "  77777777  ",
 "    7777    ",
};
