/* XPM */
/* c:\dev\box.xpm */
static char* BoxXPM[] =
{
 "12 12 2 1",
 "  c None",
 "0 c #000000",
 "000000000000",
 "0          0",
 "0          0",
 "0          0",
 "0          0",
 "0          0",
 "0          0",
 "0          0",
 "0          0",
 "0          0",
 "0          0",
 "000000000000",
};
