/* XPM */
/* DisabledSave.xpm */
static char* DisabledSaveIconXPM[] =
{
 "15 15 3 1",
 "  c None",
 "8 c #808080",
 "f c #ffffff",
 "88888888888888 ",
 "888ffffffff8f8f",
 "888f       888f",
 "888f       888f",
 "888f       888f",
 "888f       888f",
 "888f       888f",
 "88888888888888f",
 "88888888888888f",
 "88888888888888f",
 "888888888ff888f",
 "888888888f 888f",
 "888888888f 888f",
 " 8888888888888f",
 "  fffffffffffff",
};
