/* XPM */
static char* NotesXPM[] =
{
/* width height ncolors chars_per_pixel */
"32 32 110 2",
/* colors */
"   c None",
"AA c #FFFFFFFFFFFF",
"BA c #242421211E1E",
"CA c #DEDEDEDEDEDE",
"DA c #6F6F6D6D6B6B",
"EA c #00009191C1C1",
"FA c #050575759A9A",
"GA c #BBBBBABAB9B9",
"HA c #5A5A57575555",
"IA c #43439D9DBABA",
"JA c #999999999999",
"KA c #373776768B8B",
"LA c #EFEFF9F9FCFC",
"MA c #8080CCCCE6E6",
"NA c #21214E4E5B5B",
"OA c #C0C0CFCFD5D5",
"PA c #6F6FC4C4DFDF",
"AB c #F7F7F7F7F7F7",
"BB c #ADADDBDBEAEA",
"CB c #838383838383",
"DB c #AEAEAEAEAEAE",
"EB c #5A5A66666A6A",
"FB c #21218888ABAB",
"GB c #C5C5C4C4C4C4",
"HB c #5050B8B8DBDB",
"IB c #2020A6A6D2D2",
"JB c #3A3A3A3A3A3A",
"KB c #E0E0F3F3F9F9",
"LB c #131360607878",
"MB c #5C5C6E6E7474",
"NB c #7B7BA0A0ACAC",
"OB c #00008989B6B6",
"PB c #3030ACACD6D6",
"AC c #51514F4F4C4C",
"BC c #3B3B86869F9F",
"CC c #A5A5A5A5A5A5",
"DC c #00009999CCCC",
"EC c #7F7F8A8A8D8D",
"FC c #31312F2F2C2C",
"GC c #C9C9E6E6EEEE",
"HC c #474746464343",
"IC c #11118989B0B0",
"JC c #4F4F5F5F6363",
"KC c #5E5E82828E8E",
"LC c #9090D3D3E9E9",
"MC c #3C3CA7A7CBCB",
"NC c #767679797A7A",
"OC c #AAAAB3B3B6B6",
"PC c #E6E6E6E6E6E6",
"AD c #6060BFBFDFDF",
"BD c #D6D6D6D6D5D5",
"CD c #3F3FB0B0D6D6",
"DD c #54547D7D8B8B",
"ED c #7E7EB9B9CECE",
"FD c #41413E3E3C3C",
"GD c #C1C1DBDBE3E3",
"HD c #8B8B8B8B8B8B",
"ID c #EFEFEFEFEFEF",
"JD c #59597A7A8585",
"KD c #00008D8DBCBC",
"LD c #2B2B9B9BC1C1",
"MD c #10109F9FCFCF",
"ND c #666666666666",
"OD c #474785859999",
"PD c #5E5E9B9BAFAF",
"AE c #27272A2A2929",
"BE c #262636363A3A",
"CE c #37374F4F5555",
"DE c #525256565757",
"EE c #D0D0ECECF6F6",
"FE c #CCCCCCCCCCCC",
"GE c #31318888A6A6",
"HE c #00009494C5C5",
"IE c #9F9FD9D9ECEC",
"JE c #5F5F5D5D5B5B",
"KE c #4F4F82829393",
"LE c #8585C2C2D7D7",
"ME c #737373737373",
"NE c #7F7F96969D9D",
"OE c #4A4AACACCCCC",
"PE c #BDBDE2E2EEEE",
"AF c #6A6A80808888",
"BF c #B2B2B1B1B0B0",
"CF c #282826262323",
"DF c #5E5E70707676",
"EF c #4E4EB7B7D9D9",
"FF c #535352525151",
"GF c #BDBDBDBDBDBD",
"HF c #3D3D8888A1A1",
"IF c #8C8CCECEE4E4",
"JF c #2E2E2C2C2929",
"KF c #D9D9EBEBF2F2",
"LF c #4A4A4A4A4A4A",
"MF c #333333333333",
"NF c #B5B5B5B5B5B5",
"OF c #A1A1A0A09F9F",
"PF c #414141414242",
"AG c #7B7B7B7B7B7B",
"BG c #57575F5F6262",
"CG c #595959595959",
"DG c #7A7AC3C3DCDC",
"EG c #0E0E8E8EB8B8",
"FG c #4040B3B3D9D9",
"GG c #30308C8CABAB",
"HG c #AFAFDFDFEFEF",
"IG c #CCCCE7E7F1F1",
"JG c #9D9DD5D5E7E7",
"KG c #262623232020",
"LG c #343439393A3A",
"MG c #5C5C75757D7D",
/* pixels */
"          ADHBIELA                              CAJACA          ",
"          PBDCDCDCHBIELA                      IDLFCFHACC        ",
"          DCDCDCDCDCDCDCEFIFKFABABIDIDIDABAB  ACAECBJBFCBF      ",
"        PEDCDCDCDCDCHEHEHEKDKDLDEDOCHDMEFEABDBDACFMENFKGJA      ",
"        MAHEHEHEHEKDKDOBGEKEMBDEJBLFNDMFOAGFMFCAPCJEJFDAAB      ",
"      ABOEKDOBICODJDBGMFFDCGCBGBABAAAAHCKACEGAAAAAJAJEPC        ",
"    ABFEKCEBLFJBACMEBFPCAAAAAAAAAAAAAAJELGOFAAAABDAEGD          ",
"    IDNDFFJABDAAAAAAAAAAAAAAAAAAAAAAAAFFMEAAAACAJCFADCIBADHG    ",
"    IDECMEAAAAAAAAAAAAAAAAAAAAAAAAAAOFACIDAAAABGLBDCDCDCDCIB    ",
"    IDNBACAAAAAAAAAAAAAAAAAAAAAAAAGBLFABAAAACBNAHEDCDCDCDCAD    ",
"    ABIAJBABAAAAAAAAAAAAAAAAIDGBHDHCGBAAAAGABEEADCDCDCDCDCLC    ",
"    ABOBLFFEAAAAAAAAPCNFJANCNDAGJBDBAAAABDFFFAHEDCDCDCDCDCEE    ",
"    GCKDEBHDAACAHDDADAHDBFCAAANDHDAAAAAALFPFOBHEDCDCDCDCMD      ",
"    JGKDDDNDAAIDGFCAAAAAAAAAIDJFGBAAABMENDMFOBHEDCDCDCDCFG      ",
"    PAEAHFLFAAAAAAAAAAAACACCFFJBFDCACCJEAAMFGEEADCDCDCDCMA      ",
"    PBEAOBJBIDAABDDBCBLFJEHDLFGADAFCBACAAAACKEKDHEDCDCDCPE      ",
"    DCHEOBDEGAAACBHDGFIDAAABFCDBJEAGFEAAAAMEMBKDHEDCDCDC        ",
"  PEDCDCKDDFCBAAAAAAAAAAAAOFMFFFMEDABFAAAADBDEOBHEDCDCPB        ",
"  LCDCDCKDKEJEAAAAABFECCCBNDJEJAGFIDAAAAAAPCMFOBEADCDCPA        ",
"  HBDCDCEAGEPFAADBDAAGCCGBIDAAAAAAAAAAABAAAAFDBCEADCDCIE        ",
"  IBDCDCHEOBMFPCABABAAAAAAAAABCANFHDMEAGAAAACGDDKDHEDCKB        ",
"LADCDCDCHEOBBGDBAAAAAACADBCBJEDAHDGAPCAAAAAAHDEBKDHEIB          ",
"HGDCDCDCDCKDMGMEAAABLFJEHDGFPCAAAAAAAAAAAAAAGALFOBHEHB          ",
"MADCDCDCDCKDODFFAAAAABAAAAAAAAAAAAAAAAAAAAAAIDJBICEALC          ",
"FGDCDCDCDCEAFBFDABAAAAAAAAAAAAAAAAAAAAAAAAAAAALFBCEAPE          ",
"PBDCDCDCDCHEOBPFBDAAAAAAAAAAAAAAAAAAAAAAAAAAAANDJDKDAB          ",
"  KBIEADMDHEOBBGJAAAAAAAAAAAAAAAAAAAAAAAIDGBHDHCBGMCAB          ",
"          IGLEAFNDAAAAAAAAAAAAABBDJADAACJBLFEBDDGGDG            ",
"            IDGALFAAABCADBNCFFFDMFBGJDODICOBOBKDEABB            ",
"            ABCAMFJEHCMFCGNCNEPDEGOBKDKDEAHEHEHEHELA            ",
"            ABIDMEMEGACAPCPCIDIDIDGCDGCDDCDCDCDCIB              ",
"              ABIDIDIDABABABAB            PEMAFGAD              ",
};
