/* XPM */
static char *stock_button_no_xpm[] = {
/* columns rows colors chars-per-pixel */
"20 20 187 2",
"   c Gray0",
".  c Gray1",
"X  c #050000",
"o  c #060101",
"O  c #070000",
"+  c #040404",
"@  c #080101",
"#  c #080303",
"$  c #0c0707",
"%  c Gray3",
"&  c Gray4",
"*  c #120b0b",
"=  c #380c07",
"-  c #3d0d08",
";  c #3d130e",
":  c #3d1712",
">  c #4a160f",
",  c #451d16",
"<  c #4b1a14",
"1  c #4a211d",
"2  c #48241f",
"3  c #54241d",
"4  c #4b2722",
"5  c #562621",
"6  c #532c28",
"7  c #592924",
"8  c #5a322f",
"9  c #5c312b",
"0  c #5f342e",
"q  c #5d3732",
"w  c #5b3832",
"e  c #631f16",
"r  c #791f16",
"t  c #722217",
"y  c #782419",
"u  c #7e281d",
"i  c #71332c",
"p  c #7e352b",
"a  c #7d3d36",
"s  c #73443e",
"d  c #784c47",
"f  c #802317",
"g  c #802519",
"h  c #802b1f",
"j  c #882419",
"k  c #8a2619",
"l  c #8b271a",
"z  c #882b1f",
"x  c #8a281d",
"c  c #8b281e",
"v  c #8a2c1f",
"b  c #8c291b",
"n  c #8f2b1e",
"m  c #90291b",
"M  c #912a1c",
"N  c #932c1e",
"B  c #822a21",
"V  c #882d21",
"C  c #882f23",
"Z  c #8b2e22",
"A  c #863027",
"S  c #82372f",
"D  c #853128",
"F  c #883125",
"G  c #8f3124",
"H  c #8a362b",
"J  c #88382d",
"K  c #8e3a2f",
"L  c #803a31",
"P  c #803b31",
"I  c #823a31",
"U  c #853a30",
"Y  c #873e34",
"T  c #8e3c31",
"R  c #952d22",
"E  c #962f21",
"W  c #943327",
"Q  c #973124",
"!  c #963427",
"~  c #92372b",
"^  c #93382c",
"/  c #9a3325",
"(  c #9b3628",
")  c #9b3b2e",
"_  c #9e3b2d",
"`  c #9b3d34",
"'  c #9e3d33",
"]  c #83423a",
"[  c #87473e",
"{  c #8e4137",
"}  c #88443b",
"|  c #8d443a",
" . c #8e473d",
".. c #904339",
"X. c #91443a",
"o. c #90453d",
"O. c #984037",
"+. c #9b4034",
"@. c #9a4037",
"#. c #9b493e",
"$. c #a44539",
"%. c #a04a3f",
"&. c #804c47",
"*. c #874a42",
"=. c #80524d",
"-. c #8e5f59",
";. c #924b41",
":. c #934a40",
">. c #915148",
",. c #92524b",
"<. c #9c5147",
"1. c #9d544c",
"2. c #915a54",
"3. c #9b615a",
"4. c #9c615b",
"5. c #966761",
"6. c #9d6760",
"7. c #9a6b65",
"8. c #9b6b64",
"9. c #a04e43",
"0. c #a74e42",
"q. c #a45045",
"w. c #a7564e",
"e. c #a95146",
"r. c #a85347",
"t. c #ab5246",
"y. c #a95348",
"u. c #a8564b",
"i. c #a95e54",
"p. c #a66057",
"a. c #ad6056",
"s. c #ab6258",
"d. c #ac665f",
"f. c #b1645a",
"g. c #b5645c",
"h. c #a06a63",
"j. c #a26961",
"k. c #a1716c",
"l. c #a2736f",
"z. c #a27771",
"x. c #a57872",
"c. c #a97a74",
"v. c #a87d77",
"b. c #b86b63",
"n. c #b67067",
"m. c #b57168",
"M. c #b6756d",
"N. c #b9756c",
"B. c #bc7369",
"V. c #bc776d",
"C. c #b97970",
"Z. c #bb7972",
"A. c #bb7c76",
"S. c #bc7971",
"D. c #bf7d74",
"F. c #bf8078",
"G. c #c2837b",
"H. c #c4847d",
"J. c #c68a83",
"K. c #c68d87",
"L. c #c78e86",
"P. c #c9908a",
"I. c #ca9089",
"U. c #ca928b",
"Y. c #c9958e",
"T. c #cb9790",
"R. c #cd9892",
"E. c #cf9e98",
"W. c #d0a099",
"Q. c #d1a29c",
"!. c #d1a29e",
"~. c #d5a9a4",
"^. c #d5aaa6",
"/. c #d6aba5",
"(. c #d9b3ae",
"). c #dab3af",
"_. c #dab4b1",
"`. c #dbb6b2",
"'. c #dfbcb8",
"]. c #dfbfbc",
"[. c #e2c4c1",
"{. c #e2c7c3",
"}. c #e5cbc8",
"|. c #ecd9d7",
" X c #efe2e0",
".X c Gray100",
"XX c None",
/* pixels */
"XXXXXXXXXXXXXXXXXXXXXXXXXXXXXXXXXXXXXXXX",
"XXXXXXXXXXXX.X          XXXXXXXXXXXXXXXX",
"XXXXXXXX.X  $ 7 } 9.p < O   XXXXXXXXXXXX",
"XXXXXX.X& q M.D.N.a.q.@.J ;   XXXXXXXXXX",
"XXXXXX& d I.!.W.K.n.u.@.K D >   XXXXXXXX",
"XXXX+ w I.(.]._.R.S.e.@.~ F h =   XXXXXX",
"XXXX* C./.{.|.{.!.V.e.) W Z u t O XXXXXX",
"XX  0 J.(.}. X}.E.B.0.( R c g r -   XXXX",
"XX  >.K./._.'./.H.g.$./ N b f y e   XXXX",
"XX  i.F.Y.T.I.G.b.e._ R M l B Y ]   XXXX",
"XX  [ m.A.C.n.f.y.' W m l c  .4.&.  XXXX",
"XX  5 p.d.s.w.%.` ! n l v { 6.x.8   XXXX",
"XXXX@ :.1.<.#.@.^ G c Z X.3.v.7.@ XXXXXX",
"XXXX  , | o...T H C A :.j.c.l.4   XXXXXX",
"XXXXXX  3 L L L S U >.j.v.l.9   XXXXXXXX",
"XXXXXXXX  : i a *.2.7.z.5.2   XXXXXXXXXX",
"XXXXXXXXXX  O 1 s -.=.6 @   XXXXXXXXXXXX",
"XXXXXXXXXXXXXX          XXXXXXXXXXXXXXXX",
"XXXXXXXXXXXXXXXXXXXXXXXXXXXXXXXXXXXXXXXX",
"XXXXXXXXXXXXXXXXXXXXXXXXXXXXXXXXXXXXXXXX"
};
