/* XPM */
static char *stock_search_replace_xpm[] = {
/* columns rows colors chars-per-pixel */
"24 24 126 2",
"   c Gray0",
".  c #060605",
"X  c #080807",
"o  c Gray3",
"O  c #090908",
"+  c #33332d",
"@  c #33332e",
"#  c #34342f",
"$  c #343434",
"%  c #373736",
"&  c #3d3d37",
"*  c #3c3c3c",
"=  c #45453e",
"-  c #46463e",
";  c #46463f",
":  c #756020",
">  c Gray25",
",  c #4a4a42",
"<  c #4b4b43",
"1  c #4b4b44",
"2  c #4d4d45",
"3  c #4e4e4e",
"4  c #505050",
"5  c #646464",
"6  c #6f6f6f",
"7  c #727266",
"8  c #737367",
"9  c #797973",
"0  c #7c7c7c",
"q  c #8e7d45",
"w  c #818174",
"e  c #828274",
"r  c #878779",
"t  c #8c8c7d",
"y  c #8d8d7f",
"u  c #c6b273",
"i  c #d8be6a",
"p  c #8f8f80",
"a  c #909081",
"s  c #929282",
"d  c #929283",
"f  c #959585",
"g  c #959586",
"h  c #969686",
"j  c #9b9b8b",
"k  c #98988f",
"l  c #9c9c8c",
"z  c #9d9d8d",
"x  c #9f9f8e",
"c  c #a0a090",
"v  c #a5a594",
"b  c #a6a694",
"n  c #a6a695",
"m  c #a6a696",
"M  c #a7a796",
"N  c #aaaa98",
"B  c #adad9b",
"V  c #adad9c",
"C  c #b0b09d",
"Z  c #b2b29f",
"A  c #b4b4a0",
"S  c #b5b5a2",
"D  c #b7b7a4",
"F  c #b8b8a6",
"G  c #babaa7",
"H  c #bbbba8",
"J  c #bebeaa",
"K  c #bebeab",
"L  c #bebeae",
"P  c #c0c0ac",
"I  c #c1c1ad",
"U  c #c3c3ae",
"Y  c #c3c3af",
"T  c #c4c4af",
"R  c #cacab5",
"E  c #ceceb7",
"W  c #cdcdb8",
"Q  c #cfcfb9",
"!  c #d0d0b9",
"~  c #d1d1b9",
"^  c #d2d2bc",
"/  c #d3d3bc",
"(  c #d5d5bd",
")  c #d5d5bf",
"_  c #d6d6bf",
"`  c #d7d7c0",
"'  c #d7d7c1",
"]  c #d8d8c1",
"[  c #d8d8c2",
"{  c #d9d9c2",
"}  c #d9d9c3",
"|  c #dadac3",
" . c #dbdbc4",
".. c #dcdcc4",
"X. c #dcdcc5",
"o. c #ddddc6",
"O. c #dfdfc7",
"+. c #dfdfc8",
"@. c #ddddd0",
"#. c #e0e0c8",
"$. c #e2e2ca",
"%. c #e5e5cd",
"&. c #e6e6ce",
"*. c #e2e2d0",
"=. c #e8e8d0",
"-. c #e9e9d1",
";. c #eaead2",
":. c #ebebd3",
">. c #ececd4",
",. c #ededd4",
"<. c #eeeed5",
"1. c #efefd6",
"2. c #f0f0d7",
"3. c #f1f1d8",
"4. c #f2f2d9",
"5. c #f3f3da",
"6. c #f4f4db",
"7. c Beige",
"8. c #e7e7e7",
"9. c #edede5",
"0. c #eeeee5",
"q. c #eeeee6",
"w. c #ececec",
"e. c Gray93",
"r. c #fbfbfa",
"t. c None",
/* pixels */
"t.t.t.t.t.t.t.t.t.t.t.t.t.t.t.t.t.t.t.t.t.t.t.t.",
"t.t.t.t.t.t.t.t.t.t.t.t.t.t.t.t.    t.t.t.t.t.t.",
"t.t.t.t.t.t.t.t.t.t.t.t.t.t.t.  i q   t.t.t.t.t.",
"t.t.t.t.t.t.t.t.t.t.t.  t.t.  i q   t.t.t.t.t.t.",
"t.t.t.t.t.t.t.t.t.    V     i q   t.t.t.t.t.t.t.",
"t.t.t.t.t.t.t.    f ..+.  i q   t.t.t.t.t.t.t.t.",
"t.t.t.t.t.    b ' } ..  i q   t.t.t.t.t.t.t.t.t.",
"t.t.t.    b _ ' ' }   i q     t.t.t.t.t.t.t.t.t.",
"t.t.  0 5 _ _ _ ' u :     =.$ t.t.t.t.t.t.t.t.t.",
"t.t.  8.$ F ^ ' } .   &.=.>.>.  t.t.t.t.t.t.t.t.",
"t.t.  e.e.& E _  .#.&.=.=.>.3.b   t.t.t.t.t.t.t.",
"t.t.  9.9.* p ~ A - O O < I 3.3.  t.t.t.t.t.t.t.",
"t.t.  9.4 s ~ Z + z Q T y # I 6.7.  t.t.t.t.t.t.",
"t.t.    f ^  .- z *.9.I Z e < 7.7.J   t.t.t.t.t.",
"t.t.  9 } } ..X _ r.I A b f O 7.7.7.}   t.t.t.t.",
"t.t.  k  ...+.O R @.D N j y O 7.7.7.e   t.t.t.t.",
"t.t.t.  ..#.#.- s F B z s 7 1 7.7.    t.t.t.t.t.",
"t.t.t.  L &.&.F + r c s 7     }   t.t.t.t.t.t.t.",
"t.t.t.t.3 =.=.=.J < O O > 6     t.t.t.t.t.t.t.t.",
"t.t.t.t.  =.>.>.>.3.3.3.}         t.t.t.t.t.t.t.",
"t.t.t.t.t.  2.2.3.3.=.b   t.t.      t.t.t.t.t.t.",
"t.t.t.t.t.  H 3.3.Q 2   t.t.t.t.      t.t.t.t.t.",
"t.t.t.t.t.t.  3.b   t.t.t.t.t.t.t.    t.t.t.t.t.",
"t.t.t.t.t.t.t.    t.t.t.t.t.t.t.t.t.t.t.t.t.t.t."
};
