/* XPM */
static char *stock_exec_xpm[] = {
/* columns rows colors chars-per-pixel */
"24 24 81 1",
"  c Gray0",
". c #7a7356",
"X c #7c7557",
"o c #7c7657",
"O c #80785a",
"+ c #827c5b",
"@ c #837c5c",
"# c #8a8261",
"$ c #ada57b",
"% c #afa67b",
"& c #afa77c",
"* c #b0a77c",
"= c #b1a87d",
"- c #b2a97d",
"; c #b2a97e",
": c #b3aa7e",
"> c #b4ac80",
", c #b5ac80",
"< c #b6ad80",
"1 c #b6ad81",
"2 c #b7ae81",
"3 c #b9b082",
"4 c #b9b083",
"5 c #b9b183",
"6 c #bab183",
"7 c #bab184",
"8 c #bbb284",
"9 c #bbb285",
"0 c #bcb385",
"q c #bdb486",
"w c #beb486",
"e c #beb586",
"r c #bfb687",
"t c #c0b687",
"y c #c0b787",
"u c #c0b788",
"i c #c1b788",
"p c #c1b888",
"a c #c1b889",
"s c #c2b889",
"d c #c2b989",
"f c #c2b98a",
"g c #c3ba8a",
"h c #c4ba8a",
"j c #c4bb8b",
"k c #c5bb8b",
"l c #c5bc8b",
"z c #c5bc8c",
"x c #c6bc8c",
"c c #c7bd8c",
"v c #c7bd8d",
"b c #c7be8d",
"n c #c8be8d",
"m c #c8bf8d",
"M c #c8bf8e",
"N c #c9bf8e",
"B c #c9c08f",
"V c #cac08f",
"C c #cac18f",
"Z c #cbc18f",
"A c #ccc290",
"S c #cdc391",
"D c #cdc491",
"F c #cec491",
"G c #cec592",
"H c #cfc592",
"J c #cfc693",
"K c #d0c693",
"L c #d0c793",
"P c #d1c793",
"I c #d1c794",
"U c #d2c894",
"Y c #d2c995",
"T c #d3c995",
"R c #d4ca96",
"E c #d5cb97",
"W c #d6cc97",
"Q c #d6cc98",
"! c #d7cd98",
"~ c #d8ce99",
"^ c None",
/* pixels */
"^^^^^^^^^^^^^^^^^^^^^^^^",
"^^^^^^^^^^^^^^^^^^^^^^^^",
"^^^^^^^^^^^^^^^^^^^^^^^^",
"^^^^^^    ^^^^^^^^^^^^^^",
"^^^^~ ; 2. ~^^^^^^^^^^^^",
"^^^^ *2772$ ^^^^^^^^^^^^",
"^^^^  2q@*  ^^^^^^^^^^^^",
"^^^^ $2Xtq2 ^^   ^^^^^^^",
"^^^^  ;6qu  ^ $&; ^ ^^^^",
"^^^^^ . 6. 6  770  2 ^^^",
"^^^^^^ ^  qjbbbMMMlu6 ^^",
"^^^^^^^^^^ MSKITTIDM ^^^",
"^^^^^^^^^ aVIEWQQWTD  ^^",
"^^^^^^^^ 6aVIWa#bQEKMt ^",
"^^^^^^^^ 7aVIEO6+QEDbq ^",
"^^^^^^^^ 0aVKEKXVTTSj7 ^",
"^^^^^^^^^  MDTTDKTDM  ^^",
"^^^^^^^^^^ bVDDKDSMa ^^^",
"^^^^^^^^^ qabMVMbju0; ^^",
"^^^^^^^^^^ q  aaq  : ^^^",
"^^^^^^^^^^^ ^ 762 ^ ^^^^",
"^^^^^^^^^^^^^^   ^^^^^^^",
"^^^^^^^^^^^^^^^^^^^^^^^^",
"^^^^^^^^^^^^^^^^^^^^^^^^"
};
