/* XPM */
static char *stock_print_xpm[] = {
/* columns rows colors chars-per-pixel */
"24 24 153 2",
"   c Gray0",
".  c #060606",
"X  c Gray15",
"o  c #272727",
"O  c #2d2d2d",
"+  c Gray18",
"@  c #2f2f2f",
"#  c #313131",
"$  c Gray20",
"%  c #343434",
"&  c #353535",
"*  c Gray21",
"=  c #373737",
"-  c Gray22",
";  c #393939",
":  c #3a3a3a",
">  c Gray23",
",  c #3c3c3c",
"<  c #3e3e3e",
"1  c #3f3f3f",
"2  c #403f3f",
"3  c Gray25",
"4  c #414141",
"5  c Gray26",
"6  c #444443",
"7  c Gray27",
"8  c #464646",
"9  c Gray28",
"0  c #484848",
"q  c #494949",
"w  c Gray29",
"e  c #4b4b4b",
"r  c Gray30",
"t  c #4e4e4e",
"y  c Gray31",
"u  c #504f4c",
"i  c #505050",
"p  c Gray33",
"a  c #555555",
"s  c #585858",
"d  c #5b5b5b",
"f  c #5f5e5c",
"g  c Gray37",
"h  c #606060",
"j  c Gray38",
"k  c Gray39",
"l  c #646260",
"z  c #646360",
"x  c #646464",
"c  c Gray40",
"v  c #676767",
"b  c Gray41",
"n  c Gray43",
"m  c #6f6f6f",
"M  c Gray44",
"N  c #717171",
"B  c #727272",
"V  c #7b7b7b",
"C  c #7d7d7b",
"Z  c Gray50",
"A  c #848381",
"S  c #868686",
"D  c #8d8d8d",
"F  c #929290",
"G  c #959595",
"H  c Gray60",
"J  c #9a9a98",
"K  c Gray62",
"L  c #a5a29e",
"P  c #a0a0a0",
"I  c Gray63",
"U  c #a2a2a2",
"Y  c Gray64",
"T  c #a5a5a5",
"R  c Gray65",
"E  c #a7a7a7",
"W  c Gray66",
"Q  c #a9a9a9",
"!  c #aaaaaa",
"~  c Gray67",
"^  c #acacac",
"/  c Gray68",
"(  c #afafaf",
")  c #b1b1b1",
"_  c #b2b2b2",
"`  c Gray70",
"'  c #b5b3b0",
"]  c #b5b3b2",
"[  c #b4b4b4",
"{  c #b6b6b6",
"}  c #b7b7b7",
"|  c #bbbbbb",
" . c #bcbcbb",
".. c #c3c3c3",
"X. c #c5c5c3",
"o. c #c6c6c6",
"O. c #cbc9c7",
"+. c #cdcbc6",
"@. c Gray79",
"#. c #cbcbcb",
"$. c #cecece",
"%. c #d2d2d2",
"&. c #d5d5d5",
"*. c Gray86",
"=. c #dddcd9",
"-. c #deddd8",
";. c #dfded9",
":. c #e2e0dc",
">. c #e3e1dd",
",. c #e3e2de",
"<. c #e4e3df",
"1. c Gray88",
"2. c #e1e1e1",
"3. c #e2e2e2",
"4. c #e5e4e0",
"5. c #e6e5e1",
"6. c #e7e6e2",
"7. c Gray90",
"8. c #e8e7e3",
"9. c #e9e8e5",
"0. c #eae9e6",
"q. c #eae9e7",
"w. c Gray91",
"e. c #e9e9e9",
"r. c #ebeae8",
"t. c #eaeaea",
"y. c Gray92",
"u. c #ecebe9",
"i. c #edecea",
"p. c #eeedeb",
"a. c Gray93",
"s. c #efeeec",
"d. c #eeeeee",
"f. c #efefef",
"g. c #f0efed",
"h. c #f1f0ee",
"j. c #f1f1ef",
"k. c Gray94",
"l. c #f2f2f0",
"z. c #f3f3f1",
"x. c Gray95",
"c. c #f3f3f3",
"v. c #f4f4f2",
"b. c #f5f4f3",
"n. c #f4f4f4",
"m. c #f6f5f4",
"M. c #f7f6f5",
"N. c #f6f6f6",
"B. c #f7f7f6",
"V. c #f8f7f6",
"C. c #fafaf9",
"Z. c Gray98",
"A. c None",
/* pixels */
"A.A.A.A.A.A.A.A.A.A.A.A.A.A.A.A.A.A.A.A.A.A.A.A.",
"A.A.A.A.A.A.A.A.A.A.A.A.A.A.A.A.A.A.A.A.A.A.A.A.",
"A.A.A.A.A.A.A.A.A.A.A.A.A.A.A.A.A.A.A.A.A.A.A.A.",
"A.A.A.A.A.A.A.A.A.A.A.A.    A.A.A.A.A.A.A.A.A.A.",
"A.A.A.A.A.A.A.A.A.A.A.  B.@.p     A.A.A.A.A.A.A.",
"A.A.A.A.A.A.A.A.A.A.  C.V.b.l.h.X.8       A.A.A.",
"A.A.A.A.A.A.A.A.A.  o.B.b.h.s.u.9.6.<.L   A.A.A.",
"A.A.A.A.A.A.A.A.A.O B.l.h.p.r.9.6.:.O.  A.A.A.A.",
"A.A.A.A.A.A.A.  . R l.g.p.9.8.6.:.-.d A.A.A.A.A.",
"A.A.A.A.A.    $.{ J C r.9.6.<.:.-. .    A.A.A.A.",
"A.A.A.    @.r.s.r.2.] f f A ] -.+.2 f m     A.A.",
"A.A.  D } r.C.B.B.l.l.s.s.F l u l 5 c e O   A.A.",
"A.A.  / Q Q | 2.c.s.l.f.r.r.w.r.&.5 X = :   A.A.",
"A.A.  _ _ ( Q Q Q %.7.s.l.r.l.*.8 : < : 5   A.A.",
"A.A.  b P } { _ Q P P J %.1...5 O = < 5 :   A.A.",
"A.A.  c 9 k P / ~ Q R R G V $ X : < < : =   A.A.",
"A.A.  d d e 8 e h S P P K Z = : < # : <     A.A.",
"A.A.A.    r i p r 8 8 r h V : : O = =   A.A.A.A.",
"A.A.A.A.A.      5 d p c N m 5 # =     A.A.A.A.A.",
"A.A.A.A.A.A.A.A.      e N N : <   A.A.A.A.A.A.A.",
"A.A.A.A.A.A.A.A.A.A.A.          A.A.A.A.A.A.A.A.",
"A.A.A.A.A.A.A.A.A.A.A.A.A.A.A.A.A.A.A.A.A.A.A.A.",
"A.A.A.A.A.A.A.A.A.A.A.A.A.A.A.A.A.A.A.A.A.A.A.A.",
"A.A.A.A.A.A.A.A.A.A.A.A.A.A.A.A.A.A.A.A.A.A.A.A."
};
