/* XPM */
static char *stock_trash_full_xpm[] = {
/* columns rows colors chars-per-pixel */
"24 24 106 2",
"   c Gray0",
".  c #020202",
"X  c Gray3",
"o  c #242622",
"O  c #252525",
"+  c #2b2e28",
"@  c #353931",
"#  c #484e43",
"$  c #485245",
"%  c #4d5a4b",
"&  c #4f5c4c",
"*  c #525f4e",
"=  c #525f4f",
"-  c #576452",
";  c #5e6f5a",
":  c #656f5e",
">  c #637354",
",  c #60725c",
"<  c #65785f",
"1  c #6f6f6f",
"2  c #687b63",
"3  c #687d63",
"4  c #489b48",
"5  c #539d53",
"6  c #549d54",
"7  c #5da65d",
"8  c #6e8468",
"9  c #6f8668",
"0  c #728a6d",
"q  c #738b6e",
"w  c #748c6b",
"e  c #788f71",
"r  c #7a9472",
"t  c #7c9674",
"y  c #7d9775",
"u  c #6eab6e",
"i  c #6fac6f",
"p  c #78b578",
"a  c #838a7d",
"s  c #809a78",
"d  c #909f86",
"f  c #929292",
"g  c #959595",
"h  c Gray59",
"j  c #989898",
"k  c #8fa58a",
"l  c #8ab78a",
"z  c #8ab88a",
"x  c #8dba8d",
"c  c #97a38a",
"v  c #96a58d",
"b  c #94aa8d",
"n  c #98a58c",
"m  c #9aa78e",
"M  c #9baa8f",
"N  c #9aad96",
"B  c #9bad96",
"V  c #9eab91",
"C  c #a0ad94",
"Z  c #a0b095",
"A  c #a2b196",
"S  c #a0b29a",
"D  c #a4b398",
"F  c #a7b69b",
"G  c #a8ba9e",
"H  c #afafaf",
"J  c #a6bfa6",
"K  c #b1b1b1",
"L  c Gray72",
"P  c #bbbbbb",
"I  c Gray75",
"U  c #9bc89b",
"Y  c #b0c0ab",
"T  c #b4c1ab",
"R  c #b6c4ad",
"E  c #b7c5b4",
"W  c #b7c6b4",
"Q  c #b2ccb2",
"!  c #bbc4b1",
"~  c #b9c6b4",
"^  c #bec9b5",
"/  c #bfccb7",
"(  c #bad3ba",
")  c #c1c1c1",
"_  c Gray76",
"`  c #c3c3c3",
"'  c #c5c5c5",
"]  c Gray79",
"[  c #ced6c8",
"{  c #d5d5d5",
"}  c #d7ded2",
"|  c #c7e0c7",
" . c #dae1d6",
".. c #e1e7dd",
"X. c #e4e4e4",
"o. c Gray90",
"O. c #e6e6e6",
"+. c #e7e7e7",
"@. c #eaeaea",
"#. c #ececec",
"$. c Gray93",
"%. c Gray94",
"&. c #f4f4f4",
"*. c #f9f9f9",
"=. c Gray100",
"-. c None",
/* pixels */
"-.-.-.-.-.-.-.-.-.-.-.-.-.-.-.-.-.-.-.-.-.-.-.-.",
"-.-.-.-.-.-.-.-.-.-.-.-.-.-.-.-.-.-.-.-.-.-.-.-.",
"-.-.-.-.-.-.-.-.-.-.-.-.-.-.-.-.X -.-.-.-.-.-.-.",
"-.-.-.-.                -.-.-.X X -.-.-.-.-.-.-.",
"-.-.O   G T ..a d # C V     -.-.-.-.-.-.-.-.-.-.",
"-.  R / F ^ : + @ o V M m m   -.-.-.-.-.-.-.-.-.",
"-.  v } ^ D A A C V M m m c X -.-.-.-.X -.-.-.-.",
"-.  t Y [  .! C V M m m t X X -.-.-.-.X X -.-.-.",
"-.  > w b k k t t 9     % $   -.  -.-.-.-.-.-.-.",
"-.-.  O 0 2 2 ; -   =.=.    -.  =.  -.-.-.-.-.-.",
"-.-.  3 O O O X O O   =.=.    O.  -.-.-.-.-.-.-.",
"-.-.  3 ~ < X X 0 & 9   ) f $.  -.-.-.-.-.-.-.-.",
"-.-.  3 ~ < N * 0 &   =.=.1 H   X -.-.-.-.-.-.-.",
"-.-.  3 ~ < N * 0   =.=.=.=.O.  X X -.-.-.-.-.-.",
"-.-.  3 E < N * 0   =.=.=.=.O.)   X -.-.-.-.-.-.",
"-.-.  3 E < N *   =.| p U =.O.O.  X -.-.X -.-.-.",
"-.-.  s S < N ,   | 7 | =.7 x O.K   X X X -.-.-.",
"-.-.-.  t r e   *.4 | =.=.p u O.I   X X X X X X ",
"-.-.-.-.        %.=.=.=.=.=.&.5 I j   X X X X -.",
"-.-.-.-.-.-.-.  @.p =.=.| =.( z l h   X X X X -.",
"-.-.-.-.-.-.-.  O.$.i u u 6 Q z ) h   X X X -.-.",
"-.-.-.-.-.-.-.-.    P ' J { ] P h   X X -.-.-.-.",
"-.-.-.-.-.-.-.-.-.-.              -.-.-.-.-.-.-.",
"-.-.-.-.-.-.-.-.-.-.-.-.-.-.-.-.-.-.-.-.-.-.-.-."
};
