/* XPM */
static char *stock_stop_xpm[] = {
/* columns rows colors chars-per-pixel */
"24 24 167 2",
"   c Gray0",
".  c #010000",
"X  c #020000",
"o  c #030000",
"O  c #050001",
"+  c #080102",
"@  c #090303",
"#  c #0b0303",
"$  c #0d0303",
"%  c #0e0203",
"&  c #0c0404",
"*  c #0d0404",
"=  c #0e0505",
"-  c #0f0405",
";  c #0f0504",
":  c #0f0505",
">  c #0f0606",
",  c #110305",
"<  c #130204",
"1  c #100405",
"2  c #120505",
"3  c #130505",
"4  c #120506",
"5  c #130606",
"6  c #140505",
"7  c #150405",
"8  c #170405",
"9  c #120808",
"0  c #120909",
"q  c #130a0a",
"w  c #180707",
"e  c #1a0507",
"r  c #1b0507",
"t  c #1b0607",
"y  c #1d0607",
"u  c #1e0707",
"i  c #1e0708",
"p  c #190e0e",
"a  c #210707",
"s  c #210708",
"d  c #220809",
"f  c #230909",
"g  c #22080a",
"h  c #250909",
"j  c #24090a",
"k  c #250a0a",
"l  c #27090a",
"z  c #270a0b",
"x  c #280b0b",
"c  c #290a0c",
"v  c #2a0b0c",
"b  c #2b0a0c",
"n  c #2c0b0c",
"m  c #2c0b0d",
"M  c #2e0c0d",
"N  c #2f0c0c",
"B  c #310d0d",
"V  c #633e3f",
"C  c #703f40",
"Z  c #654040",
"A  c #774748",
"S  c #734849",
"D  c #7d5e61",
"F  c #824e4f",
"G  c #804f50",
"H  c #8c5a5b",
"J  c #905e5f",
"K  c #9f6767",
"L  c #9f6a6b",
"P  c #957273",
"I  c #9e7070",
"U  c #a16c6e",
"Y  c #a06e6e",
"T  c #a17273",
"R  c #a17477",
"E  c #a57577",
"W  c #ab7475",
"Q  c #ac7d7d",
"!  c #b27c7d",
"~  c #b37d7f",
"^  c #ad8c8d",
"/  c #a39596",
"(  c #a19999",
")  c #b38083",
"_  c #b28487",
"`  c #b68b8f",
"'  c #b88888",
"]  c #b98a8b",
"[  c #b88b8c",
"{  c #b88d8f",
"}  c #ba8d8f",
"|  c #bf8b8c",
" . c #be8c8d",
".. c #b89a9b",
"X. c #b1a4a4",
"o. c #b9a7a7",
"O. c #bfb2b3",
"+. c #c09699",
"@. c #c29698",
"#. c #c59898",
"$. c #c6999a",
"%. c #c69b9c",
"&. c #c69b9e",
"*. c #c69e9f",
"=. c #c79fa0",
"-. c #c6a3a5",
";. c #c3a9a9",
":. c #cba5a6",
">. c #cba5a7",
",. c #cba7a9",
"<. c #cbaaab",
"1. c #ccabad",
"2. c #cdacaf",
"3. c #c9afb0",
"4. c #cbb3b4",
"5. c #cbb6b7",
"6. c #cdb1b1",
"7. c #cfb3b4",
"8. c #ccb9b9",
"9. c #cebbbc",
"0. c #d0b4b6",
"q. c #d6b2b4",
"w. c #dbb3b6",
"e. c #d8b9bb",
"r. c #dab9ba",
"t. c #d9babc",
"y. c #d8bebf",
"u. c #d1c3c4",
"i. c #d6c0c0",
"p. c #ddc3c4",
"a. c #dcc4c4",
"s. c #dcc6c7",
"d. c #dec6c7",
"f. c #ddcccc",
"g. c #ddcccd",
"h. c #dfcdcc",
"j. c #decfcf",
"k. c #ded1d1",
"l. c #dfd1d0",
"z. c #ded1d2",
"x. c #e1c5c6",
"c. c #e0c9ca",
"v. c #e1d0d1",
"b. c #e2d3d3",
"n. c #e6d2d3",
"m. c #e4d7d7",
"M. c #e4dada",
"N. c #e4dbda",
"B. c #e5dbdb",
"V. c #e5dddd",
"C. c #e5dedd",
"Z. c #e6dcdc",
"A. c #e6dedf",
"S. c #eadcdc",
"D. c #ebdcdd",
"F. c #eadede",
"G. c #ebdfdf",
"H. c #ecdfdf",
"J. c #ece1e1",
"K. c #ede1e0",
"L. c #efe0e1",
"P. c #eee4e4",
"I. c #f1e6e6",
"U. c #f3e6e6",
"Y. c #f4ebeb",
"T. c #f5ecec",
"R. c None",
/* pixels */
"R.R.R.R.R.R.R.R.R.R.R.R.R.R.R.R.R.R.R.R.R.R.R.R.",
"R.R.R.R.R.R.R.R.R.R.R.R.R.R.R.R.R.R.R.R.R.R.R.R.",
"R.R.R.R.R.R.R.R.R.R.R.R.R.R.R.R.R.R.R.R.R.R.R.R.",
"R.R.R.R.R.R.R.R.R.R.R.R.R.R.R.R.R.R.R.R.R.R.R.R.",
"R.R.R.R.R.R.R.R.  + % < 6 6 < R.R.R.R.R.R.R.R.R.",
"R.R.R.R.R.R.    X.9.g.g.5...D s j R.R.R.R.R.R.R.",
"R.R.R.R.R.  ( z.U.L.D.D.m.n.x.Q Z N R.R.R.R.R.R.",
"R.R.R.R.R.O z.Y.U.D.B.B.B.b.p.w.U B R.R.R.R.R.R.",
"R.R.R.R.O / T.P.D.9 B.B.C.> 4.e.[ V j R.R.R.R.R.",
"R.R.R.R.O O.U.D.p > q C.> > 5 ;.>.E n R.R.R.R.R.",
"R.R.R.R.% u.L.D.N.9 + + > > o.d.1.` c R.R.R.R.R.",
"R.R.R.R.6 8.L.B.C.C.+ > $ z.g.6.,._ c R.R.R.R.R.",
"R.R.R.R.w 3.H.C.C.$ > > > 5 0.<.@.T c R.R.R.R.R.",
"R.R.R.R.w ^ i.b.> > 5 g.5 w j &.) J c R.R.R.R.R.",
"R.R.R.R.6 P -.e.p.5 d.c.7.g }  .U A g R.R.R.R.R.",
"R.R.R.R.R.y } =.q.y.2.t.>.$.| L G c R.R.R.R.R.R.",
"R.R.R.R.R.i R @.*.&.$.#. .~ W H S y R.R.R.R.R.R.",
"R.R.R.R.R.R.a j I ] ] ~ K F C j y R.R.R.R.R.R.R.",
"R.R.R.R.R.R.R.R.y g x n N N j R.R.R.R.R.R.R.R.R.",
"R.R.R.R.R.R.R.R.R.R.R.R.R.R.R.R.R.R.R.R.R.R.R.R.",
"R.R.R.R.R.R.R.R.R.R.R.R.R.R.R.R.R.R.R.R.R.R.R.R.",
"R.R.R.R.R.R.R.R.R.R.R.R.R.R.R.R.R.R.R.R.R.R.R.R.",
"R.R.R.R.R.R.R.R.R.R.R.R.R.R.R.R.R.R.R.R.R.R.R.R.",
"R.R.R.R.R.R.R.R.R.R.R.R.R.R.R.R.R.R.R.R.R.R.R.R."
};
