/* XPM */
static char *stock_clear_xpm[] = {
/* columns rows colors chars-per-pixel */
"24 24 87 1",
"  c Gray0",
". c #030302",
"X c #060503",
"o c #070504",
"O c #0e0b08",
"+ c #2d231a",
"@ c #34291f",
"# c #2a2d28",
"$ c #2f2f2b",
"% c #362a20",
"& c #3e3c38",
"* c #403226",
"= c #463729",
"- c #654f3c",
"; c #555555",
": c #595855",
"> c #5a6156",
", c #715943",
"< c #725a43",
"1 c #725944",
"2 c #795f48",
"3 c #65614d",
"4 c #676450",
"5 c #6d6f5c",
"6 c #7a6049",
"7 c #7b6049",
"8 c #7c6149",
"9 c #7d624a",
"0 c #75735d",
"q c #7c765e",
"w c #757764",
"e c #7e7c72",
"r c #84795f",
"t c #9d7b5d",
"y c #a17e60",
"u c #80826e",
"i c #85856e",
"p c #898166",
"a c #8d8870",
"s c #8e917b",
"d c #9a8f71",
"f c #95957b",
"g c #9b987c",
"h c #a78363",
"j c #aaa07d",
"k c #b0a27f",
"l c #8b9585",
"z c #919182",
"x c #a09f9c",
"c c #aaaa8d",
"v c #a3a391",
"b c #acac9b",
"n c #b1ad8e",
"m c #bca189",
"M c #bda28a",
"N c #acaba5",
"B c #acb8a4",
"V c #b4b4a1",
"C c #babea4",
"Z c #c6b890",
"A c #cfcaa6",
"S c #cac8b9",
"D c #cbc9ba",
"F c #ccc9ba",
"G c #ccc9bb",
"H c #cdc9bb",
"J c #cdcabb",
"K c #cecabb",
"L c #cfcbbc",
"P c #cfccbd",
"I c #cfcdbd",
"U c #cfcdbe",
"Y c #cfcebe",
"T c #d0cfbe",
"R c #d1cfbe",
"E c #d9c9bb",
"W c #dbd0a7",
"Q c #d1d1bc",
"! c #d4d4be",
"~ c #ebd8a9",
"^ c Gray81",
"/ c #d8d8c2",
"( c #dbdbc4",
") c #dedec7",
"_ c #e4e4cd",
"` c #f2f2d9",
"' c None",
/* pixels */
"''''''''''''''''''''''''",
"''''''''''''''''''''''''",
"'''  '''''''''''''''''''",
"'' 8m ''''''''''''''''''",
"'' mE8 '''''''''''''''''",
"'' 7Em@'''''''''''''''''",
"'''%mE8 ''''''''''''''''",
"''' -mmX''''''''''''''''",
"''''O1m7 '''''''''''''''",
"''''' 2h='''   '''''' ''",
"''''''o,yX'  l> ''''''''",
"'''''''.t* BBBl ''' ''''",
"''''''''+,BBBB r '''' ''",
"'''''''' BBBB ~j ' '''''",
"''''''' BBBB ~~~r '' ' '",
"'''''' BBBB ~~r^A   ''''",
"'''''' lBB ~~~~ Ak  ' ' ",
"'''''' ;l ~~k~~g#ud   ''",
"'''''''  Z~~ZaCci w3   '",
"'''''''' pjWng qi4  ''''",
"''''''''' #0fs5   ''''''",
"'''''''''''    '''''''''",
"''''''''''''''''''''''''",
"''''''''''''''''''''''''"
};
