/* XPM */
static char *stock_button_ok_xpm[] = {
/* columns rows colors chars-per-pixel */
"20 20 47 1",
"  c Gray0",
". c #0e0f0d",
"X c #10120f",
"o c #383c34",
"O c #393e35",
"+ c #3e4339",
"@ c #40453c",
"# c #41473d",
"$ c #42483e",
"% c #4c5247",
"& c #4e5549",
"* c #4f564a",
"= c #51574b",
"- c #52594c",
"; c #555d50",
": c #575e51",
"> c #585f52",
", c #5b6255",
"< c #606859",
"1 c #616a5b",
"2 c #636b5c",
"3 c #687161",
"4 c #6a7363",
"5 c #707a69",
"6 c #727c6a",
"7 c #798371",
"8 c #7b8572",
"9 c #7c8774",
"0 c #7e8875",
"q c #818c79",
"w c #838e7a",
"e c #8a9580",
"r c #8f9b85",
"t c #909c87",
"y c #929e88",
"u c #94a08a",
"i c #95a28b",
"p c #97a48d",
"a c #99a68e",
"s c #9ca992",
"d c #9eab93",
"f c #aab89e",
"g c #adbba1",
"h c #b2c1a6",
"j c #b6c6aa",
"k c #d5e7c7",
"l c None",
/* pixels */
"llllllllllllllllllll",
"lllllllllllXXXXXXXll",
"llllllllll jjjgddiXl",
"llllllllllXjkdiii0Xl",
"llllllllllXjjiiii0Xl",
"llllllllllXjiiiii0Xl",
"llllllXlllXjidiii0Xl",
"lllllX8XllXjiiiii0Xl",
"llllXj2XXXXjiiiw15Xl",
"lllXjf8:::>1237ph>Xl",
"llXjpiiiippppai6$Xll",
"lXjaiiiiiiiiie1#Xlll",
"Xjdpiiiiiiiiw,+Xllll",
"lX*tiiiiiii9:+Xlllll",
"llX*yiiiii9-OXllllll",
"lllX%tr983*OXlllllll",
"llllX=*.XXXXllllllll",
"lllllXOXllllllllllll",
"llllllXlllllllllllll",
"llllllllllllllllllll"
};
