/* XPM */
static char *stock_top_xpm[] = {
/* columns rows colors chars-per-pixel */
"24 24 89 1",
"  c Gray0",
". c #010101",
"X c Gray1",
"o c #040404",
"O c Gray2",
"+ c Gray5",
"@ c #111111",
"# c #131313",
"$ c #607c53",
"% c #678458",
"& c #688559",
"* c #68865a",
"= c #6a875b",
"- c #6c8a5d",
"; c #739165",
": c #739264",
"> c #739365",
", c #749165",
"< c #749465",
"1 c #78946a",
"2 c #7a966c",
"3 c #7e9d6e",
"4 c #7f9c71",
"5 c #7f9d71",
"6 c #809e72",
"7 c #839c77",
"8 c #829e74",
"9 c #83a374",
"0 c #84a275",
"q c #84a676",
"w c #86a777",
"e c #85a278",
"r c #86a578",
"t c #87aa77",
"y c #89a77b",
"u c #88a979",
"i c #89ac79",
"p c #8aad7a",
"a c #8bae7b",
"s c #8cab7f",
"d c #8dac7f",
"f c #8cae7d",
"g c #8ead7f",
"h c #8eaf7f",
"j c #8ca680",
"k c #8fae81",
"l c #8fae82",
"z c #93b085",
"x c #94b187",
"c c #95b288",
"v c #b9beb5",
"b c #bbbfb7",
"n c #bdc1b8",
"m c #bec2bb",
"M c #bfc2bb",
"N c #c0c3bc",
"B c #ced2cc",
"V c #d3d4d1",
"C c #d4d5d2",
"Z c #d4d7d2",
"A c #d9d9d7",
"S c #d8dad5",
"D c #d9dad7",
"F c #dddedc",
"G c #dedfdd",
"H c #e2e1e1",
"J c #e3e2e2",
"K c #e4e3e3",
"L c #e5e4e4",
"P c #e6e6e6",
"I c #e9e7e8",
"U c #e9e8e8",
"Y c #eae9e9",
"T c #eae8ea",
"R c #ece9ec",
"E c #edebed",
"W c #eeebed",
"Q c #ececec",
"! c #edecec",
"~ c #f0edef",
"^ c #f0ecf0",
"/ c #f2eef1",
"( c #f3eff2",
") c #f3eff3",
"_ c #f2f0f2",
"` c #f4f0f4",
"' c #f5f1f5",
"] c #f6f2f6",
"[ c None",
/* pixels */
"[[[[[[[[[[[[[[[[[[[[[[[[",
"[[[[[[[[[[[[[[[[[[[[[[[[",
"[[[[[[[[[[[[[[[[[[[[[[[[",
"[[[[[              [[[[[",
"[[[[[ ZGGGGDccxz0; [[[[[",
"[[[[[OBCVVVCqqqq3; [[[[[",
"[[[[[ #            [[[[[",
"[[[[[[[[[[[  [[[[[[[[[[[",
"[[[[[[[[[[+D7O[[[[[[[[[[",
"[[[[[[[[[[@Gj [[[[[[[[[[",
"[[[[[[[[[ KLe= [[[[[[[[[",
"[[[[[[[[[ UUr2 [[[[[[[[[",
"[[[[[[[[ JR(l4% [[[[[[[[",
"[[[[[[[[ I~(f91 [[[[[[[[",
"[[[[[[[ JR(]fu7= [[[[[[[",
"[[[[[[[ I(]]aty; [[[[[[[",
"[[[[[[ JR_]]aal4= [[[[[[",
"[[[[[[ DU!!Lffs6- [[[[[[",
"[[[[[ vvmNmm;;<,=$ [[[[[",
"[[[[[              [[[[[",
"[[[[[[[[[[[[[[[[[[[[[[[[",
"[[[[[[[[[[[[[[[[[[[[[[[[",
"[[[[[[[[[[[[[[[[[[[[[[[[",
"[[[[[[[[[[[[[[[[[[[[[[[["
};
