/* XPM */
static char * address_xpm[] = {
"14 14 3 1",
" 	c None",
".	c #000000",
"+	c #FFFFFF",
"              ",
"  ........    ",
" ..+++++++.   ",
"  .......+.   ",
" ..+++++++..  ",
"  .....+++.+. ",
" ..+++++++... ",
"  .+...+++.+. ",
" ..+++++++... ",
"  .......+.+. ",
" ..+++++++... ",
"  .....+++.+. ",
" ..+++++++... ",
"  ........    "};
