/* XPM */
static char * speaker_loud[] = {
"17 15 3 1",
" 	c None",
".	c #FFFFFF",
"+	c #000000",
".............+...",
"..............+..",
"....+++....+...+.",
"...++.+.....+..+.",
"..++...+.+...+..+",
".+.+...+..+..+..+",
"++.++..+..+..+..+",
"++.++..+..+..+..+",
"++.++..+..+..+..+",
".+.+...+..+..+..+",
"..++...+.+...+..+",
"...++.+.....+..+.",
"....+++....+...+.",
"..............+..",
".............+..."};
