/* XPM */
static char * bookmark_xpm[] = {
"20 20 40 1",
".	c None",
"+	c #333333",
"@	c #DDDDDD",
"#	c #EAF2FB",
"$	c #F5F9FD",
"%	c #E5EFFA",
"&	c #D5E6F7",
"*	c #C6DDF4",
"=	c #CBE0F5",
"-	c #BAD6F1",
";	c #AFCFEF",
">	c #A2A2A2",
",	c #DBE9F8",
"'	c #A5C9ED",
")	c #9CC4EB",
"!	c #B5D3F0",
"~	c #95BFEA",
"{	c #85B6E7",
"]	c #F0F6FC",
"^	c #E0ECF9",
"/	c #8CBAE8",
"(	c #6BA6E1",
"_	c #5A9CDE",
":	c #75ACE3",
"<	c #5599DD",
"[	c #428CDE",
"}	c #B1D0EF",
"|	c #5096DC",
"1	c #408CD9",
"2	c #3083D6",
"3	c #4B93DB",
"4	c #2B80D5",
"5	c #1673D0",
"6	c #3787D7",
"7	c #076ACD",
"8	c #61A0DF",
"9	c #0066CC",
"0	c #3C8AD8",
"a	c #1973D6",
"b	c #277DD4",
"......++++++........",
".....+@@@@@@++++@...",
"..+++++++....+@.+@..",
".+......#+...+@.+@..",
"+....+$%&*+...+..+@.",
"+...+++=-;+>..+..+@.",
"+...#,=-')+>@..+@.+@",
"+.$%&*!'~{+>@..+@.+@",
"+]^++++/{(+>@..+@.+@",
"+,=+;)/+(_+>@..+@.+@",
"+*!+~{:+<[+>@.++@+@@",
"+}'++++|12+>@.+@@+..",
"+)/+(_3+45+>@.+..+..",
"+{:+<36+57+>@....+..",
"+:8+++++99+>@.......",
"+_304a7999+>@.......",
"+36b579999+>@.......",
"+++++++++++>@.......",
".>>>>>>>>>>>@.......",
"..@@@@@@@@@@@......."};
