/* XPM */
/* c:\dev\BigRight.xpm */
static char* BigRightIconXPM[] =
{
 "8 13 2 1",
 "  c None",
 "0 c #000000",
 "00      ",
 "000     ",
 "0000    ",
 "00000   ",
 "000000  ",
 "0000000 ",
 "00000000",
 "0000000 ",
 "000000  ",
 "00000   ",
 "0000    ",
 "000     ",
 "00      ",
};
