/* XPM */
/* CurHelpIcon.xpm */
static const char* CurHelpIconXPM[] =
{
 "15 16 4 1",
 "  c None",
 "0 c #000000",
 "4 c #000080",
 "7 c #808080",
 "               ",
 "0       444447 ",
 "00     44  7447",
 "000   447   444",
 "0000  447   444",
 "00000 744  7447",
 "000000     447 ",
 "0000000   44   ",
 "00000000 447   ",
 "00000    447   ",
 "00 00          ",
 "0   00   444   ",
 "    00   444   ",
 "     00        ",
 "     00        ",
 "               ",
};
