/* XPM */
/* DisabledNotes.xpm */
static const char* DisabledNotesXPM[] =
{
 "10 11 3 1",
 "  c None",
 "8 c #808080",
 "f c #ffffff",
 "88888888  ",
 "8ffffff88 ",
 "8f8888f88f",
 "8f8ff8f88f",
 "8f8888888f",
 "8f8f88888f",
 "8f8f88888f",
 "8fff88888f",
 "888888f88f",
 " 88888888f",
 "  ffffffff",
};
