/* XPM */
/* Find.xpm */
static const char* FindIconXPM[] =
{
 "15 16 3 1",
 "  c None",
 "0 c #000000",
 "8 c #c0c0c0",
 "               ",
 "               ",
 "   000   000   ",
 "   080   080   ",
 "   000   000   ",
 "  00000 00000  ",
 "  08000 08000  ",
 " 0000000000000 ",
 "008000800800000",
 "008000800800000",
 "808000000800000",
 "000000080000000",
 "08000     08000",
 "08000     08000",
 "00000     00000",
 "               ",
};
