/* XPM */
/* NewItem.xpm */
static const char* NewItemIconXPM[] =
{
 "16 16 7 1",
 "  c None",
 "0 c #000000",
 "4 c #000080",
 "7 c #808080",
 "8 c #c0c0c0",
 "b c #ffff00",
 "f c #ffffff",
 "   7f           ",
 "f  7b           ",
 "7b 7f  7        ",
 " 7f7b 7f        ",
 "b 7bf7b074444444",
 "777fbff7b4444444",
 "  b787b444444444",
 "7f07bf7bfffffff0",
 "b 07bffffffffff0",
 "  0ffffffffffff0",
 "  0ffffffffffff0",
 "  0ffffffffffff0",
 "  0ffffffffffff0",
 "  0ffffffffffff0",
 "  00000000000000",
 "                ",
};
