/* XPM */
static char * weekly[] = {
"9 13 41 1",
" 	c None",
".	c #F4F4F4",
"+	c #FFFFFF",
"@	c #FDFDFD",
"#	c #F0F0F0",
"$	c #F8F8F8",
"%	c #FEFEFE",
"&	c #EAEAEA",
"*	c #FBFBFB",
"=	c #F2F2F2",
"-	c #E7E7E7",
";	c #F1F1F1",
">	c #FAFAFA",
",	c #F7F7F7",
"'	c #F6F6F6",
")	c #E6E6E6",
"!	c #E1E1E1",
"~	c #0B0B0B",
"{	c #070707",
"]	c #121212",
"^	c #EDEDED",
"/	c #161616",
"(	c #010101",
"_	c #0C0C0C",
":	c #000000",
"<	c #111111",
"[	c #020202",
"}	c #050505",
"|	c #0F0F0F",
"1	c #090909",
"2	c #F3F3F3",
"3	c #EEEEEE",
"4	c #F9F9F9",
"5	c #CFCFCF",
"6	c #F5F5F5",
"7	c #ECECEC",
"8	c #E8E8E8",
"9	c #E9E9E9",
"0	c #EFEFEF",
"a	c #EBEBEB",
"b	c #FCFCFC",
".+@+#$%+&",
"+*=+$*-=+",
"%;+$;++.>",
"+>*@@=>+,",
">@'++)+.=",
"!~{]^/(_+",
"+:<:>[:(*",
"+}||$1[~=",
"+23>+4+25",
"%6+**7^$+",
"8+940+@*a",
"$>;=+9.$+",
"+6+b+=@*&"};
