/* XPM */
static char * snake_xpm[] = {
"18 7 9 1",
" 	c None",
".	c #999999",
"+	c #0066CC",
"@	c #FFFFFF",
"#	c #FF7979",
"$	c #FF0F0F",
"%	c #FF8888",
"&	c #FF0000",
"*	c #FF2323",
"......++++++@#$$#@",
"......++++++%&&&&%",
"......++++++*&&&&*",
"......++++++&&&&&&",
"......++++++*&&&&*",
"......++++++%&&&&%",
"......++++++@#$$#@"};
