/* XPM */
/* Undo.xpm */
static char* EditUndoIconXPM[] =
{
 "15 12 2 1",
 "  c None",
 "0 c #000000",
 "       0000    ",
 "     00    00  ",
 " 0  0        0 ",
 " 000          0",
 " 000          0",
 " 0000         0",
 "              0",
 "             0 ",
 "           00  ",
 "               ",
 "000000000 0 0 0",
 "000000000 0 0 0",
};
