/* XPM */
static char * viewml_xpm[] = {
"200 20 92 2",
"  	c None",
". 	c #FFFFFF",
"+ 	c #EC70B7",
"@ 	c #DD007F",
"# 	c #DF1087",
"$ 	c #F29FCF",
"% 	c #FBDFEF",
"& 	c #E850A7",
"* 	c #E6409F",
"= 	c #EA60AF",
"- 	c #FDEFF7",
"; 	c #FBEBBE",
"> 	c #FAE7B1",
", 	c #FCEFCB",
"' 	c #E32C8A",
") 	c #E33097",
"! 	c #F9CFE7",
"~ 	c #EE80BF",
"{ 	c #F2AB9E",
"] 	c #BFE7ED",
"^ 	c #80D0DC",
"/ 	c #ECE9C7",
"( 	c #FEFBF2",
"_ 	c #DFF3F6",
": 	c #6F509C",
"< 	c #A6288D",
"[ 	c #7FCBCF",
"} 	c #B9C786",
"| 	c #79A0C4",
"1 	c #CF0A83",
"2 	c #DE0C7A",
"3 	c #F093A8",
"4 	c #C11486",
"5 	c #7BB0CC",
"6 	c #9FDBE4",
"7 	c #00A0B8",
"8 	c #BEE3E0",
"9 	c #60C4D3",
"0 	c #DEEBDC",
"a 	c #F9DF98",
"b 	c #F7BFDF",
"c 	c #E1208F",
"d 	c #5364A3",
"e 	c #AFE1E9",
"f 	c #EFF9FB",
"g 	c #E2306B",
"h 	c #EE975E",
"i 	c #F4CA57",
"j 	c #AC58A5",
"k 	c #983291",
"l 	c #8FD5E0",
"m 	c #CFEDF2",
"n 	c #F5CE64",
"o 	c #C59ECA",
"p 	c #7370AC",
"q 	c #30B2C5",
"r 	c #70CAD7",
"s 	c #20ACC1",
"t 	c #40B8CA",
"u 	c #F4C64A",
"v 	c #2982AD",
"w 	c #50BECE",
"x 	c #456EA6",
"y 	c #F8DA8B",
"z 	c #F3AFAB",
"A 	c #FDF3D8",
"B 	c #FDF7E5",
"C 	c #EB7B5B",
"D 	c #A9B2D1",
"E 	c #E01875",
"F 	c #F7C7CD",
"G 	c #FAE3D0",
"H 	c #F6D271",
"I 	c #8A3C94",
"J 	c #F4ABCA",
"K 	c #F5C676",
"L 	c #0E96B4",
"M 	c #F3A7BD",
"N 	c #E86364",
"O 	c #10A6BC",
"P 	c #EDEDD4",
"Q 	c #3778AA",
"R 	c #B598C5",
"S 	c #3EB0B0",
"T 	c #8BC19F",
"U 	c #6892A5",
"V 	c #F08FC7",
"W 	c #98ABA1",
"X 	c #F7D67E",
"Y 	c #F9E3A4",
"Z 	c #E96771",
"` 	c #E64B6E",
". . . . . . . . . . . . . . . . . . . . . . . . . . . . . . . . . . . . . . . . . . . . . . . . . . . . . . . . . . . . . . . . . . . . . . . . . . . . . . . . . . . . . . . . . . . . . . . . . . . . . . . . . . . . . . . . . . . . . . . . . . . . . . . . . . . . . . . . . . . . . . . . . . . . . . . . . . . . . . . . . . . . . . . . . . . . . . . . . . . . . . . . . . . . . . + @ # $ . . . . . . ",
". . . . . . . . . . . . . . % & * = - . . . . . . . . . . . . . . . . . . . . . . . . . . . . . . . . . . . . . . . . . . . . . . . . . . . . . . . . . . . . . . . . . . . . . . . . . . . . . . . . . . . . . . . . . . . . . . . . . . . . . . . . . . . . . . . . . . . . . . . . . . . . . . . . . . . . . . . . . . . . . . . . . . . . . . . . . . . . . . . . . . . . . . . . . . $ @ @ @ @ % . . . . . ",
". . . . . . . . . . ; > , , ' @ @ @ = . . . . . . . . . . . ; > , , > ; . . . . . . . . . . . . . . ; > , , > ; . . . . . . . . . . . . . . ; > , , > ; . . . . . . . . . . . . . . ; > , , > ; . . . . . . . . . . . . . . ; > , , > ; . . . . . . . . . . . . . . ; > , , > ; . . . . . . . . . . . . . . ; > , , > ; . . . . . . . . . - = @ ) ! ; > , , > ; . . . . . . . . . . . . . ~ @ @ @ @ { ; . . . . ",
". . . . ] ^ ^ ^ / > ( . _ ^ : : < @ * . . . . . ] ^ ^ ^ / > ( . _ ^ ^ [ } . . . . . . . ] ^ ^ ^ / > ( . _ ^ ^ [ } . . . . . . . ] ^ ^ ^ / > ( . _ ^ ^ [ } . . . . . . . ] ^ ^ ^ / > ( . _ ^ ^ [ } . . . . . . . ] ^ ^ ^ / > ( . _ ^ ^ [ } . . . . . . . ] ^ ^ ^ / > ( . _ ^ ^ [ } . . . . . . . ] ^ ^ ^ / > ( . _ ^ ^ [ } . . . . . . . ] | : : 1 2 ( . _ ^ ^ [ } . . . . . . . ] ^ ^ ^ / 3 @ @ 4 : 5 [ } . . . ",
". . . . 6 7 7 7 8 . . . 9 7 7 7 4 @ & . . . . . 6 7 7 7 8 . . . 9 7 7 7 0 a . . . . . . 6 7 7 7 8 . . . 9 7 7 7 0 a . . . . . . 6 7 7 7 8 . . . 9 7 7 7 0 a . . . . . . 6 7 7 7 8 . . . 9 7 7 7 0 a . . . . . . 6 7 7 7 8 . . . 9 7 7 7 0 a . . . . . . 6 7 7 7 8 . . . 9 7 7 7 0 a . . . . . . 6 7 7 7 8 . . . 9 7 7 7 0 a . . . . . . 6 7 7 7 < @ b . 9 7 7 7 0 a . . . . . . 6 7 7 7 8 . ~ c d 7 7 7 0 a . . ",
". . . . ] 7 7 7 e . . f 7 7 7 d @ g % . . . . . ] 7 7 7 e . . f 7 7 7 9 % h % . . . . . ] 7 7 7 e . . f 7 7 7 9 . i . . . . . . ] 7 7 7 e . . f 7 7 7 9 . i . . . . . . ] 7 7 7 e . . f 7 7 7 9 . i . . . . . . ] 7 7 7 e . . f 7 7 7 9 . i . . . . . . ] 7 7 7 e . . f 7 7 7 9 . i . . . . - ~ j 7 7 7 e . . f 7 7 7 9 . i . . . . . . ] 7 7 7 k # . f 7 7 7 9 . i . . . . . . ] 7 7 7 e . . f 7 7 7 9 . i . . ",
". . . . ( 7 7 7 ^ . . l 7 7 7 m . n . . . . . . ( 7 7 7 ^ . . l 7 7 7 o @ @ @ $ . . . . ( 7 7 7 ^ . . l 7 7 7 m . n . . . . . . ( 7 7 7 ^ . . l 7 7 7 m . n . . . . . . ( 7 7 7 ^ . . l 7 7 7 m . n . . . . . . ( 7 7 7 ^ . . l 7 7 7 m . n . . . . . . ( 7 7 7 ^ . . l 7 7 7 m . n . . . . * @ @ 7 7 7 ^ . . l 7 7 7 m . n . . . . . . ( 7 7 7 p ! . l 7 7 7 m . n . . . . . . ( 7 7 7 ^ . . l 7 7 7 m . n . . ",
". . . . > q 7 7 r . . s 7 7 t . . u . . . . . . > q 7 7 r . . s 7 7 t c @ @ @ # . . . . > q 7 7 r . . s 7 7 t . . u . . . . . . > q 7 7 r . . s 7 7 t . . u . . . . . . > q 7 7 r . . s 7 7 t . . u . . . . . . > q 7 7 r . . s 7 7 t . . u . . . . . . > q 7 7 r . . s 7 7 t . . u . . . . @ @ @ v 7 7 r . . s 7 7 t . . u . . . . . . > q 7 7 r . . s 7 7 t . . u . . . . . . > q 7 7 r . . s 7 7 t . . u . . ",
". . . , , w 7 7 t . ] 7 7 7 ] . ( i . . . . . , , w 7 7 t . ] 7 7 7 ] # @ @ @ # . . . , , w 7 7 t . ] 7 7 7 ] . ( i . . . . . , , w 7 7 t . ] 7 7 7 ] . ( i . . . . . , , w 7 7 t . ] 7 7 7 ] . ( i . . . . . , , w 7 7 t . ] 7 7 7 ] . ( i . . . . . , , w 7 7 t . ] 7 7 7 ] . ( i . . . . # @ @ x 7 7 t . ] 7 7 7 ] . ( i . . . . . , , w 7 7 t . ] 7 7 7 ] . ( i . . . . . , , w 7 7 t . ] 7 7 7 ] . ( i . . ",
". . . > . ^ 7 7 q . 9 7 7 t . . > y . . . . . > . ^ 7 7 q . 9 7 7 t . + @ @ @ + . . . > . ^ 7 7 q . 9 7 7 t . . > y . . . . . > . ^ 7 7 q . 9 7 7 t . . > y . . . . . > . ^ 7 7 q . 9 7 7 t . . > y . . . . . > . ^ 7 7 q . 9 7 7 t . . > y . . . b ~ z . ^ 7 7 q . 9 7 7 t . . > y . . . . $ @ @ : 7 7 q . 9 7 7 t . . > y . . . . . > . ^ 7 7 q . 9 7 7 t . . > y . . . . . > . ^ 7 7 q . 9 7 7 t . . > y . . ",
". . , A . e 7 7 7 f 7 7 7 e . . u B . . . . , A . e 7 7 7 f 7 7 7 e . . C ~ $ . . . , A . e 7 7 7 f 7 7 7 D c @ E F . . . . , A . e 7 7 7 f 7 7 7 e . . u B . . . . , A . e 7 7 7 f 7 7 7 e . . u B . . . . , A . e 7 7 7 f 7 7 7 e . . u B . . $ @ @ @ ~ e 7 7 7 f 7 7 7 e . . u B . . . . , G b e 7 7 7 f 7 7 7 e . . u B . . . . , A . e 7 7 7 f 7 7 7 e . . u B . . . . , A . e 7 7 7 f 7 7 7 e . . u B . . ",
". . a . . _ 7 7 7 l 7 7 s . . > y . . . . . a . . _ 7 7 7 l 7 7 s . . > y . . . . . a . . _ 7 7 7 l 7 7 s ) @ @ @ ) . . . . a . . _ 7 7 7 l 7 7 s . . > y . . . . . a . . _ 7 7 7 l 7 7 s . . > y . . . . . a . . _ 7 7 7 l 7 7 s . . > y . . . c @ @ @ # _ 7 7 7 l 7 7 s . . > y . . . . . a . . _ 7 7 7 l 7 7 s . . > y . . . . . a . . _ 7 7 7 l 7 7 s . . > y . . . . . a . . _ 7 7 7 l 7 7 s . . > y . . . ",
". . H . . . 7 7 7 7 7 7 6 . B n ( . . . . . H . . . 7 7 7 7 7 7 6 . B n ( . . . . . H . . . 7 7 7 7 7 7 6 @ @ @ @ @ . . . . H . . . 7 7 7 7 7 7 6 . B n ( . . . . . H . . . 7 7 7 7 7 7 6 . B n ( . . . . . H . . . 7 7 7 7 7 7 6 . B n ( . . . c @ @ @ # . 7 7 7 7 7 7 6 . B n ( . . . . . H . . . 7 7 7 7 7 7 6 . B n ( . . . . . H . . . 7 7 7 7 7 7 6 . B n ( . . . . . H . . . 7 7 7 7 7 7 6 . B n ( . . . ",
". . n . . . t 7 7 7 7 s . ( n B . . . . . . n . . . t 7 7 7 7 s . ( n B . . . . . . n . . . t 7 7 7 7 s . & @ @ @ & . . . . n . . . t 7 7 7 v I * J n B . . . . . . n . . . t 7 7 7 7 s . ( n B . . . . . . n . . . t 7 7 7 7 s . ( n B . . . . $ @ @ @ ~ . t 7 7 7 7 s . ( n B . . . . . . n . . . t 7 7 7 7 s . ( n B . . . . . . n . . . t 7 7 7 7 s . ( n B . . . . . . n . . . t 7 7 7 7 s . ( n B . . . . ",
". . i . . . r 7 7 7 7 l ( H A . . . . . . . i . . . r 7 7 7 7 l ( H A . . . . . . . i . . . r 7 7 7 7 l ( K = * = - . . . . i . . . r 7 7 L 1 @ @ @ M . . . . . . . i . . . r 7 7 7 7 l ( H A . . . . . . ! E @ * - r 7 7 7 7 l ( H A . . . . . . ! N b . . r 7 7 7 7 l ( H A . . . . . . . i . . . r 7 7 7 7 l ( H A . . . . . . . i . . . r 7 7 7 7 l ( H A . . . . . . . i . . . r 7 7 7 7 l ( H A . . . . . ",
". . H ; . . l 7 7 7 O P y ( . . . . . . . . H ; . . l 7 7 7 O P y ( . . . . . . . . H ; . . l 7 7 7 O P y ( . . . . . . . . H ; . . l 7 7 Q @ @ @ @ ~ . . . . . . . H ; . . R < < Q O P y ( . . . . . . . c @ @ @ & l 7 7 7 O P y ( . . . . . . . . H ; . . l 7 7 7 O P y ( . . . . . . . . H ; . . l 7 7 7 O P y ( . . . . . . . . H ; . . l 7 7 7 O P y ( . . . . . . . . H ; . . l 7 7 7 O P y ( . . . . . . ",
". . B u ; . m t t S T > . . . . . . . . . . B u ; . m t t S T > . . . . . . . . . . B u ; . m t t S T > . . . . . . . . . . B u ; . m t t U @ @ @ @ V . . . . . . . B u ; b @ @ @ @ W > . . . . . . . . . @ @ @ @ * m t t S T > . . . . . . . . . . B u ; . m t t S T > . . . . . . . . . . B u ; . m t t S T > . . . . . . . . . . B u ; . m t t S T > . . . . . . . . . . B u ; . m t t S T > . . . . . . . . ",
". . . B X n H y Y ; . . . . . . . . . . . . . B X n H y Y ; . . . . . . . . . . . . . B X n H y Y ; . . . . . . . . . . . . . B X n H y Y ; + @ @ ) - . . . . . . . . B X Z @ @ @ @ b . . . . . . . . . . c @ @ @ ` H y Y ; . . . . . . . . . . . . . B X n H y Y ; . . . . . . . . . . . . . B X n H y Y ; . . . . . . . . . . . . . B X n H y Y ; . . . . . . . . . . . . . B X n H y Y ; . . . . . . . . . . ",
". . . . . . . . . . . . . . . . . . . . . . . . . . . . . . . . . . . . . . . . . . . . . . . . . . . . . . . . . . . . . . . . . . . . . . . - ! . . . . . . . . . . . . $ @ @ @ @ ! . . . . . . . . . . ! & * = - . . . . . . . . . . . . . . . . . . . . . . . . . . . . . . . . . . . . . . . . . . . . . . . . . . . . . . . . . . . . . . . . . . . . . . . . . . . . . . . . . . . . . . . . . . . . . . ",
". . . . . . . . . . . . . . . . . . . . . . . . . . . . . . . . . . . . . . . . . . . . . . . . . . . . . . . . . . . . . . . . . . . . . . . . . . . . . . . . . . . . . . + @ @ + . . . . . . . . . . . . . . . . . . . . . . . . . . . . . . . . . . . . . . . . . . . . . . . . . . . . . . . . . . . . . . . . . . . . . . . . . . . . . . . . . . . . . . . . . . . . . . . . . . . . . . . . . . . . . . "};
