/* XPM */
static char * speaker[] = {
"8 11 3 1",
" 	c None",
".	c #FFFFFF",
"+	c #000000",
"....+++.",
"...++.+.",
"..++...+",
".+.+...+",
"++.++..+",
"++.++..+",
"++.++..+",
".+.+...+",
"..++...+",
"...++.+.",
"....+++."};
