/* XPM */
/* DisabledCopy.xpm */
static char* DisabledCopyIconXPM[] =
{
 "16 14 3 1",
 "  c None",
 "8 c #808080",
 "f c #ffffff",
 "888888          ",
 "8ffff88         ",
 "8f   8f8        ",
 "8f88 8888888    ",
 "8f ff 8ffff88   ",
 "8f88888f   8f8  ",
 "8f fff8f88 8888 ",
 "8f88888f ff ff8f",
 "8f fff8f88888 8f",
 "8888888f fffff8f",
 " fffff8f88888 8f",
 "      8f fffff8f",
 "      888888888f",
 "       fffffffff",
};
