/* XPM */
/* DisabledUndo.xpm */
static char* DisabledUndoIconXPM[] =
{
 "15 12 3 1",
 "  c None",
 "8 c #808080",
 "f c #ffffff",
 "       8888    ",
 "     88fff 88  ",
 " 8  8f       8 ",
 " 888f         8",
 " 888f         8",
 " 8888         8",
 "  fff         8",
 "             8f",
 "           88f ",
 "               ",
 "888888888 8 8 8",
 "888888888 8 8 8",
};
