/* XPM */
static char *stock_volume_xpm[] = {
/* columns rows colors chars-per-pixel */
"24 24 17 1",
"  c Gray0",
". c #79766c",
"X c #7e7b70",
"o c #8d8a7d",
"O c #9b988a",
"+ c #9e9a8c",
"@ c #b0ac9c",
"# c #b8b4a6",
"$ c #bfbbaf",
"% c #c5c1b7",
"& c #c5c2b7",
"* c #cfccc4",
"= c #d1cfc7",
"- c #d7d5cf",
"; c #dedcd7",
": c #e4e2de",
"> c None",
/* pixels */
">>>>>>>>>>>>>>>>>>>>>>>>",
">>>>>>>>>>>>>>>>>>>>>>>>",
">>>>>>>>>>>>>>>>>>>>>>>>",
">>>>>>>>>>>>>>>>>>>>>>>>",
">>>>>>>>>>>>>>>>>>>>>>>>",
">>>>>>>>>> >>>>>>> >>>>>",
">>>>>>>>>  >>>> >>> >>>>",
">>>>>>>> + >>>>> >> >>>>",
">>>   > +# >> >> >>> >>>",
">>> OO +*: >>> >> >> >>>",
">>> =% ;-%  >> >> >> >>>",
">>> @@ ##$  >> >> >> >>>",
">>> OO +@@  >> >> >> >>>",
">>> .. +++ >>> >> >> >>>",
">>>   > o+ >> >> >>> >>>",
">>>>>>>> X >>>>> >> >>>>",
">>>>>>>>>  >>>> >>> >>>>",
">>>>>>>>>> >>>>>>> >>>>>",
">>>>>>>>>>>>>>>>>>>>>>>>",
">>>>>>>>>>>>>>>>>>>>>>>>",
">>>>>>>>>>>>>>>>>>>>>>>>",
">>>>>>>>>>>>>>>>>>>>>>>>",
">>>>>>>>>>>>>>>>>>>>>>>>",
">>>>>>>>>>>>>>>>>>>>>>>>"
};
