/* XPM */
static char *stock_save_xpm[] = {
/* columns rows colors chars-per-pixel */
"24 24 64 1",
"  c Gray0",
". c #34464a",
"X c #3a474a",
"o c #3e4d50",
"O c #484848",
"+ c #4b575a",
"@ c #495a5e",
"# c #465e63",
"$ c #486166",
"% c #57696d",
"& c #536e75",
"* c #557278",
"= c #606364",
"- c #657376",
"; c #607a7f",
": c #788a8d",
"> c #729096",
", c #779fa8",
"< c #7ea4ac",
"1 c #899293",
"2 c #8c9394",
"3 c #8f9a9b",
"4 c #87aab2",
"5 c #8badb5",
"6 c #94b2b9",
"7 c #a4abad",
"8 c #a7b0b2",
"9 c #a9b2b4",
"0 c #b4b4b4",
"q c #a0bcc1",
"w c #a8c1c5",
"e c #aec4c9",
"r c #bcc2c3",
"t c #bfd1d5",
"y c #c6cacc",
"u c #cfd8da",
"i c #cfdcdf",
"p c #d0d5d6",
"a c #d2d4d5",
"s c #d5dada",
"d c #d8d8d8",
"f c #dddddd",
"g c Gray87",
"h c Gray88",
"j c #e1e1e1",
"k c #e4e4e4",
"l c #e7e7e7",
"z c #e0e9eb",
"x c #e4eced",
"c c #e4ecee",
"v c #e9e9e9",
"b c #eaeaea",
"n c #e8eff0",
"m c #ebf1f2",
"M c #eef3f4",
"N c #f1f1f1",
"B c Gray95",
"V c #f3f3f3",
"C c #f0f4f5",
"Z c #f2f6f7",
"A c #f6f6f6",
"S c #f5f8f9",
"D c Gray100",
"F c None",
/* pixels */
"FFFFFFFFFFFFFFFFFFFFFFFF",
"FFFFFFFFFFFFFFFFFFFFFFFF",
"FFFFFFFFFFFFFFFFFFFFFFFF",
"FFFFFFFFFFFFFF  FFFFFFFF",
"FFFFFFFFFFFF  ,@ FFFFFFF",
"FFFFFFFFFF  twx, FFFFFFF",
"FFFFFFFF  twtDM,@ FFFFFF",
"FFFFFF  twtDDDDz, FFFFFF",
"FFFF  4etDDDDDDS5o FFFFF",
"FFF 6eiDDDDDDDDDx, FFFFF",
"FFF :6mDDDDDDDDDn,@ FFFF",
"FFFF wzDDDDDDDZz,,, FFFF",
"FFFF ;4mDDDDZz,,&&,@ FFF",
"FFFFF qzDDZz,,#+*,&, FFF",
"FFFFF ;4nz,,#7bk=,&,@ FF",
"FFFFFF 6,,&yNNkj9$,#. FF",
"FFFFFF >4,rA%ukfd2,o  FF",
"FFFFFFF 6,&NX<sj0-  FFFF",
"FFFFFFF *,,pb8p1O FFFFFF",
"FFFFFFFF $,&f3  FFFFFFFF",
"FFFFFFFFF     FFFFFFFFFF",
"FFFFFFFFFFFFFFFFFFFFFFFF",
"FFFFFFFFFFFFFFFFFFFFFFFF",
"FFFFFFFFFFFFFFFFFFFFFFFF"
};
