/* XPM */
static char *stock_preferences_xpm[] = {
/* columns rows colors chars-per-pixel */
"24 24 53 1",
"  c Gray0",
". c #060605",
"X c #756020",
"o c Gray43",
"O c #7e7e71",
"+ c #8e7d45",
"@ c #a84f4f",
"# c #a65353",
"$ c #a65757",
"% c #ac5757",
"& c #ab5959",
"* c #aa6c6c",
"= c #ad8e30",
"- c #818174",
"; c #828279",
": c #8b8b7d",
"> c Gray53",
", c #9b9b9b",
"< c #a3a395",
"1 c #a7a79a",
"2 c #a7a7a7",
"3 c #b2b9b6",
"4 c #c48b8b",
"5 c #d4c38d",
"6 c #dccb94",
"7 c #c0c0bb",
"8 c #c5c5bf",
"9 c #c1c1c1",
"0 c #c6c6c6",
"q c Gray78",
"w c #c8c8c8",
"e c #cdcdcd",
"r c #cecece",
"t c Gray81",
"y c #dacaca",
"u c #d6d6d0",
"i c Gray83",
"p c #d9d9d2",
"a c #d9d9d3",
"s c #dadad4",
"d c Gray85",
"f c #dadad9",
"g c #dadada",
"h c Gray86",
"j c gainsboro",
"k c #d6e1e0",
"l c #dfe1e1",
"z c #e9dddd",
"x c #e4e4e4",
"c c Gray90",
"v c #f3f3f3",
"b c Gray96",
"n c None",
/* pixels */
"nnnnnnnnnnnnnnnnnnnnnnnn",
"nnnnnnnnnnnnnnnnnnnnnnnn",
"nnnnnnnnnnnnnnnnnnnnnnnn",
"nnnnnnnnnnnnn  nnnnnnnnn",
"nnnnnnnnnnn  ce nnnnn nn",
"nnnnnnnnn  eccc nnnn 6 n",
"nnnnnn   jcccccq nn 6+ n",
"nnnn  eccccec9cc n 6+ nn",
"nnn jcccc&cdce>cd 6+ nnn",
"nnn icccc@2c,>cc 6+ nnnn",
"nnnn ccbv$coccc 6+ nnnnn",
"nnnn jy%4*cccc 6+ d nnnn",
"nnnnn cz#$ccc 6+ ecq nnn",
"nnnnn iccccc 5+ dcu7; nn",
"nnnnnn cccb=X  81111- nn",
"nnnnnn jclk. <<1111w nnn",
"nnnnnnn c1:O3ppscd  nnnn",
"nnnnnnn icccccccw nnnnnn",
"nnnnnnnn cccccc  nnnnnnn",
"nnnnnnnn jcccw nnnnnnnnn",
"nnnnnnnnn cd  nnnnnnnnnn",
"nnnnnnnnnn  nnnnnnnnnnnn",
"nnnnnnnnnnnnnnnnnnnnnnnn",
"nnnnnnnnnnnnnnnnnnnnnnnn"
};
