/* XPM */
static char * mine2_xpm[] = {
"102 51 365 2",
"  	c None",
". 	c #FFFFFF",
"+ 	c #78C9E4",
"@ 	c #81CDE6",
"# 	c #6AC3E1",
"$ 	c #59BDDE",
"% 	c #46B5DA",
"& 	c #3BB1D8",
"* 	c #31ADD6",
"= 	c #26A6D1",
"- 	c #1C9CC7",
"; 	c #1094C0",
"> 	c #666666",
", 	c #5C5C5C",
"' 	c #757575",
") 	c #858585",
"! 	c #8D8D8D",
"~ 	c #999999",
"{ 	c #F3F3F3",
"] 	c #B9B9B9",
"^ 	c #ACACAC",
"/ 	c #E9E9E9",
"( 	c #0099CC",
"_ 	c #0889B4",
": 	c #BEBEBE",
"< 	c #A5A5A5",
"[ 	c #D7D7D7",
"} 	c #CCCCCC",
"| 	c #8E8E8E",
"1 	c #7D7D7D",
"2 	c #DCDCDC",
"3 	c #FF0808",
"4 	c #FFD5D5",
"5 	c #007DA7",
"6 	c #B4B4B4",
"7 	c #EBEBEB",
"8 	c #5B5B5B",
"9 	c #001607",
"0 	c #767676",
"a 	c #EFEFEF",
"b 	c #FF0000",
"c 	c #FF3333",
"d 	c #00759C",
"e 	c #C3C3C3",
"f 	c #001E0A",
"g 	c #004116",
"h 	c #007126",
"i 	c #00280D",
"j 	c #3B3B3B",
"k 	c #4D4D4D",
"l 	c #D3D3D3",
"m 	c #FFC2C2",
"n 	c #FF1919",
"o 	c #F92828",
"p 	c #002C0F",
"q 	c #006A8D",
"r 	c #E7E7E7",
"s 	c #868686",
"t 	c #1D1D1D",
"u 	c #005D1F",
"v 	c #008D2F",
"w 	c #009933",
"x 	c #00822B",
"y 	c #434343",
"z 	c #F7F7F7",
"A 	c #333333",
"B 	c #E1E1E1",
"C 	c #AE5A5A",
"D 	c #BC1808",
"E 	c #13862C",
"F 	c #444444",
"G 	c #004C19",
"H 	c #006120",
"I 	c #424242",
"J 	c #0F0F0F",
"K 	c #1A1A1A",
"L 	c #595959",
"M 	c #774517",
"N 	c #A13813",
"O 	c #005F20",
"P 	c #4C4C4C",
"Q 	c #007E2A",
"R 	c #003110",
"S 	c #B2B2B2",
"T 	c #848484",
"U 	c #A8A8A8",
"V 	c #000000",
"W 	c #080808",
"X 	c #7D4E1A",
"Y 	c #DBDBDB",
"Z 	c #000803",
"` 	c #515151",
" .	c #8F8F8F",
"..	c #A2230C",
"+.	c #770402",
"@.	c #3A3A3A",
"#.	c #756262",
"$.	c #BC0B03",
"%.	c #FFACAC",
"&.	c #D90D0D",
"*.	c #1E1E1E",
"=.	c #613B3B",
"-.	c #FFB3B3",
";.	c #3AB0D8",
">.	c #3D3D3D",
",.	c #FFECEC",
"'.	c #006283",
").	c #005C7A",
"!.	c #A7A7A7",
"~.	c #004C66",
"{.	c #00526D",
"].	c #E1F3F9",
"^.	c #C6E8F4",
"/.	c #A5DBED",
"(.	c #93D4E9",
"_.	c #7DCBE5",
":.	c #72C7E3",
"<.	c #8BD0E8",
"[.	c #ADDEEF",
"}.	c #E4F4FA",
"|.	c #A3DAED",
"1.	c #E0F3F9",
"2.	c #D7EFF7",
"3.	c #9DD8EC",
"4.	c #65C2E0",
"5.	c #5ABDDE",
"6.	c #BCE4F2",
"7.	c #A1D9EC",
"8.	c #85CEE7",
"9.	c #79C9E4",
"0.	c #51B9DC",
"a.	c #61C0DF",
"b.	c #B3E1F0",
"c.	c #54BBDD",
"d.	c #49B6DB",
"e.	c #3CB1D8",
"f.	c #B2E0F0",
"g.	c #43B4D9",
"h.	c #F1F9FC",
"i.	c #39ADD4",
"j.	c #2BAAD5",
"k.	c #CFECF5",
"l.	c #21A6D3",
"m.	c #30ACD6",
"n.	c #19A3D1",
"o.	c #29A9D4",
"p.	c #4EB6D8",
"q.	c #18A3D1",
"r.	c #F0F6F8",
"s.	c #2AA9D4",
"t.	c #8DAEB9",
"u.	c #7A8588",
"v.	c #ADACAB",
"w.	c #6293A3",
"x.	c #4F727E",
"y.	c #5597AC",
"z.	c #089CCE",
"A.	c #AED3E0",
"B.	c #78888C",
"C.	c #6F787B",
"D.	c #92918F",
"E.	c #D6DCDE",
"F.	c #82B9CB",
"G.	c #507580",
"H.	c #43656F",
"I.	c #90A7AE",
"J.	c #ABAAAA",
"K.	c #4F7B88",
"L.	c #878684",
"M.	c #505452",
"N.	c #F1F1F1",
"O.	c #9BD1E3",
"P.	c #2F3B3E",
"Q.	c #555858",
"R.	c #3A5F69",
"S.	c #98C2D0",
"T.	c #22211F",
"U.	c #8D8B8A",
"V.	c #AEADAC",
"W.	c #7B7B7A",
"X.	c #5B5957",
"Y.	c #B5B4B3",
"Z.	c #759CA8",
"`.	c #4D5455",
" +	c #242929",
".+	c #48A4C2",
"++	c #ABD9E8",
"@+	c #5A5B58",
"#+	c #535353",
"$+	c #43413F",
"%+	c #41646E",
"&+	c #6A838A",
"*+	c #807E7C",
"=+	c #DFF0F6",
"-+	c #4A5B5F",
";+	c #3F798B",
">+	c #0093C4",
",+	c #CFE9F2",
"'+	c #93C9DA",
")+	c #C6C5C4",
"!+	c #4A4A48",
"~+	c #3C5258",
"{+	c #3EAACD",
"]+	c #637A80",
"^+	c #C5C4C4",
"/+	c #484848",
"(+	c #ABB6BA",
"_+	c #C0D4D9",
":+	c #A0C5D1",
"<+	c #80A3AF",
"[+	c #407483",
"}+	c #434A4A",
"|+	c #E5E5E5",
"1+	c #464543",
"2+	c #BFD4DC",
"3+	c #8DB2BF",
"4+	c #494F50",
"5+	c #3A4B50",
"6+	c #13A1D0",
"7+	c #6E96A3",
"8+	c #6E6F6E",
"9+	c #52666B",
"0+	c #32839E",
"a+	c #80C4DB",
"b+	c #43595F",
"c+	c #292929",
"d+	c #191817",
"e+	c #222222",
"f+	c #829BA3",
"g+	c #192020",
"h+	c #184C5B",
"i+	c #80C5DD",
"j+	c #79ACBC",
"k+	c #797776",
"l+	c #85989E",
"m+	c #309FC4",
"n+	c #40A5C7",
"o+	c #637B81",
"p+	c #A6A6A6",
"q+	c #282623",
"r+	c #949391",
"s+	c #1C1A18",
"t+	c #2B6C81",
"u+	c #EDEDEC",
"v+	c #0D0B0A",
"w+	c #898988",
"x+	c #2E4950",
"y+	c #2A5A6A",
"z+	c #16637D",
"A+	c #057296",
"B+	c #3D9AB9",
"C+	c #71A6B7",
"D+	c #608895",
"E+	c #505758",
"F+	c #2C8FB0",
"G+	c #109FCF",
"H+	c #008CBB",
"I+	c #2093BA",
"J+	c #4C6A73",
"K+	c #394041",
"L+	c #2B6375",
"M+	c #008DBC",
"N+	c #5593A7",
"O+	c #25363A",
"P+	c #777777",
"Q+	c #0A0808",
"R+	c #19363E",
"S+	c #127393",
"T+	c #1E7592",
"U+	c #80B5C7",
"V+	c #0183AE",
"W+	c #56818F",
"X+	c #267792",
"Y+	c #0082AE",
"Z+	c #536E77",
"`+	c #008BBA",
" @	c #017FAA",
".@	c #B3B3B3",
"+@	c #262421",
"@@	c #6DBDD7",
"#@	c #23201E",
"$@	c #0089B6",
"%@	c #007FA9",
"&@	c #70B8D0",
"*@	c #46565A",
"=@	c #9CD4E6",
"-@	c #28A1C9",
";@	c #018AB7",
">@	c #86B6C5",
",@	c #73A9BB",
"'@	c #60A3B9",
")@	c #1B1917",
"!@	c #4D8294",
"~@	c #007BA5",
"{@	c #2086A8",
"]@	c #58B3D1",
"^@	c #182B2F",
"/@	c #0F9DCC",
"(@	c #0084B0",
"_@	c #5D9AAE",
":@	c #386370",
"<@	c #3087A4",
"[@	c #397284",
"}@	c #2E5C6A",
"|@	c #68BBD6",
"1@	c #3C6876",
"2@	c #1C6F8A",
"3@	c #2284A4",
"4@	c #0087B4",
"5@	c #4094B0",
"6@	c #358EAB",
"7@	c #508494",
"8@	c #4AA3BF",
"9@	c #2E85A1",
"0@	c #317A92",
"a@	c #2997BB",
"b@	c #1184AA",
"c@	c #00749B",
"d@	c #0E556C",
"e@	c #096583",
"f@	c #007096",
"g@	c #D0E4EA",
"h@	c #23454F",
"i@	c #134250",
"j@	c #207E9D",
"k@	c #4DB3D5",
"l@	c #306F82",
"m@	c #113A47",
"n@	c #12313A",
"o@	c #006B8F",
"p@	c #A0C8D5",
"q@	c #1C444F",
"r@	c #274F5B",
"s@	c #216373",
"t@	c #215667",
"u@	c #175163",
"v@	c #1682A7",
"w@	c #2C90B0",
"x@	c #096685",
"y@	c #103B48",
"z@	c #1390BA",
"A@	c #106D8C",
"B@	c #103D4B",
"C@	c #115C75",
"D@	c #183F4B",
"E@	c #249FC8",
"F@	c #B0D1DC",
"G@	c #167493",
"H@	c #1B4C5B",
"I@	c #056585",
"J@	c #158BB2",
"K@	c #147B9C",
"L@	c #174958",
"M@	c #1186AD",
"N@	c #158EB6",
"O@	c #0F7394",
"P@	c #117CA0",
"Q@	c #13789A",
"R@	c #134351",
"S@	c #0D5166",
"T@	c #60B0CB",
"U@	c #F2F2F2",
"V@	c #E6E6E6",
"W@	c #608A99",
"X@	c #7D9197",
". . . . . . . . . . . . . . . . . . . . . . . . . . . . . . . . . . . . . . . . . . . . . . . . . . . . . . . . . . . . . . . . . . . . . . . . . . . . . . . . . . . . . . . . . . . . . . . . . . . . . . ",
". + @ # $ % & & & & & & & * = - ; . > , > ' ) ) ) ) ) ) ) ) ! ! ~ ~ . . . . . . . . . . . . . . . . . . . . . . . . . . { ] ~ ^ / . . . . . . . . . . . . . . . . . . . . . . . . . . . . . . . . . . . . . ",
". @ ( ( ( ( ( ( ( ( ( ( ( ( ( ( _ . , : : : : : : : : : : : : : : < . . . . . . . . . . . . [ } . . . . . . . . . . . . | 1 ^ ~ ' 2 . . . . . . 3 3 4 . . . . . [ } . . . . . . . . . . . . . . . . . . . . ",
". # ( ( ( ( ( ( ( ( ( ( ( ( ( ( 5 . > : : : : : : : : : : : : : : 6 . . . . . . . . . 7 ~ 8 9 0 . . . . . . . . . . . } 1 . . . } a . . . . . . 3 b c 4 . 7 ~ 8 9 0 . . . . . . . . . . . . . . . . . . . . ",
". $ ( ( ( ( ( ( ( ( ( ( ( ( ( ( d . ' : : : : : : : : : : : : : : : . . . . . . . e > f g h i } . . . . . . . . . . } j k l . . . . . . . . . . m n b o > f g h p } . . . . . . . . . . . . . . . . . . . . ",
". % ( ( ( ( ( ( ( ( ( ( ( ( ( ( q . ) : : : : : : : : : : : : : : : . . . . r s t i u v w x y z . . . . . . . . . | j A A A ~ . . . . . . . . . B C b b D E w x F z . . . . . . . . . . . . . . . . . . . . ",
". & ( ( ( ( ( ( ( ( ( ( ( ( ( ( q . ) : : : : : : : : : : : : : : : . . r y f G x w w w w H 0 . . . . . . . . . I A I j J K A L . . . . . . r F f G M b b N w O 0 . . . . . . . . . . . . . . . . . . . . . ",
". & ( ( ( ( ( ( ( ( ( ( ( ( ( ( q . ) : : : : : : : : : : : : : : : . . [ P i G Q w w w w R S . . . . . . . . T A ' U T j V W A ~ . . . . . [ P p G Q X b b X R S . . . . . . . . . . . . . . . . . . . . . ",
". & ( ( ( ( ( ( ( ( ( ( ( ( ( ( q . ) : : : : : : : : : : : : : : : . . . . Y ! y R H v w Z z . . . . . . . . j I U . U ` V V K A . . . . . . . B  .F R ..b b +.z . . . . . . . . . . . . . . . . . . . . . ",
". & ( ( ( ( ( ( ( ( ( ( ( ( ( ( q . ) : : : : : : : : : : : : : : : . . . . . . . e > i i @.. . . . . . . . . A j T U T j V V W A . . . . . . . . . . e #.$.b b %.. . . . . . . . . . . . . . . . . . . . . ",
". & ( ( ( ( ( ( ( ( ( ( ( ( ( ( q . ) : : : : : : : : : : : : : : : . . . . . . . . . r y ! . . . . . . . . . A J j ` j W V V J A . . . . . . . . . . . . r &.b n m . . . . . . . . . . . . . . . . . . . . ",
". & ( ( ( ( ( ( ( ( ( ( ( ( ( ( q . ) : : : : : : : : : : : : : : : . . . . . . . . . . y Y . . . . . . . . . A K V V V V V V *.A . . . . . . . . . . . . . =.o 3 -.. . . . . . . . . . . . . . . . . . . . ",
". ;.( ( ( ( ( ( ( ( ( ( ( ( ( ( q . ) : : : : : : : : : : : : : : : . . . . . . . . . 7 @.. . . . . . . . . . ~ A W V V V V J A ~ . . . . . . . . . . . . 7 >.4 m ,.. . . . . . . . . . . . . . . . . . . . ",
". * ( ( ( ( ( ( ( ( ( ( ( ( ( ( '.. ! : : : : : : : : : : : : : : : . . . . . . . . . S > . . . . . . . . . . . L A *.W W *.A L . . . . . . . . . . . . . S > . . . . . . . . . . . . . . . . . . . . . . . ",
". = ( ( ( ( ( ( ( ( ( ( ( ( ( ( ).. ! : : : : : : : : : : : : : : : . . . . . . . . . !.!.. . . . . . . . . . . . ~ A A A A ~ . . . . . . . . . . . . . . !.!.. . . . . . . . . . . . . . . . . . . . . . . ",
". - ( ( ( ( ( ( ( ( ( ( ( ( ( ( ~.. ~ : : : : : : : : : : : : : : : . . . . . . . . . . . . . . . . . . . . . . . . . . . . . . . . . . . . . . . . . . . . . . . . . . . . . . . . . . . . . . . . . . . . ",
". ; _ 5 d q q q q q q q q '.).~.{.. < < 6 : : : : : : : : : : : : : . . . . . . . . . . . . . . . . . . . . . . . . . . . . . . . . . . . . . . . . . . . . . . . . . . . . . . . . . . . . . . . . . . . . ",
". . . . . . . . . . . ].^./.(._._.:._.<.[.].. . . . . . . . . . . . . . . . . . . . . . . ].^./.(._._.:._.<.[.].. . . . . . . . . . . . . . . . . . . . . . . . }.^.|.(._._.:._.<.[.1.. . . . . . . . . . . ",
". . . . . . . . . 2.3.(.(.(.(.<.<._._.:.4.5.# 6.. . . . . . . . . . . . . . . . . . . 2.3.(.(.(.(.<.<._._.:.4.5.# 6.. . . . . . . . . . . . . . . . . . . . 2.3.(.(.(.(.<.<._._.:.# 5.# 6.. . . . . . . . . ",
". . . . . . . 2.7.7.7.7.7.7.7.7.(.<.8.9.:.4.5.0.5.6.. . . . . . . . . . . . . . . 2.7.7.7.7.7.7.7.7.(.<.8.9.:.4.5.0.5.6.. . . . . . . . . . . . . . . . 2.3.3.3.3.3.3.3.3.(.<.8._.:.a.5.0.5.6.. . . . . . . ",
". . . . . . b.(.3./.[.[.[.[.[./.3.3.<.8.9.# a.c.d.;._.. . . . . . . . . . . . . b.(.3./.[.[.[.[.[./.3.3.<.8.9.# a.c.d.e._.. . . . . . . . . . . . . . f.(.3./.[.[.[.[.[./.3.3.<.8._.# a.c.d.;._.. . . . . . ",
". . . . . 7.(.7.[.[.b.6.6.6.6.[.[.7.(.<._.:.# 5.0.g.;.0.h.. . . . . . . . . . 7.(.7.[.[.b.6.6.6.6.[.[.7.(.<._.:.# 5.0.g.i.0.h.. . . . . . . . . . . |.(.3.[.[.f.6.6.6.6.f.[.3.3.<._.:.# 5.0.g.;.0.h.. . . . ",
". . . . 3.(.3.[.b.6.^.^.^.^.^.6.b.[.3.(.8.9.# a.c.d.;.j.d.. . . . . . . . . 3.(.3.[.b.6.^.^.^.^.^.6.b.[.3.(.8.9.# a.c.d.e.j.d.. . . . . . . . . . 3.(.3.[.f.6.^.^.^.^.^.6.f.[.3.(.8._.# a.c.d.;.j.d.. . . . ",
". . . [.<.(./.[.6.^.k.2.2.2.k.^.6.[./.(.<._.:.4.5.d.;.* l.# . . . . . . . [.<.(./.[.6.^.k.2.2.2.k.^.6.[./.(.<._.:.4.5.d.e.m.l.# . . . . . . . . [.<.(./.f.6.^.k.2.2.2.k.^.6.f./.(.<._.:.a.5.d.;.* l.# . . . ",
". . 2.8.(.3.[.b.^.k.2.].].].2.k.^.b.[.3.(.8.:.# 5.0.g.* l.n.b.. . . . . 2.8.(.3.[.b.^.k.2.].].].2.k.^.b.[.3.(.8.:.# 5.0.g.m.o.n.b.. . . . . . 2.8.(.3.[.f.^.k.2.1.1.1.2.k.^.f.[.3.(.8.:.# 5.p.g.* l.q.f.. . ",
". . <.8.(.7.[.6.^.2.].r.h.h.].2.^.6.[.7.(.8.9.# 5.0.g.* s.n.s.. . . . . <.8.(.7.[.6.^.2.].r.h.h.].2.^.6.[.7.(.8.9.# 5.0.g.m.o.n.o.. . . . . . <.8.(.3.[.6.^.2.1.r.h.h.1.2.^.6.[.3.(.8.:.# 5.0.g.* s.q.s.. . ",
". ^.9.8.(.7.[.6.t.u.v.r.. h.].2.^.6.[.7.<.w.x.y.5.0.g.* s.n.z.7.. . . ^.9.8.(.7.[.A.B.C.D.E.. h.].2.^.6.[.7.F.G.H.G.c.c.g.m.o.n.z.7.. . . . ^._.8.(.|.[.6.I.u.J.r.. h.}.2.^.6.[.|.<.w.K.y.5.0.g.* s.q.z.3.. ",
". _._.8.(.7.7.> > L.> M.N.r.].2.^.6.[.O.P.> L.Q.R.0.g.* s.n.z.l.. . . _._.8.(.7.S.T.U.V.W.X.Y.r.].2.^.6.[.Z.`.U.V.W. +.+g.m.o.n.z.l.. . . . _._.8.(.3.++> @+) > #+r.r.1.2.^.6.[.(.$+> ) @+%+p.g.* s.q.z.l.. ",
"].# :.8.(.3.&+> N.. . *+> =+=+k.^.b./.-+L.. . N.Q.;+g.* l.n.z.>+,+. ].# :.8.(.'+`.)+. . . } !+,+2.k.^.b.'+!+} . . . Y.~+{+m.o.n.z.>+,+. . 1.# :.8.(.(.]+@+} ^+6 @+/+(+_+k.^.:+<+$+@+6 ^+^+#+[+;.* l.q.z.>+k.",
"[.4.:._.<.<.}+|+. . . . 1+2+k.^.6.[.3+4+. . . . |+5+;.* l.6+z.>+9.. [.4.:._.<.7+8+. . . )+A T.C.k.^.6.[.9+T.A )+. . . > 0+m.l.6+z.>+a+. . [.a.:._.b+A A /+$+A c+c+d+e+A I.f+A $+/+> > /+A c+d+g+h+l.q.z.>+i+",
"9.a.# 9.8.j+M.. . . . . k+l+^.6.b.[.&+*+. . . . . }+m+j.l.6+z.>+n+. _.a.# 9.8.o+p+. . . q+r+X.s+^.6.b.[.s+> U.q+. . . p+t+j.l.6+z.>+{+. u+w.[+%+/+A J.. ^+) /+v+V V V e+#+b+e+w+} . } ~ @+c+V V g+x+y+z+A+B+",
"4.5.# :._.C+> . . . . . U.l+b.b.[.7.D+~ . . . . . E+F+s.n.G+( H+I+. 4.5.# :._.J+Y.. . . q+D.K+s+b.b.[.7.s+!+W.q+. . . p+L+o.n.G+( M+I+. ^+b+K.N+O+#+J.^+J.P+$+V V V Q+c+++++e+> 6 } 6 w+#+e+V V Q+R+S+z+h+T+",
"d.c.a.# 9.U+M.r.^+A A ^+> t.[./.3.3.w.> ^+A A ^+N.}+m+l.n.z.( H+V+. d.c.a.# 9.W+W.. . . )+A T.o+[./.3.3.G.T.A )+. . . 8+X+l.n.z.( M+Y+. . d.c.a.d+#+P+) P+#+e+V V V v+Z+/.3.Z+/+w+~ w+> $+J V V V g+z.( `+ @",
"g.0.5.4.:.9.-+.@+@~ U.+@}+O.3.3.(.<.@@}+#@~ U.+@v.R.j.l.6+z.>+$@%@. g.0.5.4.:.&@*@} . . . V.X.=@3.3.(.<.a+*@Y.. . . )+*@-@l.6+z.>+;@%@. . g.0.5.x+d+$+/+$+e+V V V V e+>@(.(.,@c+#+@+@+$+g+V V V v+h+z.>+`+ @",
";.d.0.5.4.:.'@4+#@U.> )@w.(.(.<.<._._.!@)@*+k+#@4+F+l.n.G+( H+V+~@. e.d.0.5.4.:.'@T.W.~ 8+K+F.(.(.<.<._._.'@A 8+~ W. +{@o.n.G+( M+Y+~@. . ;.d.0.]@O+J J V V V V V d+Z+(.<.<._.%+e+c+e+J V V V J ^@/@( `+(@~@",
"0.g.d.c.5.4.4._@A )@)@x.8.8.8.8.9.9.# # :@)@)@P.<@s.l.6+z.>+$@%@{@. 0.e.d.c.5.4.4.:.J+J+W+8.8.8.8.8.9.9.# # 5.[@}@L+m.o.l.6+z.>+;@%@{@. . p.g.d.c.]@K.O+g+J v+J e+K.i+8.8._.:.|@1@g+J v+J g+R+2@/@z.>+`+ @3@",
"a.;.;.d.0.5.a.# # @@:.9.9.9.9.:.:.# a.5.0.d.n+;.j.l.6+z.( H+4@~@5@. a.i.g.d.0.5.a.# # :.:.9.9.9.9.:.:.# a.5.0.d.g.i.j.l.6+z.( M+4@~@6@. . a.;.;.d.0.5.5.'@N+7@N+|@_.:.:.:.:.# a.5.8@9@0@9@a@l.q.b@(@`+(@~@5@",
"(.j.;.;.d.0.0.5.a.a.# # # # # # a.a.c.c.d.g.;.j.l.n.G+( >+$@%@c@U+. (.j.i.e.d.0.0.5.a.a.# # # # # # a.a.c.c.d.e.e.j.l.n.G+( >+;@%@c@F.. . (.j.;.0@1@0.0.5.a.a.# # # # # # a.a.c.c.d.g.;.j.l.q./@d@e@`+ @c@>@",
"2.l.j.* ;.g.d.0.0.5.5.5.5.5.5.5.c.c.d.g.;.;.j.l.n.G+z.>+H+V+~@f@g@. 2.l.j.m.e.g.d.0.0.5.5.5.5.5.5.5.c.c.d.g.e.e.j.l.n.G+z.>+M+Y+~@f@,+. . 2.l.j.9@h@g.d.0.0.5.5.5.5.5.5.5.c.c.d.g.;.;.j.l.q./@( i@A+(@~@A+g@",
". ;.l.s.* * ;.g.g.d.0.0.0.0.0.0.d.g.g.;.* s.l.n.G+z.$@$@$@~@f@j@. . . i.l.o.m.m.e.g.g.d.d.k@.+0+[@[@[@l@l@0+m+o.l.n.G+z.>+M+Y+~@f@j@. . . . ;.l.l.R+9@;.g.g.d.d.0.0.0.0.0.d.g.g.;.* s.l.q./@z.A+m@(@~@c@j@. ",
". /.6+l.l.j.* ;.;.;.g.g.g.g.g.;.;.;.* j.j.l.6+6+z.~@n@c@%@c@o@p@. . . /.6+l.l.j.m.m.i.6@}@q@r@}@L+l@t+t+s@t@q@q@u@v@( ( M+4@%@c@o@S.. . . . /.q.q.3@h@w@;.;.;.g.g.g.g.g.;.;.;.* j.j.l.q./@z. @m@o@~@c@o@:+. ",
". . s.6+n.n.l.s.s.* * * * * * * * s.s.l.n.6+z.z.x@y@x@%@c@o@j@. . . . . o.6+n.n.l.-@t@q@X+m+m.m.m.m.m.o.o.l.n.z@A@B@u@;@;@%@c@o@j@. . . . . . s./@q.T+h@2@j.* * * * * * * * s.s.l.q.q.z.z.e@g+e@~@c@o@j@. . ",
". . [.z.z.6+6+C@D@X+E@s.s.s.l.l.l.l.n.6+6+z.f@n@n@f@%@c@o@o@F@. . . . . [.z.z.6+6+G@H@l.o.o.o.o.o.o.l.l.n.6+6+z.( >+B@I@%@c@o@o@A.. . . . . . f.z.z.q.J@R+R+3@l.s.s.s.l.l.l.q.q.q./@>+A+m@i@c@~@c@o@o@++. . ",
". . . a.( ( z.G+K@L@D@L@C@K@M@N@N@M@O@x@L@#@y@x@V+~@c@o@o@'@. . . . . . . a.( ( z.P@P@6+n.n.n.n.n.n.6+6+z.z.( >+>+;@o@I@c@o@o@'@. . . . . . . . a.( ( z./@S+h+^@h+z+j@J@J@J@b@Q@z+h+m@i@e@ @~@c@o@o@'@. . . ",
". . . . m+>+>+( ( z.H+O@C@R@R@y@y@y@R@S@x@V+V+%@~@f@o@o@<@. . . . . . . . . m+>+>+( z.z.z.z.z.z.z.z.z.z.( >+>+;@;@%@~@f@o@o@0+. . . . . . . . . . s.>+>+( ( z.>+Q@d@h+i@i@m@i@h+d@e@~@(@ @~@c@o@o@9@. . . . ",
". . . . h.m+H+H+>+>+>+( ( ( >+>+>+>+H+$@$@%@~@c@f@o@o@<@r.. . . . . . . . . h.m+M+M+>+>+>+( ( ( >+>+>+>+M+M+Y+Y+~@c@f@o@o@0+r.. . . . . . . . . . h.a@`+`+>+>+>+( ( ( >+>+>+`+`+`+(@ @~@c@c@o@o@9@r.. . . . ",
". . . . . . T@V+4@4@4@H+H+H+H+$@$@$@V+%@~@c@f@o@o@o@'@. . . . . . . . . . . . . T@Y+4@4@4@M+M+M+M+M+4@4@Y+%@~@c@f@o@o@o@'@. . . . . . . . . . . . . . ]@(@(@`+`+`+`+`+`+`+`+(@(@ @~@c@c@o@o@o@'@. . . . . . ",
". . . . N.|+} 3+M@%@%@%@%@%@%@%@~@~@~@c@f@o@o@o@O@t.} |+N.. . . . . . . . . U@V@} t.v@%@%@%@%@%@%@%@~@~@~@c@f@o@o@o@G@t.} V@U@. . . . . . . . . . r.V@} 3+b@~@ @ @ @ @ @~@~@~@~@c@c@o@o@o@S+3+} V@r.. . . . ",
". . } p+~ ~ ~ ~ ~ D+K@c@c@c@c@f@f@f@o@o@o@o@O@D+~ ~ ~ ~ ~ p+} . . . . . } p+~ ~ ~ ~ ~ W@P@c@c@c@c@f@f@f@o@o@o@o@G@W@~ ~ ~ ~ ~ p+} . . . . . . } p+~ ~ ~ ~ ~ D+Q@c@c@c@c@c@c@o@o@o@o@o@S+D+~ ~ ~ ~ ~ p+} . . ",
". . } p+~ ~ ~ ~ ~ ~ ~ X@!@X+O@o@o@o@O@X+!@X@~ ~ ~ ~ ~ ~ ~ p+} . . . . . } p+~ ~ ~ ~ ~ ~ ~ X@!@X+G@o@o@o@G@X+!@X@~ ~ ~ ~ ~ ~ ~ p+} . . . . . . } p+~ ~ ~ ~ ~ ~ ~ X@!@T+S+o@o@o@S+T+!@X@~ ~ ~ ~ ~ ~ ~ p+} . . ",
". . . . N.|+} } .@.@.@p+~ ~ ~ ~ ~ ~ ~ ~ ~ p+.@.@.@} } |+N.. . . . . . . . . U@V@} } Y.Y.Y.p+~ ~ ~ ~ ~ ~ ~ ~ ~ p+Y.Y.Y.} } V@U@. . . . . . . . . . r.V@} } 6 6 6 p+~ ~ ~ ~ ~ ~ ~ ~ ~ p+6 6 6 } } V@r.. . . . "};
