/* XPM */
/* c:\dev\checkbox.xpm */
static char* CheckboxXPM[] =
{
 "12 12 2 1",
 "  c None",
 "0 c #000000",
 "000000000000",
 "0          0",
 "0        0 0",
 "0       00 0",
 "0      000 0",
 "0 0   000  0",
 "0 00 000   0",
 "0 00000    0",
 "0 0000     0",
 "0  00      0",
 "0          0",
 "000000000000",
};
