/* XPM */
/* DisabledPrint.xpm */
static char* DisabledPrintIconXPM[] =
{
 "17 15 3 1",
 "  c None",
 "8 c #808080",
 "f c #ffffff",
 "     888888888   ",
 "    8 fffffff8f  ",
 "    8f88888 8 f  ",
 "   8 f fffff8f   ",
 "   8f88888 8888  ",
 "  8 f fffff8f8f8 ",
 " 8888888888 8 88f",
 "8 fffffffff8 8 8f",
 "8888888888888 f8f",
 "8ffffff888ff8f8 f",
 "8f     888f 888f ",
 "8888888888888f8f ",
 " 8fffffffff8f8 f ",
 "  88888888888 f  ",
 "   fffffffffff   ",
};
