/* XPM */
/* c:\dev\Calendar.xpm */
static char* DisabledCalendarIconXPM[] =
{
 "14 12 3 1",
 "  c None",
 "8 c #808080",
 "f c #ffffff",
 "8888888888888 ",
 "8           8f",
 "8           8f",
 "8888888888888f",
 "8  8  8  8  8f",
 "8888888888888f",
 "8  8  8  8  8f",
 "8888888888888f",
 "8  8  8  8  8f",
 "8           8f",
 " 888888888888f",
 "  ffffffffffff",
};
