/* XPM */
/* Paste.xpm */
static char* EditPasteIconXPM[] =
{
 "15 14 7 1",
 "  c None",
 "0 c #000000",
 "3 c #808000",
 "4 c #000080",
 "8 c #808080",
 "b c #ffff00",
 "f c #ffffff",
 "     0000      ",
 " 00000bb00000  ",
 "08380b00b03830 ",
 "03807777770380 ",
 "08300000000830 ",
 "03838383838380 ",
 "08383844444440 ",
 "0383834fffff44 ",
 "0838384fffff4f4",
 "0383834f444f444",
 "0838384fffffff4",
 "0383834f44444f4",
 " 000004fffffff4",
 "      444444444",
};
