/* XPM */
static char* SchedulerXPM[] =
{
/* width height ncolors chars_per_pixel */
"32 32 63 2",
/* colors */
"   c None",
"AA c #FFFFFFFFFFFF",
"BA c #333333333333",
"CA c #DDDDDDDDDDDD",
"DA c #848484848484",
"EA c #00009999CCCC",
"FA c #5C5C73737A7A",
"GA c #BDBDBDBDBDBD",
"HA c #00008989B7B7",
"IA c #57575F5F6262",
"JA c #EFEFF9F9FCFC",
"KA c #3030ACACD6D6",
"LA c #A5A5A5A5A5A5",
"MA c #505050505050",
"NA c #C3C3D8D8E0E0",
"OA c #8080CCCCE6E6",
"PA c #DFDFF2F2F9F9",
"AB c #71717B7B7E7E",
"BB c #424242424242",
"CB c #30308989A7A7",
"DB c #999999999999",
"EB c #5B5B67676B6B",
"FB c #B0B0DFDFEFEF",
"GB c #6060BFBFDFDF",
"HB c #CCCCCCCCCCCC",
"IB c #3D3D86869F9F",
"JB c #B5B5B5B5B5B5",
"KB c #F7F7F7F7F7F7",
"LB c #2020A6A6D2D2",
"MB c #E6E6E6E6E6E6",
"NB c #9090D3D3E9E9",
"OB c #5050B9B9DCDC",
"PB c #737373737373",
"AC c #22229797BEBE",
"BC c #00009191C1C1",
"CC c #8C8C8C8C8C8C",
"DC c #4A4A4A4A4A4A",
"EC c #C5C5C5C5C5C5",
"FC c #525257575959",
"GC c #EFEFEFEFEFEF",
"HC c #AEAEAEAEAEAE",
"IC c #676787879292",
"JC c #3A3A3A3A3A3A",
"KC c #5A5A7A7A8585",
"LC c #7474BABAD1D1",
"MC c #666666666666",
"NC c #4040B3B3D9D9",
"OC c #ABABD9D9E8E8",
"PC c #00008D8DBCBC",
"AD c #474784849898",
"BD c #D6D6D6D6D6D6",
"CD c #BEBEE4E4F0F0",
"DD c #595959595959",
"ED c #55557E7E8B8B",
"FD c #7070C6C6E2E2",
"GD c #00009494C5C5",
"HD c #8F8FD2D2E9E9",
"ID c #656572727777",
"JD c #9F9FD9D9ECEC",
"KD c #65657D7D8686",
"LD c #3B3B8B8BA5A5",
"MD c #7B7B7B7B7B7B",
"ND c #464685859A9A",
/* pixels */
"              GBOBJDJA                  MBCCDDBABADDCCMB        ",
"              KAEAEAEAOBJDJA          CCBBMCHCCACAHCMCJCCC      ",
"              EAEAEAEAEAEAEAOBHDPA  DDDDCAAAAAAAAAMDCABDMADD    ",
"            CDEAEAEAEAEAEAEAEAEAEAKDMCKBAAAAAAAAMBDDKBAAGCMCCC  ",
"            OAEAEAEAEAEAEAEAEAEAACJCMBAAAAAAAAAAHCCCAAAAAABDBAMB",
"            OBEAEAEAEAEAEAEAEAEAFAPBAAAAAAAAAAAAPBECAAAAAAAAMCDA",
"            LBEAEAEAEAEAEAEAEAEAFCECAAAAAAAAAAAABAAAAAAAAAAAJBDD",
"          PAEAEAEAEAEAEAEAEAEAEABAKBAAAAAAAAAAGAMCAAAAAAAAAAMBBA",
"    KBKBKBOCGDGDEAEAEAEAEAEAEAEABAKBAAAAAAAAAAGCPBMCGAAAAAAAGCBA",
"  KBGCGCMBLCPCPCBCBCGDGDGDGDGDGDFCHBAAAAAAAAAAAAAAHBMDMDHBAAJBFC",
"KBGCDBDCMCIDKCADIBHAHAHAPCPCPCPCFAPBAAAAAAAAAAAAAAAAAAHBHBAAPBAB",
"KBGCDAPBHCCCMCFCBBJCBAIAEBKCEDIBLDBABDAAAAAAAAAAAAAAAAAAAAHBBANA",
"KBMBMCLAAAAAAAAAAAAAMBGADBPBDDDCBBMCMCMBAAAAAAAAAAAAAAAAMBDDKC  ",
"KBMBMABDAAAAAAAAAAAAAAAAAAAAAAAAAAKBDDMABDAAAAAAAAAAAABDMAFCNC  ",
"KBMBJCKBECDBJBHBGCAAAAAAAAAAAAAAAAAAAACCJCMCHCBDCAHCMCJCKCEAOA  ",
"GCECBBAACAHCDBDAPBPBMDDBHCHBMBKBAAAAAAAAMBCCDDBABAFCKCACEAEACD  ",
"GCGADDAAAAAAAAAAAAGCHBJBDBDAPBPBPBCCLAGAMBAAMCKCPCGDEAEAEAEA    ",
"GCCCPBAAAAAAAAAAAAAAAAAAAAAAAAGCBDGALACCGAAAMANDPCEAEAEAEAKA    ",
"MBDACCAAAAMBDDAAAAAAAAAAAAAAAAAAAAAAAAAAAAAABBCBBCEAEAEAEAFD    ",
"MBMCJBAAAAECMDAAAAHBDBAAAAAAAAAAAAAAAAAAAAGCJCHABCEAEAEAEAJD    ",
"MBMACAAAAADBDBAAAALADBAAAAECBDAAAAJBMBAAAAECDCHAGDEAEAEAEAPA    ",
"MBJCKBAAAAMDGAAAAACCGAAAAACCGAAAAAPBCAAAAALAIAHAGDEAEAEALB      ",
"ECDCAAAAAAMCBDAAAAPBCAAAAAMDCAAAKBPBKBAAAAMDFAPCGDEAEAEAOB      ",
"HCDDAAAAAABAAAAAAADDKBAAKBPBGCAACAPBAAAAAAIAKCPCGDEAEAEANB      ",
"CCMDAAAABDDDAAAAMBPBAAAACAPBAAAAGACCAAAAAAMAIBBCEAEAEAEACD      ",
"MDDBAAAAJBDAAAAAGACCAAAAGACCAAAADBLAAAAAAABBCBBCEAEAEAEA        ",
"MCECAAAAAAAAAAAADBLAAAAALALAAAAACCECAAAAGCBAHAGDEAEAEANC        ",
"BBDCDDPBDBECGCAAMBMBAAAACCGAAAAAPBMBAAAAECDCHAGDEAEAEAOA        ",
"GAGACCDAMCDDBAJCBBFCPBDBCCHBKBAAHCKBAAAADBIAHAGDEAEAEAFB        ",
"KBGCGCMBMBMBMBHBJBDBCCPBMCBABABBFCMCDALAMCFAPCGDEAEAEAJA        ",
"  KBKBKBKBKBKBGCGCGCMBMBMBMBMBGAHCCCMDMCDCICBCEAEAEALB          ",
"                KBKBKBKBKBKBKBGCGCMBMBMBMBGCKBCDOANCGB          ",
};
