/* XPM */
/* c:\dev\Calendar.xpm */
static char* CalendarIconXPM[] =
{
 "13 11 5 1",
 "  c None",
 "0 c #000000",
 "6 c #008080",
 "7 c #808080",
 "f c #ffffff",
 "0000000000000",
 "0fffffffffff0",
 "0fffffffffff0",
 "0666666666660",
 "0ff7ff7ff7ff0",
 "0777777777770",
 "0ff7ff7ff7ff0",
 "0777777777770",
 "0ff7ff7ff7ff0",
 "0000000000000",
 " 777777777777",
};
