/* XPM */
/* c:\dev\checkbox.xpm */
static char* CheckCursorXPM[] =
{
 "16 16 2 1",
 "  c None",
 "0 c #000000",
 "                ",
 "                ",
 "                ",
 "                ",
 "           0    ",
 "          00    ",
 "         000    ",
 "    0   000     ",
 "    00 000      ",
 "    00000       ",
 "    0000        ",
 "     00         ",
 "                ",
 "                ",
 "                ",
 "                ",
};
