/* XPM */
/* c:\dev\SmallDownIcon.xpm */
static char* SmallDownIconXPM[] =
{
 "3 2 2 1",
 "  c None",
 "0 c #000000",
 "000",
 " 0 ",
 };
